<svg width="44" height="42" viewBox="0 0 44 42" fill="none" xmlns="http://www.w3.org/2000/svg">
<g clip-path="url(#clip0_1488_26)">
<path d="M4.38114 36.8217L0.84668 0.0693359L43.0573 0.143193L39.3199 36.8217L22.1113 41.0613L4.38114 36.8217Z" fill="#1B73BA"/>
<path d="M22.1113 37.5116L22.1113 3.56934L39.4939 3.61857L36.3942 33.9868L22.1113 37.5116Z" fill="#1C88C7"/>
<path d="M35.1776 7.90771L8.4375 7.90771L9.16189 12.3443L21.8509 12.3443L9.36477 16.9046L10.0888 21.1936L28.4855 21.1936L27.819 27.1832L21.5902 28.2186L15.9411 26.9863L15.5064 23.5845H10.3206L11.0157 30.6591L22.1406 33.2965L32.8022 30.4126L34.1638 16.584L22.8936 16.584L35.1772 12.2459L35.1776 7.90771Z" fill="white"/>
</g>
<defs>
<clipPath id="clip0_1488_26">
<rect width="42.2106" height="41.13" fill="white" transform="translate(0.84668)"/>
</clipPath>
</defs>
</svg>
