<svg width="43" height="42" viewBox="0 0 43 42" fill="none" xmlns="http://www.w3.org/2000/svg">
<g clip-path="url(#clip0_1488_22)">
<path d="M36.8572 23.6292C35.3815 23.64 34.1036 24.1005 33.0319 24.7861C32.6361 23.7685 32.2404 22.8794 32.1745 22.2154C32.1003 21.4442 32.0096 20.9729 32.1003 20.0518C32.1909 19.1306 32.6031 17.8238 32.6031 17.7167C32.5948 17.6203 32.5124 17.1491 31.6633 17.1383C30.8142 17.1276 30.0804 17.3526 29.998 17.6418C29.9155 17.931 29.7506 18.595 29.6435 19.2805C29.4951 20.2874 27.9451 23.8541 27.063 25.7285C26.7745 25.0002 26.5271 24.3575 26.4776 23.8433C26.4035 23.0722 26.3127 22.6008 26.4035 21.6798C26.4942 20.7585 26.9064 19.4519 26.9064 19.3448C26.8981 19.2484 26.8157 18.7771 25.9666 18.7664C25.1174 18.7557 24.3837 18.9806 24.3013 19.2698C24.2188 19.559 24.1281 20.2445 23.9468 20.9086C23.7735 21.5727 21.7125 27.528 21.1766 29.081C20.9045 29.8736 20.6655 30.5056 20.4923 30.934C20.3192 31.3625 20.4841 30.9662 20.4676 31.009C20.3192 31.3732 20.2368 31.5767 20.2368 31.5767V31.5875C20.1213 31.8553 19.9977 32.1122 19.9399 32.1122C19.8987 32.1122 19.8162 31.3946 19.9564 30.4093C20.2614 28.342 21.0034 25.1181 20.9952 25.0003C20.9952 24.9467 21.1353 24.3789 20.517 24.0898C19.9151 23.8007 19.7009 24.2826 19.6513 24.2826C19.6019 24.2826 19.5606 24.454 19.5606 24.454C19.5606 24.454 20.2284 20.8231 18.2828 20.8231C17.0626 20.8231 15.3808 22.5476 14.5481 24.1221C14.0205 24.497 12.8993 25.2895 11.7121 26.1357C11.2587 26.4571 10.7888 26.7998 10.3436 27.1104L10.253 26.9817C7.8951 23.7149 3.53388 21.4013 3.71526 17.0098C3.78121 15.4139 4.20991 11.2045 12.0915 6.10607C18.5468 1.92881 23.7159 3.07488 24.6145 5.62408C25.8923 9.2658 21.8526 16.0351 15.1419 17.0098C12.5862 17.3847 11.2423 16.0994 10.9043 15.6174C10.5498 15.114 10.5004 15.0926 10.3685 15.1889C10.1541 15.3389 10.286 15.7888 10.3685 16.0565C10.5663 16.7313 11.3907 17.931 12.7923 18.5308C14.0206 19.0556 17.0216 19.3448 20.6491 17.5239C24.7135 15.4781 27.8875 9.80135 26.9559 5.0564C26.0078 0.22577 19.8411 -1.35945 14.0124 1.329C10.5415 2.93564 6.78212 5.442 4.07801 8.73025C0.862744 12.629 0.351599 16.0351 0.56595 17.449C1.31626 22.4938 6.6667 25.7821 8.81021 28.2135C8.70304 28.2883 8.6041 28.3633 8.51342 28.4277C7.44166 29.1131 3.36075 31.8873 2.33847 34.822C1.18427 38.1424 2.51984 40.531 3.41022 40.8524C6.1638 41.8485 8.98334 40.0597 10.5085 37.1142C12.0254 34.1687 11.8441 30.3449 11.1433 28.599L11.1185 28.5348L11.9594 27.8921C12.5036 27.4744 13.0395 27.0888 13.5094 26.7567C13.2456 27.6885 13.0559 28.7917 12.9571 30.3984C12.8417 32.2836 13.4352 34.7256 14.2184 35.6896C14.5647 36.1072 14.9769 36.118 15.2325 36.118C16.1394 36.118 16.5516 35.1432 17.005 33.9758C17.5656 32.5513 18.0603 30.9018 18.0603 30.9018C18.0603 30.9018 17.442 35.3683 19.132 35.3683C19.7503 35.3683 20.3687 34.3293 20.649 33.7937V33.8045C20.649 33.8045 20.6655 33.7723 20.6984 33.6973C20.733 33.6309 20.766 33.5631 20.7974 33.4939V33.4725C21.0447 32.9156 21.5971 31.641 22.4215 29.5309C23.4849 26.8103 24.5073 23.4042 24.5073 23.4042C24.5073 23.4042 24.6062 24.2397 24.9113 25.6107C25.0925 26.4248 25.4883 27.3137 25.7933 28.1813C25.546 28.6312 25.3976 28.8883 25.3976 28.8883L25.4058 28.8991C25.208 29.2418 24.9854 29.6061 24.7546 29.9702C23.9137 31.2769 22.9079 32.7658 22.776 33.1943C22.6193 33.6976 22.6523 34.0724 22.9574 34.3725C23.18 34.5867 23.5757 34.6294 23.9961 34.5867C24.7546 34.5223 25.2822 34.2761 25.5461 34.126C25.9583 33.9332 26.4282 33.644 26.8816 33.2156C27.7061 32.4231 28.209 31.2984 28.1595 29.7989C28.1348 28.9741 27.9287 28.1601 27.6731 27.3889C27.7473 27.2497 27.8216 27.1103 27.8957 26.9605C29.1983 24.4862 30.2041 21.7657 30.2041 21.7657C30.2041 21.7657 30.303 22.6011 30.608 23.9721C30.7646 24.6683 31.078 25.4289 31.3583 26.1787C30.1381 27.4747 29.3714 28.9743 29.1076 29.9597C28.6212 31.7805 29.0004 32.6053 29.7177 32.7981C30.0391 32.8837 30.5009 32.6909 30.847 32.4981C31.2757 32.3161 31.7951 32.0053 32.2734 31.5449C33.0978 30.7523 33.8893 29.649 33.848 28.1602C33.8233 27.4747 33.6831 26.7999 33.4935 26.1573C34.5323 25.6003 35.876 25.279 37.5827 25.5467C41.2514 26.1037 41.9769 29.0814 41.8368 30.3238C41.6967 31.5664 40.9299 32.2518 40.6743 32.466C40.4187 32.6695 40.3363 32.7446 40.361 32.8945C40.394 33.1195 40.5094 33.1087 40.732 33.0659C41.037 33.0016 42.6611 32.0484 42.7271 29.7564C42.826 26.8104 40.6743 23.5971 36.8572 23.6292ZM8.56288 36.0217C7.35098 37.7462 5.64442 38.3996 4.91892 37.8426C4.13572 37.2535 4.44067 34.715 5.93296 32.8834C6.83983 31.7695 8.01876 30.7412 8.79372 30.1093C8.96685 29.97 9.23067 29.7666 9.54395 29.5202C9.59342 29.4775 9.62639 29.4559 9.62639 29.4559C9.6841 29.4131 9.75006 29.3595 9.81601 29.306C10.3684 31.9194 9.84074 34.2116 8.56288 36.0217ZM17.4255 28.192C17.005 29.5309 16.1146 32.9691 15.5787 32.7763C15.117 32.6156 14.8368 30.0129 15.488 27.4423C15.8178 26.1461 16.5185 24.6039 16.9307 24.0039C17.5986 23.04 18.324 22.7186 18.5055 23.1149C18.7198 23.6292 17.6893 27.3566 17.4255 28.192ZM24.7381 32.7335C24.5568 32.8514 24.3919 32.937 24.3177 32.8728C24.26 32.83 24.3918 32.6693 24.3918 32.6693C24.3918 32.6693 25.3069 31.3947 25.6696 30.8056C25.8757 30.463 26.1231 30.0667 26.3869 29.6167V29.7452C26.387 31.2875 25.2493 32.3157 24.7381 32.7335ZM30.3771 31.0626C30.2452 30.934 30.2618 30.5377 30.7069 29.2953C30.8801 28.8026 31.2757 27.9778 31.96 27.1959C32.0425 27.5172 32.092 27.8278 32.0837 28.1171C32.0755 30.045 31.0203 30.7627 30.3771 31.0626Z" fill="#CF649A"/>
</g>
<defs>
<clipPath id="clip0_1488_22">
<rect width="42.2106" height="41.13" fill="white" transform="translate(0.533203)"/>
</clipPath>
</defs>
</svg>
