<svg width="52" height="50" viewBox="0 0 52 50" fill="none" xmlns="http://www.w3.org/2000/svg">
<path d="M7.20117 29.7935V33.7418V46.5832C7.20117 48.4651 8.73328 50.0001 10.5953 50.0001H41.3912C43.2605 50.0001 44.7853 48.4577 44.7853 46.5832V39.6828C44.8293 39.2178 44.9466 38.775 45.2031 38.4134C45.4744 38.0297 46.0681 37.5795 46.4273 37.1588C47.0578 36.4282 47.6222 35.8378 47.6002 34.7898C47.5856 34.0149 47.1824 32.7455 46.9185 32.0223C46.7646 31.6016 45.7896 29.2769 45.1885 29.4688C44.9979 29.5278 45.0345 29.9632 45.0345 30.1256C45.0272 30.5167 45.0199 31.2769 45.0052 32.3913C45.0052 32.8119 44.9979 33.1662 44.9832 33.454C44.9319 34.2953 44.7193 34.6053 43.9716 35.0481C43.4878 35.3359 41.12 35.3359 40.6362 35.0481C39.8884 34.6053 39.6758 34.2953 39.6245 33.454C39.6099 33.1662 39.6025 32.8119 39.6025 32.3913C39.5879 31.2695 39.5805 30.5167 39.5732 30.1256C39.5732 29.9632 39.6099 29.5278 39.4193 29.4688C38.8182 29.2769 37.8432 31.5942 37.6892 32.0223C37.4253 32.7455 37.0222 34.0149 37.0075 34.7898C36.9855 35.8378 37.5426 36.4282 38.1804 37.1588C38.5396 37.5795 39.1334 38.0223 39.4046 38.4134C39.6612 38.775 39.7785 39.2178 39.8225 39.6828V44.4503C39.8225 44.7529 39.5805 44.9965 39.28 44.9965H12.7211C12.4206 44.9965 12.1787 44.7529 12.1787 44.4503V34.2953C12.1787 33.9928 12.4206 33.7492 12.7211 33.7492H13.4322C18.3071 33.6237 19.1134 34.7381 21.3859 34.7012C22.8007 34.6791 24.89 33.6533 25.4031 33.7418C25.8649 33.823 26.2461 34.1404 26.5467 34.6939C27.0012 35.5426 27.0965 36.502 27.2358 37.4392C29.9848 36.9669 31.3629 36.7308 31.3629 36.7308C31.3263 35.395 31.0184 34.1108 30.4686 32.9817C30.1167 31.8304 29.4569 30.8119 28.5773 30.037C26.4221 28.1256 23.5191 29.3728 23.0573 26.9743C23.0573 26.8267 22.9327 26.7012 22.7861 26.7012H22.141V25.6533C22.6908 25.3876 23.1013 24.8636 23.2186 24.2363C24.1569 24.502 26.6713 25.0998 27.6096 25.0333C28.0055 25.0038 28.3647 24.7824 28.5626 24.4356C28.6579 24.2658 28.7166 24.0739 28.7239 23.882C28.7166 23.6902 28.6652 23.4983 28.5626 23.3285C28.3647 22.9817 28.0055 22.7603 27.6096 22.7308C26.686 22.6643 24.1349 23.2621 23.2113 23.5278C23.0427 22.6127 22.2436 21.9189 21.2906 21.9189C20.3303 21.9189 19.5313 22.6127 19.37 23.5278C18.4537 23.2695 15.8953 22.6643 14.9716 22.7308C14.5758 22.7603 14.2166 22.9817 14.0187 23.3285C13.9234 23.4983 13.8647 23.6902 13.8574 23.882C13.8647 24.0739 13.916 24.2658 14.0187 24.4356C14.2166 24.7824 14.5758 25.0112 14.9716 25.0333C15.91 25.0998 18.4317 24.502 19.3627 24.2363C19.48 24.8636 19.8832 25.3876 20.4403 25.6533V26.7012H19.7952C19.6486 26.7012 19.524 26.8267 19.524 26.9743C19.2967 28.1477 18.3071 28.7603 16.5551 28.8046H16.1005H8.16882C7.64101 28.8046 7.20117 29.24 7.20117 29.7713V29.7935Z" fill="white"/>
<path d="M25.9963 6.56827L14.0621 18.583L12.8672 19.786L12.6473 20.0074L12.1708 20.4871L6.45289 26.2436L4.79617 27.9115L3.9898 28.7233C2.96351 29.3949 1.61468 29.2546 0.756999 28.3838C-0.108015 27.5129 -0.247299 26.155 0.419787 25.1292L3.98247 21.5424L6.28429 19.2251L14.4286 11.0258L14.5459 10.9078L14.7072 10.7454L15.2276 10.2214L15.279 10.1697L24.9481 0.435426C25.2413 0.140223 25.6225 0 26.0037 0C26.3849 0 26.7661 0.147603 27.0593 0.435426L51.5802 25.1292C52.2473 26.1624 52.108 27.5203 51.243 28.3838C50.378 29.2546 49.0292 29.3949 48.0102 28.7233L45.4152 26.1107C45.4152 26.1107 42.6002 23.2768 36.9776 17.6162L25.9963 6.56827Z" fill="#FDB52A"/>
</svg>
