<svg width="142" height="37" viewBox="0 0 142 37" fill="none" xmlns="http://www.w3.org/2000/svg">
<path d="M5.27051 21.8075V24.6976V34.0969C5.27051 35.4744 6.39194 36.598 7.75484 36.598H30.2962C31.6645 36.598 32.7805 35.469 32.7805 34.0969V29.0461C32.8127 28.7058 32.8986 28.3817 33.0864 28.117C33.2849 27.8361 33.7195 27.5066 33.9825 27.1987C34.4439 26.6639 34.8571 26.2317 34.841 25.4646C34.8302 24.8974 34.5351 23.9683 34.342 23.4389C34.2293 23.131 33.5156 21.4294 33.0756 21.5699C32.9361 21.6131 32.963 21.9318 32.963 22.0506C32.9576 22.3369 32.9522 22.8933 32.9415 23.709C32.9415 24.0169 32.9361 24.2762 32.9254 24.4869C32.8878 25.1027 32.7322 25.3296 32.1849 25.6537C31.8308 25.8644 30.0977 25.8644 29.7435 25.6537C29.1962 25.3296 29.0406 25.1027 29.0031 24.4869C28.9923 24.2762 28.987 24.0169 28.987 23.709C28.9762 22.8879 28.9709 22.3369 28.9655 22.0506C28.9655 21.9318 28.9923 21.6131 28.8528 21.5699C28.4128 21.4294 27.6992 23.1256 27.5865 23.4389C27.3934 23.9683 27.0982 24.8974 27.0875 25.4646C27.0714 26.2317 27.4792 26.6639 27.946 27.1987C28.2089 27.5066 28.6436 27.8307 28.8421 28.117C29.0299 28.3817 29.1157 28.7058 29.1479 29.0461V32.5357C29.1479 32.7572 28.9709 32.9355 28.7509 32.9355H9.31089C9.0909 32.9355 8.91383 32.7572 8.91383 32.5357V25.1027C8.91383 24.8812 9.0909 24.703 9.31089 24.703H9.83137C13.3996 24.6111 13.9898 25.4268 15.6532 25.3998C16.6887 25.3836 18.218 24.6327 18.5936 24.6976C18.9316 24.757 19.2106 24.9893 19.4306 25.3944C19.7633 26.0156 19.8331 26.7179 19.935 27.4039C21.9472 27.0582 22.9559 26.8853 22.9559 26.8853C22.9291 25.9076 22.7037 24.9677 22.3013 24.1412C22.0437 23.2985 21.5608 22.553 20.9169 21.9858C19.3394 20.5867 17.2146 21.4996 16.8766 19.744C16.8766 19.636 16.7853 19.5441 16.678 19.5441H16.2058V18.7771C16.6083 18.5826 16.9087 18.1991 16.9946 17.7399C17.6814 17.9344 19.5218 18.3719 20.2087 18.3233C20.4984 18.3017 20.7613 18.1396 20.9062 17.8858C20.976 17.7615 21.0189 17.6211 21.0242 17.4806C21.0189 17.3402 20.9813 17.1997 20.9062 17.0755C20.7613 16.8216 20.4984 16.6595 20.2087 16.6379C19.5326 16.5893 17.6653 17.0268 16.9892 17.2213C16.8658 16.5515 16.281 16.0437 15.5834 16.0437C14.8805 16.0437 14.2956 16.5515 14.1776 17.2213C13.5069 17.0323 11.6342 16.5893 10.9582 16.6379C10.6684 16.6595 10.4055 16.8216 10.2606 17.0755C10.1909 17.1997 10.1479 17.3402 10.1426 17.4806C10.1479 17.6211 10.1855 17.7615 10.2606 17.8858C10.4055 18.1396 10.6684 18.3071 10.9582 18.3233C11.645 18.3719 13.4908 17.9344 14.1722 17.7399C14.2581 18.1991 14.5532 18.5826 14.961 18.7771V19.5441H14.4888C14.3815 19.5441 14.2903 19.636 14.2903 19.744C14.1239 20.6029 13.3996 21.0513 12.1172 21.0837H11.7845H5.97878C5.59245 21.0837 5.27051 21.4024 5.27051 21.7913V21.8075Z" fill="#0052DA"/>
<path d="M19.0282 4.8077L10.2929 13.602L9.41825 14.4825L9.25728 14.6446L8.90851 14.9957L4.72325 19.2092L3.5106 20.43L2.92037 21.0242C2.16917 21.5158 1.18188 21.4132 0.554092 20.7758C-0.0790624 20.1383 -0.181013 19.1444 0.307267 18.3935L2.91501 15.7682L4.59984 14.072L10.5611 8.07046L10.647 7.98403L10.765 7.86519L11.146 7.48165L11.1836 7.44383L18.2609 0.318714C18.4756 0.102638 18.7546 0 19.0336 0C19.3126 0 19.5916 0.10804 19.8063 0.318714L37.7546 18.3935C38.2429 19.1498 38.1409 20.1437 37.5078 20.7758C36.8746 21.4132 35.8873 21.5158 35.1415 21.0242L33.242 19.112C33.242 19.112 31.1816 17.0376 27.0661 12.8944L19.0282 4.8077Z" fill="#FDB52A"/>
<path d="M48.9587 11.7114V36.1632H44.6494V11.7114H48.9587ZM54.379 27.7338H47.9151V23.9206H53.4701C54.9514 23.9206 56.0736 23.5526 56.8367 22.8167C57.6223 22.0585 58.015 21.0105 58.015 19.6725C58.015 18.3345 57.6223 17.3087 56.8367 16.5951C56.0736 15.8815 54.9738 15.5247 53.5374 15.5247H47.5111V11.7114H54.379C56.0399 11.7114 57.4764 12.0459 58.6884 12.7149C59.9004 13.3839 60.843 14.3205 61.5164 15.5247C62.1897 16.7066 62.5264 18.1003 62.5264 19.7059C62.5264 21.2669 62.1897 22.6606 61.5164 23.8871C60.843 25.0913 59.9004 26.0391 58.6884 26.7304C57.4764 27.3993 56.0399 27.7338 54.379 27.7338Z" fill="#010916"/>
<path d="M69.8367 36.598C68.0861 36.598 66.6945 36.1297 65.6621 35.1931C64.6521 34.2342 64.1471 32.9855 64.1471 31.4468C64.1471 29.9304 64.6745 28.7262 65.7294 27.8342C66.8067 26.9199 68.333 26.3847 70.3081 26.2286L75.2907 25.8272V25.4593C75.2907 24.7011 75.1448 24.099 74.853 23.653C74.5837 23.1847 74.1909 22.8502 73.6747 22.6495C73.1585 22.4265 72.5525 22.315 71.8567 22.315C70.6447 22.315 69.7133 22.5603 69.0624 23.0509C68.4115 23.5192 68.0861 24.1882 68.0861 25.0579H64.5847C64.5847 23.8537 64.8877 22.8167 65.4937 21.947C66.1222 21.055 66.9975 20.3638 68.1197 19.8732C69.2644 19.3826 70.5774 19.1373 72.0587 19.1373C73.5625 19.1373 74.853 19.4049 75.9304 19.9401C77.0077 20.453 77.8381 21.2334 78.4217 22.2815C79.0053 23.3073 79.297 24.5896 79.297 26.1283V36.1632H75.6947L75.3917 33.7213C75.0326 34.5687 74.3368 35.26 73.3044 35.7952C72.2944 36.3304 71.1385 36.598 69.8367 36.598ZM71.1497 33.5206C72.4291 33.5206 73.4391 33.1639 74.1797 32.4503C74.9428 31.7367 75.3244 30.7443 75.3244 29.4732V28.6035L71.8567 28.8711C70.5774 28.9826 69.6684 29.2502 69.1297 29.6739C68.5911 30.0753 68.3217 30.6105 68.3217 31.2795C68.3217 32.0154 68.5686 32.5729 69.0624 32.952C69.5562 33.3311 70.252 33.5206 71.1497 33.5206Z" fill="#010916"/>
<path d="M87.4393 36.1632H83.332V19.639H87.1027L87.6077 22.5826L87.1363 22.1812C87.473 21.3784 88.0902 20.676 88.988 20.0739C89.8858 19.4495 91.008 19.1373 92.3547 19.1373C93.8135 19.1373 95.0031 19.5164 95.9233 20.2746C96.866 21.0328 97.5169 22.0362 97.876 23.285H97.2026C97.4495 22.0362 98.078 21.0328 99.088 20.2746C100.12 19.5164 101.366 19.1373 102.825 19.1373C104.845 19.1373 106.394 19.7059 107.471 20.8432C108.548 21.9582 109.087 23.4634 109.087 25.3589V36.1632H105.013V26.4293C105.013 25.2474 104.71 24.3554 104.104 23.7533C103.521 23.1289 102.735 22.8167 101.748 22.8167C101.119 22.8167 100.536 22.9617 99.997 23.2516C99.4807 23.5415 99.0655 23.9763 98.7513 24.5561C98.4371 25.1359 98.28 25.883 98.28 26.7973V36.1632H94.1726V26.3959C94.1726 25.2363 93.8809 24.3554 93.2973 23.7533C92.7138 23.1512 91.9394 22.8502 90.9743 22.8502C90.3234 22.8502 89.7287 22.9951 89.19 23.285C88.6513 23.5526 88.2249 23.9875 87.9107 24.5896C87.5965 25.1694 87.4393 25.9053 87.4393 26.7973V36.1632Z" fill="#010916"/>
<path d="M118.068 36.598C116.317 36.598 114.926 36.1297 113.893 35.1931C112.883 34.2342 112.378 32.9855 112.378 31.4468C112.378 29.9304 112.906 28.7262 113.961 27.8342C115.038 26.9199 116.564 26.3847 118.539 26.2286L123.522 25.8272V25.4593C123.522 24.7011 123.376 24.099 123.084 23.653C122.815 23.1847 122.422 22.8502 121.906 22.6495C121.39 22.4265 120.784 22.315 120.088 22.315C118.876 22.315 117.945 22.5603 117.294 23.0509C116.643 23.5192 116.317 24.1882 116.317 25.0579H112.816C112.816 23.8537 113.119 22.8167 113.725 21.947C114.353 21.055 115.229 20.3638 116.351 19.8732C117.496 19.3826 118.809 19.1373 120.29 19.1373C121.794 19.1373 123.084 19.4049 124.162 19.9401C125.239 20.453 126.069 21.2334 126.653 22.2815C127.237 23.3073 127.528 24.5896 127.528 26.1283V36.1632H123.926L123.623 33.7213C123.264 34.5687 122.568 35.26 121.536 35.7952C120.526 36.3304 119.37 36.598 118.068 36.598ZM119.381 33.5206C120.66 33.5206 121.67 33.1639 122.411 32.4503C123.174 31.7367 123.556 30.7443 123.556 29.4732V28.6035L120.088 28.8711C118.809 28.9826 117.9 29.2502 117.361 29.6739C116.822 30.0753 116.553 30.6105 116.553 31.2795C116.553 32.0154 116.8 32.5729 117.294 32.952C117.787 33.3311 118.483 33.5206 119.381 33.5206Z" fill="#010916"/>
<path d="M142 19.5721V23.3519H140.485C138.981 23.3519 137.803 23.7533 136.95 24.5561C136.097 25.3366 135.671 26.5297 135.671 28.1352V36.1632H131.563V19.6725H135.435L135.772 23.0843H135.368C135.592 21.9916 136.12 21.0996 136.95 20.4084C137.78 19.7171 138.858 19.3714 140.182 19.3714C140.474 19.3714 140.765 19.3826 141.057 19.4049C141.349 19.4272 141.663 19.4829 142 19.5721Z" fill="#010916"/>
</svg>
