<svg width="52" height="50" viewBox="0 0 52 50" fill="none" xmlns="http://www.w3.org/2000/svg">
<path d="M7.2002 29.7935V33.7418V46.5832C7.2002 48.4651 8.7323 50.0001 10.5943 50.0001H41.3902C43.2595 50.0001 44.7843 48.4577 44.7843 46.5832V39.6828C44.8283 39.2178 44.9456 38.775 45.2022 38.4134C45.4734 38.0297 46.0672 37.5795 46.4264 37.1588C47.0568 36.4282 47.6213 35.8378 47.5993 34.7898C47.5846 34.0149 47.1814 32.7455 46.9175 32.0223C46.7636 31.6016 45.7886 29.2769 45.1875 29.4688C44.9969 29.5278 45.0335 29.9632 45.0335 30.1256C45.0262 30.5167 45.0189 31.2769 45.0042 32.3913C45.0042 32.8119 44.9969 33.1662 44.9822 33.454C44.9309 34.2953 44.7183 34.6053 43.9706 35.0481C43.4868 35.3359 41.119 35.3359 40.6352 35.0481C39.8875 34.6053 39.6749 34.2953 39.6236 33.454C39.6089 33.1662 39.6016 32.8119 39.6016 32.3913C39.5869 31.2695 39.5796 30.5167 39.5722 30.1256C39.5722 29.9632 39.6089 29.5278 39.4183 29.4688C38.8172 29.2769 37.8422 31.5942 37.6883 32.0223C37.4244 32.7455 37.0212 34.0149 37.0065 34.7898C36.9845 35.8378 37.5416 36.4282 38.1794 37.1588C38.5386 37.5795 39.1324 38.0223 39.4036 38.4134C39.6602 38.775 39.7775 39.2178 39.8215 39.6828V44.4503C39.8215 44.7529 39.5796 44.9965 39.279 44.9965H12.7202C12.4196 44.9965 12.1777 44.7529 12.1777 44.4503V34.2953C12.1777 33.9928 12.4196 33.7492 12.7202 33.7492H13.4312C18.3061 33.6237 19.1125 34.7381 21.385 34.7012C22.7998 34.6791 24.889 33.6533 25.4021 33.7418C25.864 33.823 26.2452 34.1404 26.5457 34.6939C27.0002 35.5426 27.0955 36.502 27.2348 37.4392C29.9838 36.9669 31.3619 36.7308 31.3619 36.7308C31.3253 35.395 31.0174 34.1108 30.4676 32.9817C30.1157 31.8304 29.456 30.8119 28.5763 30.037C26.4211 28.1256 23.5182 29.3728 23.0563 26.9743C23.0563 26.8267 22.9317 26.7012 22.7851 26.7012H22.14V25.6533C22.6898 25.3876 23.1003 24.8636 23.2176 24.2363C24.1559 24.502 26.6703 25.0998 27.6087 25.0333C28.0045 25.0038 28.3637 24.7824 28.5616 24.4356C28.6569 24.2658 28.7156 24.0739 28.7229 23.882C28.7156 23.6902 28.6643 23.4983 28.5616 23.3285C28.3637 22.9817 28.0045 22.7603 27.6087 22.7308C26.685 22.6643 24.1339 23.2621 23.2103 23.5278C23.0417 22.6127 22.2426 21.9189 21.2897 21.9189C20.3293 21.9189 19.5303 22.6127 19.369 23.5278C18.4527 23.2695 15.8943 22.6643 14.9707 22.7308C14.5748 22.7603 14.2156 22.9817 14.0177 23.3285C13.9224 23.4983 13.8637 23.6902 13.8564 23.882C13.8637 24.0739 13.915 24.2658 14.0177 24.4356C14.2156 24.7824 14.5748 25.0112 14.9707 25.0333C15.909 25.0998 18.4307 24.502 19.3617 24.2363C19.479 24.8636 19.8822 25.3876 20.4393 25.6533V26.7012H19.7942C19.6476 26.7012 19.523 26.8267 19.523 26.9743C19.2957 28.1477 18.3061 28.7603 16.5541 28.8046H16.0996H8.16784C7.64003 28.8046 7.2002 29.24 7.2002 29.7713V29.7935Z" fill="#0052DA"/>
<path d="M25.9963 6.56827L14.0621 18.583L12.8672 19.786L12.6473 20.0074L12.1708 20.4871L6.45289 26.2436L4.79617 27.9115L3.9898 28.7233C2.96351 29.3949 1.61468 29.2546 0.756999 28.3838C-0.108015 27.5129 -0.247299 26.155 0.419787 25.1292L3.98247 21.5424L6.28429 19.2251L14.4286 11.0258L14.5459 10.9078L14.7072 10.7454L15.2276 10.2214L15.279 10.1697L24.9481 0.435426C25.2413 0.140223 25.6225 0 26.0037 0C26.3849 0 26.7661 0.147603 27.0593 0.435426L51.5802 25.1292C52.2473 26.1624 52.108 27.5203 51.243 28.3838C50.378 29.2546 49.0292 29.3949 48.0102 28.7233L45.4152 26.1107C45.4152 26.1107 42.6002 23.2768 36.9776 17.6162L25.9963 6.56827Z" fill="#FDB52A"/>
</svg>
