<svg width="43" height="42" viewBox="0 0 43 42" fill="none" xmlns="http://www.w3.org/2000/svg">
<g clip-path="url(#clip0_1488_5)">
<path d="M3.8909 36.8218L0.356445 0.0688477L42.567 0.142705L38.8297 36.8218L21.6211 41.0614L3.8909 36.8218Z" fill="#E34F26"/>
<path d="M21.6211 37.5117L21.6211 3.56885L39.0037 3.61809L35.9039 33.9866L21.6211 37.5117Z" fill="#EF652A"/>
<path d="M34.2234 12.0487L34.7157 7.56226L7.97559 7.56226L9.45296 21.317L27.9075 21.317L27.1838 27.1836L21.2736 28.5391L15.2767 27.0602L14.958 23.5599H9.65584L10.3802 30.7084L21.2733 33.2966L32.2531 30.7084L33.7305 16.7567L14.3494 16.7567L13.7989 12.0487L34.2234 12.0487Z" fill="white"/>
</g>
<defs>
<clipPath id="clip0_1488_5">
<rect width="42.2106" height="41.13" fill="white" transform="translate(0.356445)"/>
</clipPath>
</defs>
</svg>
