<svg width="220" height="220" viewBox="0 0 220 220" fill="none" xmlns="http://www.w3.org/2000/svg">
<circle opacity="0.05" cx="110" cy="110" r="110" fill="#3600D0"/>
<path d="M113.603 56.4984L113.604 34.8109C113.603 31.4772 111.24 27.3863 108.347 25.7187L89.5365 14.8757C88.2652 14.1423 87.096 13.9969 86.1843 14.3455L89.354 12.405C90.313 11.7984 91.6639 11.8517 93.1553 12.711L111.966 23.5547C114.858 25.2223 117.222 29.3125 117.223 32.6462L117.222 54.3337C117.222 56.0425 116.6 57.234 115.605 57.7649L112.126 59.8448V59.8426C113.038 59.2772 113.603 58.1248 113.603 56.4984Z" fill="url(#paint0_linear_2717_9438)"/>
<path d="M84.28 37.2154L113.603 54.1199L113.604 36.9777L84.28 20.0732V37.2154Z" fill="#FFDB00"/>
<path d="M95.4277 36.7179L98.445 38.4582V34.4842L95.4285 32.7446L95.4277 36.7179Z" fill="#DEE5E9"/>
<path d="M97.0552 34.2044L96.8066 34.1894C96.8066 34.1894 96.7916 34.1774 96.8066 34.2606C96.8216 34.3431 96.8366 34.3993 96.8366 34.4211C96.8366 34.4413 96.8434 34.547 96.8194 34.5448C96.7946 34.5418 96.7728 34.4826 96.7766 34.535C96.7788 34.586 96.8028 34.6738 96.7916 34.6925C96.7788 34.7098 96.7923 34.7105 96.7225 34.6948C96.6542 34.682 96.498 34.577 96.4882 34.5598C96.4799 34.5455 96.2802 34.3416 96.2389 34.2666C96.1983 34.1946 96.1435 34.0349 96.1518 33.9509C96.1615 33.8677 96.1518 33.6615 96.1187 33.765C96.0857 33.8662 96.0602 33.9524 96.0602 33.9524C96.0602 33.9524 95.9378 33.84 95.9212 33.837C95.9055 33.8355 95.8386 33.789 95.9205 33.9314C96.0038 34.0762 96.0962 34.1579 96.0046 34.1152C95.9122 34.0724 95.7673 34.0289 95.7988 34.0889C95.8296 34.1496 95.9686 34.2156 95.9896 34.2419C96.0114 34.2681 96.1187 34.4976 96.1645 34.5815C96.2111 34.6648 96.3155 34.8027 96.3718 34.853C96.4266 34.9025 96.3883 34.9204 96.3883 34.9204C96.3883 34.9204 96.3515 35.0427 96.3305 35.0494C96.3095 35.0584 96.2044 35.0374 96.1458 34.9969C96.088 34.9572 96.0436 34.838 96.0129 34.8312C95.9828 34.8245 95.9145 34.7892 95.937 34.8492C95.9603 34.9122 96.0684 34.9842 96.0684 35.0052C96.0684 35.0262 96.0226 34.9609 95.9753 34.9924C95.9295 35.0239 95.8987 35.0704 95.9295 35.0959C95.9611 35.1206 96.0256 35.1019 96.0219 35.1484C96.0181 35.1964 96.0256 35.4198 96.0699 35.4288C96.1165 35.4378 96.136 35.3321 96.1533 35.2894C96.1713 35.2466 96.2674 35.3081 96.3508 35.3163C96.4341 35.3268 96.6692 35.3718 96.6692 35.3718C96.6692 35.3718 96.8697 35.719 96.8877 35.7475C96.9057 35.776 97.0544 35.9424 97.0544 35.9424C97.0544 35.9424 96.7863 35.7955 96.721 35.7722C96.6564 35.7482 96.5986 35.764 96.6406 35.878C96.6857 35.9919 96.7578 36.1374 96.7616 36.2079C96.7653 36.2776 96.7428 36.3046 96.6879 36.2776C96.6316 36.2536 96.537 36.1344 96.5393 36.1179C96.5423 36.1022 96.4003 35.8742 96.4026 35.9402C96.4071 36.0069 96.5167 36.3069 96.4739 36.2926C96.4319 36.2799 96.2892 36.1726 96.3358 36.2671C96.3823 36.3623 96.5107 36.3136 96.5235 36.4261C96.5363 36.5393 96.4394 36.6143 96.5107 36.5843C96.5813 36.555 96.5655 36.4876 96.6361 36.4913C96.7075 36.4943 96.8464 36.5753 96.8682 36.5873C96.8907 36.6 96.9921 36.6338 96.9786 36.5843C96.9666 36.5363 96.9005 36.3061 96.9343 36.3039C96.9695 36.3016 97.0409 36.2559 97.0529 36.2964C97.0642 36.3398 97.0356 36.4141 97.0897 36.5205C97.1423 36.6248 97.1948 36.6945 97.2399 36.7282C97.288 36.762 97.3766 36.8137 97.3818 36.897C97.3893 36.9787 97.3766 37.0522 97.3202 37.0199C97.2647 36.9884 97.2151 36.9982 97.2286 37.0424C97.2414 37.0844 97.3187 37.1646 97.291 37.1699C97.2632 37.1744 97.1768 37.1961 97.2256 37.2494C97.2752 37.3041 97.339 37.2659 97.339 37.2659C97.339 37.2659 97.4096 37.3663 97.4171 37.3926C97.4224 37.4166 97.4532 37.4736 97.4832 37.4803C97.5155 37.4893 97.5237 37.4391 97.5237 37.3828C97.523 37.3251 97.4899 37.2179 97.523 37.1976C97.559 37.1796 97.6266 37.0792 97.6349 37.0297C97.6447 36.9824 97.6259 36.8775 97.5823 36.8212C97.5395 36.7657 97.4569 36.7387 97.4839 36.5985C97.511 36.4583 97.511 36.3773 97.5703 36.4111C97.6289 36.4456 97.8932 36.4028 97.8226 36.0737C97.7505 35.7452 97.7047 35.3981 97.7235 35.3313C97.7423 35.2639 97.8346 35.1604 97.8955 35.0067C97.9578 34.8552 97.9706 34.7143 97.9518 34.7225C97.9323 34.73 97.7047 34.7787 97.6589 34.9542C97.6101 35.1281 97.6063 35.3958 97.6206 35.4933C97.6371 35.5908 97.7528 36.0302 97.704 36.1194C97.6559 36.2094 97.6184 36.2979 97.4787 36.1824C97.3405 36.0669 97.291 35.9012 97.2624 35.7917C97.2361 35.683 97.1768 35.4281 97.2053 35.4416C97.2316 35.4536 97.3473 35.3808 97.3308 35.3088C97.3165 35.2346 97.3908 35.3209 97.3661 35.1664C97.3413 35.0149 97.2834 34.8147 97.2834 34.8147L97.3413 34.664C97.345 34.6655 97.2038 34.3378 97.0552 34.2044Z" fill="#FA96C4"/>
<path d="M97.0581 34.2439V33.9268L97.161 34.0955L97.2917 34.2184C97.2917 34.2184 97.3765 34.3332 97.4013 34.3871C97.4261 34.4396 97.4816 34.4929 97.5004 34.5603C97.5192 34.6278 97.55 34.7178 97.544 34.7238C97.5365 34.7306 97.3307 34.6721 97.3307 34.6721L97.0581 34.2439Z" fill="#F6B000"/>
<path d="M95.4277 36.7178L95.4285 41.3321C95.4367 41.3359 95.4457 41.3411 95.4548 41.3464C98.4022 42.9802 98.445 40.8957 98.445 40.8957V38.4573L95.4277 36.7178Z" fill="#DD0000"/>
<path d="M98.0672 39.3841C98.0672 39.2889 98.0094 39.1771 97.9306 39.1097L97.9396 38.8967C98.0132 38.9155 98.0672 38.8697 98.0672 38.7775C98.0672 38.665 97.9884 38.5308 97.893 38.4761C97.8179 38.4326 97.7534 38.4491 97.7293 38.5121L97.6054 38.4401C97.5791 38.3486 97.5168 38.2586 97.4417 38.2159C97.3636 38.1702 97.2968 38.1919 97.275 38.2654L97.0993 38.1507C97.076 38.0599 97.0114 37.9685 96.9371 37.925C96.8605 37.8807 96.7959 37.9002 96.7726 37.9655L96.6667 37.9145C96.6465 37.8177 96.5804 37.7188 96.4993 37.673C96.4265 37.6303 96.3619 37.6475 96.3386 37.7105L96.2117 37.637C96.1884 37.5471 96.1246 37.4571 96.0502 37.4136C95.9533 37.3581 95.8745 37.4008 95.8745 37.5133C95.8745 37.6055 95.9293 37.7135 96.0029 37.7788L96.0112 38.0014C95.9338 37.979 95.8753 38.0247 95.8745 38.1184C95.8753 38.2121 95.9316 38.3239 96.0059 38.3891L96.0029 38.7295C95.9293 38.7123 95.8745 38.7565 95.8745 38.8487C95.8753 38.941 95.9293 39.0512 96.0029 39.1157L96.0104 39.2806C95.9338 39.2581 95.8745 39.3024 95.8745 39.3983C95.8753 39.4966 95.9353 39.6135 96.0142 39.6758L96.0637 39.9367C96.0172 39.9435 95.9864 39.9892 95.9856 40.0574C95.9856 40.1699 96.0637 40.3056 96.1598 40.3604C96.1809 40.3731 96.2019 40.3783 96.2192 40.3813L96.3506 40.5606C96.3348 40.5815 96.3258 40.6123 96.3258 40.649C96.3258 40.76 96.4032 40.8957 96.5 40.952C96.5466 40.9782 96.5864 40.9819 96.6187 40.967L96.7621 41.0929C96.7696 41.2001 96.8425 41.3269 96.9348 41.3793C97.0287 41.4341 97.1023 41.3928 97.109 41.2924L97.3171 41.3644C97.3493 41.4191 97.3921 41.4663 97.4395 41.4941C97.5363 41.5503 97.6137 41.5046 97.6137 41.3936C97.6137 41.3569 97.6047 41.3164 97.5889 41.2766L97.7203 41.2474C97.7383 41.2661 97.7586 41.2826 97.7789 41.2946C97.8757 41.3509 97.9538 41.3059 97.9538 41.1934C97.9531 41.1252 97.9223 41.0434 97.8765 40.9834L97.9238 40.7795C98.0049 40.8072 98.0642 40.76 98.0642 40.6618C98.0642 40.5658 98.0064 40.4548 97.9276 40.3881L97.9351 40.2321C98.0087 40.2509 98.0635 40.2036 98.0642 40.1129C98.0642 40.0207 98.0102 39.9135 97.9366 39.8467L97.9321 39.5011C98.0117 39.5243 98.0672 39.4771 98.0672 39.3841ZM97.7271 39.8572L97.6077 39.7882C97.5844 39.6938 97.5198 39.5985 97.4417 39.5543C97.3591 39.5071 97.2908 39.5333 97.2728 39.6098L97.0407 39.4666L97.0242 39.4366L97.3704 39.2056C97.3914 39.2304 97.4162 39.2514 97.441 39.2664C97.5393 39.3219 97.6159 39.2769 97.6159 39.1659C97.6159 39.1104 97.5979 39.0527 97.5686 38.9994L97.8157 38.815C97.8314 38.83 97.8465 38.8457 97.8622 38.8577L97.8532 39.0662C97.7759 39.0422 97.7165 39.0872 97.7165 39.1839C97.7173 39.2821 97.7781 39.3983 97.8585 39.4621L97.8622 39.8002C97.7999 39.7755 97.7481 39.798 97.7271 39.8572ZM97.5401 39.8107C97.5401 39.8737 97.495 39.897 97.441 39.8662C97.3876 39.8355 97.3448 39.7613 97.3448 39.6983C97.3448 39.636 97.3876 39.6105 97.441 39.6413C97.4958 39.6728 97.5408 39.7493 97.5401 39.8107ZM97.441 40.4811C97.3876 40.4496 97.3448 40.3746 97.3441 40.3124C97.3448 40.2494 97.3876 40.2239 97.4417 40.2554C97.495 40.2861 97.5408 40.3626 97.5408 40.4256C97.5401 40.4863 97.4958 40.5118 97.441 40.4811ZM97.4417 40.5696C97.456 40.5771 97.4672 40.5815 97.4815 40.5868L97.649 40.889C97.6242 40.91 97.6077 40.946 97.6069 40.9932C97.6069 41.0464 97.6242 41.1049 97.6535 41.1574L97.5401 41.1836C97.5115 41.1462 97.4785 41.1139 97.4417 41.0937C97.3463 41.0382 97.2675 41.0839 97.2675 41.1941C97.2675 41.2151 97.2712 41.2391 97.2772 41.2609L97.1008 41.2001C97.0813 41.1304 97.0392 41.0637 96.9866 41.0164L96.9874 40.6108C97.061 40.628 97.1143 40.5838 97.1143 40.4916C97.1143 40.3956 97.055 40.2824 96.9776 40.2179V39.5873L97.2983 40.1744C97.281 40.1954 97.2682 40.2246 97.2682 40.2681C97.2667 40.3784 97.3456 40.5141 97.4417 40.5696ZM96.6705 39.2634C96.654 39.1659 96.5841 39.0602 96.5008 39.0114C96.4242 38.9672 96.3596 38.9867 96.3356 39.0542L96.2162 38.986C96.1967 38.9042 96.1441 38.821 96.081 38.7723L96.084 38.4378C96.1644 38.4663 96.2259 38.4213 96.2259 38.3224C96.2259 38.2264 96.1674 38.1124 96.0878 38.0472L96.0803 37.8297C96.096 37.8365 96.1118 37.8387 96.1268 37.8402L96.3746 38.3111C96.3453 38.3299 96.3266 38.3666 96.3266 38.4213C96.3266 38.5316 96.4039 38.668 96.5008 38.7235C96.5263 38.7378 96.5504 38.7453 96.5736 38.746L96.8988 39.3384V39.3848L96.6705 39.2634ZM96.5992 39.2686C96.5992 39.3316 96.5541 39.3556 96.5008 39.3241C96.4475 39.2926 96.4039 39.2184 96.4039 39.1554C96.4039 39.0939 96.4475 39.0684 96.5008 39.0992C96.5556 39.1307 96.5992 39.2064 96.5992 39.2686ZM96.5008 38.635C96.4475 38.6035 96.4032 38.5271 96.4039 38.4663C96.4039 38.4033 96.4475 38.3794 96.5008 38.4101C96.5541 38.4408 96.5992 38.5151 96.5992 38.578C96.5992 38.6403 96.5548 38.6658 96.5008 38.635ZM96.9378 38.5571C96.9919 38.5885 97.0355 38.6643 97.0355 38.7265C97.0355 38.7888 96.9919 38.8142 96.9371 38.7828C96.8845 38.752 96.8394 38.6755 96.8394 38.6125C96.8394 38.5526 96.8838 38.5271 96.9378 38.5571ZM96.9378 40.2779C96.9919 40.3101 97.0355 40.3843 97.0355 40.4473C97.0355 40.5088 96.9919 40.5343 96.9378 40.5028C96.8845 40.4728 96.8394 40.3956 96.8394 40.3349C96.8394 40.2726 96.8838 40.2479 96.9378 40.2779ZM97.5408 39.1217C97.5401 39.1832 97.495 39.2086 97.441 39.1779C97.3876 39.1472 97.3448 39.0714 97.3441 39.0092C97.3441 38.9462 97.3876 38.9222 97.441 38.953C97.4958 38.9837 97.5408 39.0587 97.5408 39.1217ZM97.9899 39.3399C97.9899 39.4013 97.9463 39.4283 97.893 39.3976C97.8382 39.3654 97.7939 39.2881 97.7939 39.2266C97.7947 39.1652 97.839 39.1404 97.893 39.1719C97.9463 39.2019 97.9899 39.2776 97.9899 39.3399ZM97.893 38.5638C97.9463 38.5945 97.9899 38.6725 97.9899 38.7348C97.9899 38.7962 97.9463 38.821 97.893 38.7902C97.839 38.7588 97.7939 38.683 97.7939 38.6208C97.7947 38.5593 97.8382 38.5323 97.893 38.5638ZM97.441 38.3044C97.495 38.3351 97.5408 38.4138 97.5401 38.4746C97.5401 38.5368 97.495 38.5616 97.4417 38.5308C97.3876 38.4993 97.3441 38.4236 97.3448 38.3621C97.3448 38.2999 97.3876 38.2729 97.441 38.3044ZM97.1098 38.2451L97.2705 38.3509C97.284 38.4543 97.3553 38.5698 97.4425 38.62C97.5341 38.6718 97.6084 38.6328 97.6152 38.5361L97.7196 38.596C97.7226 38.6373 97.7361 38.6823 97.7563 38.7235L97.5048 38.9125C97.4853 38.8922 97.4642 38.8757 97.4417 38.863C97.3463 38.8075 97.2675 38.8532 97.2675 38.9635C97.2675 39.0129 97.284 39.0662 97.3095 39.1157L96.9776 39.3376V38.8877C97.055 38.9125 97.1143 38.8652 97.1143 38.7693C97.1143 38.677 97.0595 38.5706 96.9866 38.5038V38.3449C97.0527 38.3636 97.1023 38.3231 97.1098 38.2451ZM96.9371 38.0127C96.9919 38.0442 97.0355 38.1222 97.0355 38.1836C97.0355 38.2451 96.9919 38.2706 96.9378 38.2391C96.8898 38.2106 96.8492 38.1462 96.8417 38.0892L96.8612 38.0989L96.8575 38.0164C96.8748 37.9969 96.9055 37.9947 96.9371 38.0127ZM96.5008 37.7615C96.5541 37.793 96.5992 37.8695 96.5992 37.9317C96.5992 37.9939 96.5548 38.0194 96.5008 37.9872C96.4475 37.9572 96.4039 37.8807 96.4039 37.8192C96.4047 37.7578 96.4475 37.7308 96.5008 37.7615ZM96.5008 38.0772C96.5871 38.1274 96.66 38.0952 96.6735 38.0067L96.7651 38.0532C96.7756 38.1462 96.8327 38.2496 96.9085 38.3081V38.4566C96.8267 38.4258 96.7629 38.4716 96.7621 38.5691C96.7621 38.665 96.8199 38.779 96.8988 38.845V39.2086L96.6345 38.728C96.66 38.707 96.6758 38.6725 96.6758 38.623C96.6758 38.5121 96.5984 38.3764 96.5015 38.3209C96.4805 38.3081 96.4602 38.3006 96.4392 38.2976L96.1876 37.8185C96.2072 37.8005 96.2222 37.7713 96.2252 37.733L96.3296 37.793C96.3363 37.8995 96.4099 38.0247 96.5008 38.0772ZM95.9533 37.5591C95.9533 37.4976 95.9977 37.4706 96.0517 37.5021C96.1043 37.5328 96.1486 37.61 96.1486 37.6715C96.1486 37.7338 96.1043 37.7593 96.0517 37.7278C95.9977 37.6978 95.9533 37.622 95.9533 37.5591ZM95.9533 38.1657C95.9533 38.1042 95.9977 38.0787 96.0517 38.1094C96.1043 38.1409 96.1486 38.2159 96.1486 38.2781C96.1486 38.3396 96.1043 38.3666 96.0517 38.3351C95.9977 38.3044 95.9533 38.2271 95.9533 38.1657ZM95.9533 38.896C95.9533 38.8345 95.9984 38.809 96.0517 38.8405C96.1043 38.8712 96.1486 38.947 96.1486 39.0092C96.1486 39.0722 96.1043 39.0954 96.0517 39.0654C95.9977 39.0332 95.9533 38.959 95.9533 38.896ZM95.9533 39.4448C95.9533 39.3841 95.9977 39.3586 96.0517 39.3893C96.1043 39.4201 96.1486 39.4966 96.1486 39.5581C96.1486 39.6203 96.1043 39.645 96.0517 39.6143C95.9977 39.5835 95.9533 39.5078 95.9533 39.4448ZM96.093 39.7215C96.1696 39.741 96.2259 39.696 96.2259 39.603C96.2259 39.5056 96.1666 39.3923 96.0878 39.3264L96.081 39.1682C96.1554 39.1959 96.2132 39.1599 96.2229 39.0774L96.3288 39.1389C96.3408 39.2454 96.4129 39.3624 96.5008 39.4141C96.5841 39.4621 96.654 39.4351 96.672 39.3541L96.8988 39.4748V39.5003L96.5909 39.7058C96.5654 39.6713 96.5346 39.6443 96.5015 39.6255C96.4047 39.5693 96.3273 39.6135 96.3273 39.726C96.3273 39.7868 96.3521 39.8565 96.3919 39.9165L96.2335 40.0199C96.2124 39.9967 96.1876 39.975 96.1614 39.96C96.1546 39.9555 96.1463 39.9532 96.1381 39.9495L96.093 39.7215ZM96.4047 39.7703C96.4047 39.7065 96.4482 39.6818 96.5008 39.7125C96.5556 39.744 96.5999 39.819 96.5999 39.8827C96.5999 39.945 96.5549 39.9697 96.5015 39.939C96.4475 39.9075 96.4047 39.831 96.4047 39.7703ZM96.0637 40.1039C96.0637 40.0432 96.1073 40.0177 96.1606 40.0492C96.2154 40.0799 96.259 40.1557 96.259 40.2164C96.259 40.2794 96.2154 40.3056 96.1606 40.2741C96.1073 40.2434 96.0637 40.1669 96.0637 40.1039ZM96.5008 40.865C96.4467 40.8342 96.4032 40.757 96.4039 40.6963C96.4039 40.6333 96.4467 40.6085 96.5008 40.64C96.5541 40.6715 96.5992 40.7458 96.5992 40.8087C96.5992 40.871 96.5548 40.8957 96.5008 40.865ZM96.7764 41.0134L96.666 40.9175C96.672 40.898 96.6765 40.8777 96.6765 40.8537C96.6765 40.7428 96.5992 40.607 96.5023 40.5516C96.467 40.5306 96.4332 40.5238 96.4054 40.5298L96.2913 40.3724C96.3206 40.3529 96.3371 40.3154 96.3371 40.2614C96.3371 40.2134 96.3213 40.1594 96.2958 40.1092L96.4625 39.9997C96.476 40.0094 96.488 40.0199 96.5023 40.0282C96.5999 40.0837 96.6765 40.0379 96.6765 39.927C96.6765 39.885 96.666 39.8407 96.6472 39.7987L96.8995 39.6293V40.1729C96.8214 40.1489 96.7636 40.1954 96.7636 40.2914C96.7636 40.3911 96.8274 40.5096 96.9093 40.574V40.967C96.8477 40.9437 96.7974 40.9617 96.7764 41.0134ZM96.9371 41.2931C96.8845 41.2624 96.8394 41.1866 96.8394 41.1244C96.8394 41.0614 96.8853 41.0374 96.9378 41.0682C96.9919 41.0997 97.0355 41.1747 97.0355 41.2369C97.0347 41.2984 96.9919 41.3239 96.9371 41.2931ZM97.441 41.4071C97.3876 41.3763 97.3448 41.3006 97.3441 41.2384C97.3448 41.1754 97.3876 41.1507 97.441 41.1821C97.495 41.2129 97.5408 41.2886 97.5408 41.3509C97.5401 41.4123 97.4958 41.4386 97.441 41.4071ZM97.7819 41.2076C97.7278 41.1769 97.6843 41.1012 97.6843 41.0374C97.6843 40.9767 97.7278 40.9512 97.7819 40.9834C97.8359 41.0142 97.8803 41.0892 97.8803 41.1507C97.8795 41.2144 97.8359 41.2391 97.7819 41.2076ZM97.7819 40.8927C97.7563 40.877 97.7316 40.8717 97.7105 40.871L97.5528 40.5853C97.5919 40.571 97.6167 40.5313 97.6167 40.4691C97.6167 40.3566 97.5393 40.2216 97.4417 40.1669C97.4094 40.1482 97.3794 40.1407 97.3523 40.1444L97.0257 39.5453L97.2728 39.6983C97.29 39.801 97.3584 39.9082 97.4425 39.9555C97.5318 40.0072 97.6047 39.9734 97.6152 39.8797L97.7218 39.9412C97.7323 40.0342 97.7901 40.1384 97.8637 40.1954L97.857 40.3461C97.7781 40.3206 97.7188 40.3663 97.7196 40.4638C97.7188 40.5568 97.7751 40.667 97.8502 40.7345L97.8067 40.9115C97.7984 40.9055 97.7894 40.898 97.7819 40.8927ZM97.9899 40.6198C97.9899 40.6828 97.9463 40.7068 97.893 40.676C97.8382 40.6438 97.7939 40.5695 97.7939 40.5058C97.7939 40.4451 97.8382 40.4188 97.893 40.4511C97.9463 40.4818 97.9899 40.5583 97.9899 40.6198ZM97.9899 40.0702C97.9899 40.1339 97.9463 40.1572 97.893 40.1264C97.8382 40.0949 97.7939 40.0207 97.7939 39.9577C97.7939 39.8955 97.8382 39.87 97.8923 39.9022C97.9463 39.9322 97.9899 40.0087 97.9899 40.0702Z" fill="#F6B000"/>
<path d="M95.3773 36.6728V32.7153L92.4614 31.0342V34.9909L95.3773 36.6728Z" fill="#DD0000"/>
<path d="M94.5287 35.1298V34.0523L94.6196 34.104V33.6399L94.4439 33.5387L94.4431 33.2282L94.5287 33.2777V33.0333L94.1127 32.7941V33.0378L94.2186 33.0985L94.2193 33.4089L94.0076 33.2875V32.5894L94.0939 32.6389V32.3967L93.6779 32.156V32.3989L93.783 32.4597V33.1578L93.6133 33.0588V32.7491L93.6967 32.7978V32.5542L93.2807 32.3142L93.2814 32.5587L93.3873 32.6194V32.9291L93.2108 32.8271V33.292L93.3265 33.3594V34.4362L93.0569 34.2802V34.8223L94.766 35.8076V35.2655L94.5287 35.1298Z" fill="#F6B000"/>
<path d="M96.9228 30.9119C96.4617 30.1951 95.3916 29.6492 95.3916 29.6492C94.6662 29.1161 93.9829 29.2234 93.9829 29.2234C93.9829 29.2234 93.7366 28.9279 93.1441 28.703C92.5508 28.4788 92.4878 28.9294 92.6139 29.2998C92.7408 29.6717 93.3273 30.6053 93.3273 30.6053L93.5601 30.9224L97.4785 33.0646C97.4785 33.0646 98.1273 32.6755 98.1596 32.6567C98.1911 32.6395 98.3248 32.1619 98.3248 32.1619C98.0469 31.3708 96.9228 30.9119 96.9228 30.9119Z" fill="#DD0000"/>
<path d="M90.4962 33.66C90.75 33.816 91.0774 34.1144 91.3155 34.3461C91.5408 34.3056 91.727 34.2434 91.7788 34.2254C91.6699 34.0956 91.0451 33.3623 90.5278 33.0849L90.5233 33.0819C90.2251 33.0332 90.0149 33.0437 89.9563 33.0489C89.957 33.0474 90.0457 33.3811 90.4962 33.66Z" fill="#D00000"/>
<path d="M91.591 29.9846C91.5745 29.7686 91.3958 29.6449 91.3958 29.6449L91.2884 29.5399L90.5856 29.135L90.4511 29.1013C90.4511 29.1013 90.2807 29.0496 90.2469 29.201C90.2116 29.3517 90.4789 29.6307 90.4789 29.6307L90.7087 29.9951L91.1397 30.2433L91.3718 30.1398C91.3718 30.1398 91.6083 30.199 91.591 29.9846Z" fill="#DD0000"/>
<path d="M91.3523 37.0783L90.4114 36.5362L90.4121 30.7754L91.3523 31.3175V37.0783Z" fill="#DEE5E9"/>
<path d="M91.5852 31.4513L90.1899 30.6475V29.8467L91.5852 30.6505V31.4513Z" fill="#F6B000"/>
<path d="M91.5852 31.2283L90.19 30.4238L90.1892 30.2686L91.5852 31.0731V31.2283Z" fill="#DC9600"/>
<path d="M91.5852 38.0126L90.1899 37.2088V36.4072L91.5852 37.2118V38.0126Z" fill="#F6B000"/>
<path d="M91.8217 38.9498L89.9534 37.8723V37.0715L91.821 38.149L91.8217 38.9498Z" fill="#34B2E3"/>
<path d="M91.8209 38.3244L89.9534 37.247V37.1675L91.8209 38.245V38.3244Z" fill="#DEE5E9"/>
<path d="M91.821 38.5893L89.9534 37.5118V37.4331L91.8217 38.5098L91.821 38.5893Z" fill="#DEE5E9"/>
<path d="M91.8217 38.8128L89.9534 37.7353V37.6543L91.821 38.7318L91.8217 38.8128Z" fill="#DEE5E9"/>
<path d="M91.2308 29.8389C91.2308 29.8389 91.2241 29.6155 91.3968 29.6447C91.3968 29.6447 91.372 29.5428 91.2699 29.5188C91.2699 29.5188 91.1302 29.563 91.0611 29.7482L90.9845 29.6935V29.0314L90.8659 28.9624V29.6245L90.7893 29.5915C90.7195 29.3268 90.5798 29.1199 90.5798 29.1199C90.4776 29.0269 90.4529 29.1011 90.4529 29.1011C90.6256 29.2713 90.6188 29.4858 90.6188 29.4858C90.5009 29.4963 90.4777 29.6237 90.4777 29.6237L90.588 29.9552L90.7247 30.0331L90.7818 29.9492L90.9252 30.0324L91.0679 30.1149L91.125 30.2641L91.2609 30.3421L91.3713 30.1389C91.3713 30.1389 91.3487 29.9844 91.2308 29.8389Z" fill="#F6B000"/>
<path d="M91.7938 34.2195C91.7938 34.2195 91.2741 34.4114 90.8424 34.3807C90.4113 34.3492 89.8293 34.3582 89.8293 34.3582L89.909 35.0458C89.909 35.0458 90.3655 34.8673 90.8596 34.982C91.3508 35.0968 91.8404 34.8403 91.8404 34.8403L91.7938 34.2195Z" fill="#DD0000"/>
<path d="M90.8545 32.366C90.1193 32.129 89.7363 32.3142 89.7363 32.3142L89.9406 33.0491C89.9406 33.0491 91.2953 32.8976 92.5073 34.1475L92.5583 33.5132C92.5583 33.5132 91.5881 32.6014 90.8545 32.366Z" fill="#DD0000"/>
<path d="M89.9097 35.0465L90.1835 35.5031C90.1835 35.5031 90.2797 35.2512 90.1541 34.9797C90.0037 35.0097 89.9097 35.0465 89.9097 35.0465Z" fill="#D00000"/>
<path d="M100.397 39.3683C100.143 39.2311 99.8169 39.1523 99.5796 39.1096C99.355 38.8112 99.1673 38.5322 99.1155 38.455C99.2229 38.4498 99.8492 38.4385 100.366 38.7564H100.37C100.668 39.0519 100.879 39.3045 100.937 39.3765C100.937 39.3765 100.849 39.6082 100.397 39.3683Z" fill="#D00000"/>
<path d="M99.3024 34.4286C99.3197 34.2329 99.4984 34.3153 99.4984 34.3153L99.6043 34.3318L100.307 34.7382L100.443 34.8597C100.443 34.8597 100.614 35.0037 100.648 35.1956C100.683 35.3876 100.415 35.3576 100.415 35.3576L100.186 35.4566L99.7552 35.2084L99.5224 34.8372C99.5224 34.8372 99.2851 34.6243 99.3024 34.4286Z" fill="#DD0000"/>
<path d="M99.5427 41.8001L100.481 42.3422L100.482 36.5807L99.5427 36.0393V41.8001Z" fill="#DEE5E9"/>
<path d="M99.3101 35.9055L100.704 36.7078V35.907L99.3101 35.1047V35.9055Z" fill="#F6B000"/>
<path d="M99.3093 35.6813L100.704 36.4851V36.3299L99.3093 35.5261V35.6813Z" fill="#DC9600"/>
<path d="M99.3093 42.4658L100.704 43.2696V42.4688L99.3093 41.6658V42.4658Z" fill="#F6B000"/>
<path d="M99.072 43.1286L100.94 44.2069V43.4061L99.072 42.3293V43.1286Z" fill="#34B2E3"/>
<path d="M99.072 42.505L100.94 43.5818V43.5023L99.072 42.4248V42.505Z" fill="#DEE5E9"/>
<path d="M99.072 42.7687L100.94 43.8462V43.7667L99.072 42.6892V42.7687Z" fill="#DEE5E9"/>
<path d="M99.072 42.9928L100.942 44.0703L100.94 43.9886L99.072 42.9119V42.9928Z" fill="#DEE5E9"/>
<path d="M99.663 34.7001C99.663 34.7001 99.6713 34.4849 99.4978 34.3155C99.4978 34.3155 99.5226 34.242 99.6232 34.3342C99.6232 34.3342 99.7644 34.5419 99.8335 34.8058L99.9101 34.8388V34.1768L100.028 34.245V34.9071L100.105 34.9626C100.175 34.7774 100.314 34.7324 100.314 34.7324C100.417 34.7571 100.442 34.8591 100.442 34.8591C100.269 34.8298 100.275 35.0525 100.275 35.0525C100.392 35.198 100.416 35.3525 100.416 35.3525L100.306 35.5557L100.169 35.4769L100.112 35.3277L99.9679 35.2452L99.826 35.1628L99.7696 35.2467L99.633 35.168L99.5211 34.8366C99.5211 34.8366 99.5466 34.7106 99.663 34.7001Z" fill="#F6B000"/>
<path d="M99.1013 38.4324C99.1013 38.4324 99.6194 39.2212 100.051 39.6883C100.481 40.1554 101.064 40.834 101.064 40.834L100.986 41.4301C100.986 41.4301 100.528 40.7245 100.035 40.2717C99.5436 39.8188 99.054 38.9985 99.054 38.9985L99.1013 38.4324Z" fill="#DD0000"/>
<path d="M100.041 37.6618C100.775 38.2722 101.157 38.899 101.157 38.899L100.953 39.3984C100.953 39.3984 99.5983 37.6851 98.3848 37.5366L98.333 36.8423C98.333 36.8423 99.3047 37.0492 100.041 37.6618Z" fill="#DD0000"/>
<path d="M100.986 41.4312L100.711 41.5721C100.711 41.5721 100.614 41.2092 100.741 41.0833C100.89 41.285 100.986 41.4312 100.986 41.4312Z" fill="#D00000"/>
<path d="M93.3274 30.6052C93.3274 30.6052 94.0393 30.6082 95.4593 31.4788C96.8801 32.3493 97.5619 33.0466 97.5619 33.0466L97.2916 33.5235C97.2916 33.5235 96.4948 32.7332 95.415 32.1228C94.2105 31.4398 93.5482 31.3648 93.5482 31.3648L93.3274 30.6052Z" fill="#F6B000"/>
<path d="M95.4142 32.123C94.2097 31.44 93.5474 31.365 93.5474 31.365C93.5474 31.365 94.2194 31.9633 95.3917 32.6479C96.5639 33.3302 97.2908 33.5229 97.2908 33.5229C97.2908 33.5229 96.4948 32.7334 95.4142 32.123Z" fill="#DD0000"/>
<path d="M95.3764 28.7833C95.3764 28.7833 95.194 28.6273 95.194 28.8823C95.194 29.1372 95.251 29.2774 95.194 29.3749C95.1376 29.4746 95.043 29.6891 95.1376 29.8525C95.2315 30.0175 95.2863 30.1277 95.2368 30.1637C95.188 30.2012 95.2067 30.5326 95.3764 30.5949C95.5469 30.6563 95.6483 30.5836 95.592 30.4351C95.5349 30.2852 95.5146 30.2522 95.5146 30.2522C95.5146 30.2522 95.7174 30.3474 95.6791 30.07C95.6415 29.7941 95.6415 29.8023 95.6415 29.6268C95.6423 29.4536 95.7556 29.0015 95.3764 28.7833Z" fill="#F6B000"/>
<path d="M94.0325 28.149C93.9356 28.1925 93.8726 28.266 93.832 28.3522L93.8327 28.3514C93.8327 28.3514 93.036 27.7396 92.632 27.8701C92.228 28.002 92.2723 28.7106 92.3917 29.0713C92.5104 29.4312 92.7078 29.5961 92.7078 29.5961L92.7454 29.6171C92.7454 29.6171 92.8408 29.5999 92.822 29.5076C92.804 29.4177 92.7777 29.3157 92.7461 29.2685C92.7138 29.2212 92.6823 29.1222 92.6823 29.1222C92.6823 29.1222 92.6575 28.9055 92.6823 28.919C92.7078 28.9348 92.3158 28.0313 92.8235 28.0703C93.3326 28.1092 93.7974 28.4527 93.7974 28.4527C93.7126 28.7893 93.8816 29.2572 93.9003 29.273L93.868 29.6546C93.8808 29.7416 93.9003 29.9268 94.0836 29.9313C94.266 29.935 94.2022 29.7603 94.1594 29.6771C94.1143 29.5924 94.1136 29.5271 94.1143 29.4762C94.1143 29.4259 94.1309 29.3337 94.0377 29.1785C93.9439 29.0218 93.817 28.4407 94.1466 28.3754C94.4755 28.3094 95.0237 28.6986 95.276 29.1125L95.3144 28.9318C95.3144 28.9288 94.5063 27.9368 94.0325 28.149Z" fill="#F6B000"/>
<path d="M96.8837 29.7925C96.9798 29.9477 97.0436 30.0932 97.0842 30.2266V30.2251C97.0842 30.2251 97.8809 30.5326 98.2849 31.1287C98.6889 31.7255 98.6454 32.3831 98.5252 32.6058C98.4043 32.8277 98.2098 32.7662 98.2098 32.7662L98.1723 32.7452C98.1723 32.7452 98.0762 32.6185 98.0957 32.548C98.1137 32.4798 98.1392 32.4063 98.1715 32.3958C98.2023 32.3838 98.2346 32.3224 98.2346 32.3224C98.2346 32.3224 98.2594 32.1334 98.2346 32.1199C98.2098 32.1042 98.6011 31.6535 98.0927 31.1062C97.5835 30.5595 97.1195 30.3661 97.1195 30.3661L97.118 30.3638C97.2028 30.7995 97.0346 31.0724 97.0151 31.0672L97.0466 31.4856C97.0354 31.5583 97.0159 31.7218 96.8326 31.5133C96.6501 31.3071 96.7125 31.2044 96.7568 31.1729C96.8018 31.1399 96.8018 31.0739 96.8018 31.0229C96.8018 30.9719 96.7853 30.8625 96.8792 30.8137C96.9723 30.7642 97.0977 30.3286 96.7688 29.884C96.4399 29.4401 95.8917 29.1956 95.6394 29.3201L95.6011 29.0959C95.6011 29.0959 96.4098 29.0344 96.8837 29.7925Z" fill="#F6B000"/>
<path d="M92.4607 37.4452C92.4607 37.4452 92.5057 39.5694 95.4284 41.3322L95.4277 36.7179L92.4614 35.0076L92.4607 37.4452Z" fill="#F6B000"/>
<path d="M92.7461 38.5083C92.8258 38.6905 92.9274 38.8892 93.0567 39.0999V35.3508L92.7461 35.1724V38.5083Z" fill="#DD0000"/>
<path d="M93.4211 39.6195C93.5152 39.738 93.6189 39.8587 93.7325 39.9816V35.7407L93.4211 35.5623V39.6195Z" fill="#DD0000"/>
<path d="M94.4061 40.3709L94.0955 40.1917V35.9485L94.4061 36.1277V40.3709Z" fill="#DD0000"/>
<path d="M95.0819 40.7606L94.7698 40.5806V36.3367L95.0819 36.5159V40.7606Z" fill="#DD0000"/>
<path d="M95.4285 39.1772C95.4285 39.1772 95.3759 40.8846 93.5752 39.8056C94.0107 40.3117 94.6152 40.8448 95.4548 41.3464C96.3191 41.8256 96.9341 41.986 97.3712 41.9703C97.3622 41.968 95.5577 41.3352 95.4285 39.1772Z" fill="#DEE5E9"/>
<path d="M96.3889 37.2719C96.3889 38.0135 95.9586 38.3651 95.4285 38.0592C94.8976 37.754 94.4673 36.906 94.4673 36.1637C94.4673 35.4236 94.8983 35.0712 95.4278 35.3771C95.9587 35.6838 96.3889 36.5318 96.3889 37.2719Z" fill="#DD0000"/>
<path d="M96.0893 37.0994C96.0893 37.6107 95.7934 37.8537 95.4284 37.643C95.0627 37.4323 94.7661 36.8474 94.7661 36.3361C94.7661 35.8262 95.062 35.5832 95.4277 35.7939C95.7934 36.0046 96.0893 36.5895 96.0893 37.0994Z" fill="#005B99"/>
<path d="M95.0313 36.2004C95.0313 36.2004 94.975 36.0047 95.0853 35.9199C95.0853 35.9199 95.2047 36.1254 95.1439 36.2648C95.1439 36.2648 95.2551 36.2963 95.2971 36.3811C95.3399 36.465 95.3076 36.5085 95.3076 36.5085C95.3076 36.5085 95.21 36.3638 95.1507 36.3998L95.1207 36.4868L95.1882 36.5633L95.1304 36.5588L95.0921 36.6585L95.0673 36.5288L95.0012 36.4553L95.0651 36.444L95.0388 36.3391C95.0388 36.3391 94.9201 36.1786 94.8435 36.2176C94.8435 36.2176 94.8285 36.0646 94.9141 36.1014C94.999 36.1396 95.0313 36.2004 95.0313 36.2004Z" fill="#F6B000"/>
<path d="M95.6867 36.5783C95.6867 36.5783 95.6296 36.3826 95.7393 36.2979C95.7393 36.2979 95.8594 36.5033 95.8008 36.6443C95.8008 36.6443 95.9112 36.675 95.951 36.7597C95.9946 36.8437 95.9623 36.888 95.9623 36.888C95.9623 36.888 95.8654 36.7425 95.8053 36.7792L95.7745 36.8662L95.8436 36.9419L95.7851 36.9382L95.746 37.0372L95.7212 36.9082L95.6567 36.8347L95.7197 36.8235L95.692 36.7177C95.692 36.7177 95.5748 36.5588 95.4982 36.597C95.4982 36.597 95.4839 36.4448 95.5688 36.4808C95.6552 36.5168 95.6867 36.5783 95.6867 36.5783Z" fill="#F6B000"/>
<path d="M95.3548 37.0883C95.3548 37.0883 95.2977 36.8926 95.4066 36.8086C95.4066 36.8086 95.5275 37.0133 95.4674 37.1535C95.4674 37.1535 95.5786 37.1865 95.6199 37.2697C95.6612 37.3552 95.6296 37.3964 95.6296 37.3964C95.6296 37.3964 95.5328 37.2532 95.4719 37.29L95.4434 37.3762L95.511 37.4534L95.4539 37.4489L95.4134 37.5487L95.3886 37.4174L95.3247 37.3462L95.3886 37.3335L95.3608 37.2277C95.3608 37.2277 95.2429 37.068 95.1663 37.1063C95.1663 37.1063 95.1513 36.9541 95.2369 36.9908C95.3218 37.0275 95.3548 37.0883 95.3548 37.0883Z" fill="#F6B000"/>
<path d="M95.4705 28.0905V27.9435L95.6185 28.0283V27.8895L95.4705 27.8048V27.6226L95.3579 27.5574V27.7396L95.1724 27.6331V27.7711L95.3579 27.8783V28.0215C95.228 27.9743 95.1296 28.0477 95.1296 28.206C95.1296 28.3822 95.2543 28.5959 95.4067 28.6843C95.5599 28.7728 95.6853 28.7023 95.6853 28.5254C95.6861 28.3739 95.5937 28.1955 95.4705 28.0905Z" fill="#F6B000"/>
<path d="M108.347 25.7188L89.5366 14.8758C86.6447 13.209 84.28 14.5721 84.28 17.9065V20.0735L113.604 36.978V34.811C113.603 31.4774 111.239 27.3864 108.347 25.7188Z" fill="#DD0000"/>
<path d="M84.28 37.2156V39.594C84.28 42.9276 86.644 47.0186 89.5366 48.6854L108.347 59.5292C111.239 61.196 113.603 59.8321 113.603 56.4985V54.1201L84.28 37.2156Z" fill="#DD0000"/>
<path d="M117.223 34.9475L113.604 37.0335L113.604 54.0917L117.222 52.0057L117.223 34.9475Z" fill="#FFB800"/>
<path d="M144.175 46.0289L125.365 35.1858C122.473 33.519 120.108 34.8822 120.108 38.2173V43.3303L149.432 60.2348V55.1218C149.432 51.7874 147.068 47.6964 144.175 46.0289Z" fill="#2E383B"/>
<path d="M120.108 54.579L149.432 71.4835L149.432 60.2341L120.108 43.3296V54.579Z" fill="#DD0000"/>
<path d="M120.108 54.5791V59.9043C120.108 63.2379 122.472 67.3289 125.365 68.9957L144.175 79.8395C147.067 81.5063 149.432 80.1424 149.432 76.8088V71.4836L120.108 54.5791Z" fill="#FFDB00"/>
<path d="M149.431 71.4602V76.8086C149.431 78.435 148.866 79.5874 147.954 80.1536V80.1558L151.433 78.0758C152.428 77.5457 153.05 76.3543 153.05 74.6447V69.3743L149.431 71.4602Z" fill="#FFB800"/>
<path d="M149.432 60.2257L153.051 58.139V52.957C153.05 49.6234 150.686 45.5332 147.794 43.8656L128.983 33.0218C127.492 32.1625 126.141 32.1085 125.182 32.7159L122.012 34.6549C122.924 34.3055 124.093 34.4525 125.365 35.185L144.175 46.028C147.068 47.6956 149.431 51.7866 149.432 55.1195V60.2257Z" fill="url(#paint1_linear_2717_9438)"/>
<path d="M153.05 69.3746L153.051 58.1394L149.432 60.2261L149.432 71.4606L153.05 69.3746Z" fill="#B61617"/>
<path d="M179.571 157.478L160.761 146.635C157.869 144.968 155.504 146.332 155.504 149.666V154.779L184.828 171.684V166.571C184.827 163.237 182.464 159.146 179.571 157.478Z" fill="#EBF2F6"/>
<path d="M155.504 166.029L184.827 182.933L184.828 171.684L155.504 154.779V166.029Z" fill="#005B99"/>
<path d="M155.504 166.029V171.354C155.504 174.688 157.868 178.779 160.761 180.445L179.571 191.288C182.463 192.955 184.827 191.592 184.827 188.258V182.933L155.504 166.029Z" fill="#DD0000"/>
<path d="M184.827 182.91V188.259C184.827 189.885 184.262 191.037 183.35 191.604V191.605L186.829 189.525C187.824 188.995 188.446 187.803 188.446 186.095V180.824L184.827 182.91Z" fill="#B61617"/>
<path d="M184.828 171.675L188.447 169.589V164.407C188.446 161.073 186.082 156.983 183.19 155.315L164.379 144.471C162.888 143.612 161.537 143.559 160.578 144.166L157.408 146.105V146.105C158.32 145.756 159.489 145.902 160.761 146.635L179.571 157.478C182.463 159.145 184.827 163.236 184.828 166.57V171.675Z" fill="url(#paint2_linear_2717_9438)"/>
<path d="M188.446 180.824L188.447 169.589L184.828 171.675L184.828 182.91L188.446 180.824Z" fill="#004473"/>
<path d="M180.065 145.818L175.544 143.211V109.401L180.065 112.008C182.958 113.675 185.322 117.766 185.322 121.1L185.322 142.787C185.322 146.122 182.956 147.485 180.065 145.818Z" fill="#DD0000"/>
<path d="M175.55 143.216L165.771 137.579V103.769L175.55 109.405V143.216Z" fill="#EBF2F6"/>
<path d="M161.255 101.165L165.777 103.772V137.582L161.255 134.975C158.362 133.308 155.998 129.217 155.998 125.883V104.196C155.998 100.861 158.363 99.498 161.255 101.165Z" fill="#008733"/>
<path d="M179.219 107.271L183.684 109.845C186.577 111.513 188.94 115.603 188.941 118.937L188.94 140.624C188.94 142.333 188.319 143.525 187.323 144.056L183.845 146.135V146.133C184.756 145.567 185.322 144.415 185.322 142.788L185.322 121.101C185.322 117.767 182.958 113.676 180.065 112.009L175.532 109.396L179.219 107.271Z" fill="url(#paint3_linear_2717_9438)"/>
<path d="M165.773 103.77L161.255 101.165C159.983 100.432 158.814 100.286 157.903 100.635L161.072 98.6951C162.031 98.0878 163.382 98.1418 164.874 99.0011L169.459 101.644L165.773 103.77Z" fill="#00B544"/>
<path d="M175.532 109.396L165.773 103.77L169.459 101.645L179.219 107.271L175.532 109.396Z" fill="white"/>
<path d="M108.153 104.35L103.632 101.743V67.9329L108.153 70.5399C111.046 72.2075 113.41 76.2985 113.41 79.6322L113.41 101.32C113.41 104.653 111.045 106.017 108.153 104.35Z" fill="#DD0000"/>
<path d="M103.638 101.747L93.8589 96.1103V62.3013L103.638 67.9376V101.747Z" fill="#EBF2F6"/>
<path d="M89.343 59.6973L93.8651 62.3044V96.1149L89.343 93.5071C86.4504 91.8403 84.0864 87.7493 84.0864 84.4156V62.7281C84.0864 59.3937 86.4519 58.0305 89.343 59.6973Z" fill="#005B99"/>
<path d="M107.306 65.8022L111.772 68.3771C114.664 70.0447 117.028 74.1349 117.029 77.4686L117.028 99.1561C117.028 100.865 116.407 102.056 115.411 102.587L111.933 104.667V104.665C112.844 104.099 113.41 102.946 113.41 101.32L113.41 79.6325C113.41 76.2989 111.046 72.2079 108.153 70.5403L103.62 67.928L107.306 65.8022Z" fill="url(#paint4_linear_2717_9438)"/>
<path d="M93.8611 62.3018L89.3427 59.697C88.0713 58.9637 86.9021 58.8182 85.9905 59.1676L89.1602 57.2278C90.1191 56.6205 91.4701 56.6745 92.9614 57.5338L97.5467 60.1769L93.8611 62.3018Z" fill="#007FD6"/>
<path d="M103.62 67.9278L93.8611 62.302L97.5474 60.177L107.306 65.8021L103.62 67.9278Z" fill="white"/>
<path d="M119.601 105.601C119.601 108.935 121.965 113.026 124.858 114.692L143.668 125.536C146.56 127.203 148.924 125.839 148.924 122.505L148.925 100.818C148.924 97.484 146.561 93.393 143.668 91.7262L124.858 80.8824C121.966 79.2156 119.601 80.5787 119.601 83.9131V105.601Z" fill="#DD0000"/>
<path d="M148.925 122.506L148.925 100.818C148.925 97.4843 146.561 93.3934 143.668 91.7265L124.858 80.8828C123.586 80.1502 122.417 80.004 121.506 80.3534L124.675 78.4136C125.634 77.8063 126.985 77.8603 128.477 78.7196L147.287 89.5633C150.179 91.2309 152.543 95.3211 152.544 98.6548L152.543 120.342C152.543 122.051 151.922 123.243 150.926 123.773L147.448 125.853V125.851C148.359 125.284 148.925 124.132 148.925 122.506Z" fill="url(#paint5_linear_2717_9438)"/>
<path d="M130.705 95.6871L128.239 96.3582L129.291 100.28L126.803 96.7886L124.395 97.5789L125.323 94.7491L122.781 91.3142L125.843 93.0582L126.681 90.1467L127.645 94.0533L130.705 95.6871Z" fill="#FFDB00"/>
<path d="M135.598 95.3963L134.524 94.9104L134.336 96.0291L133.893 94.6375L132.824 94.1928L133.624 93.8179L133.152 92.4263L134.089 93.5847L134.866 93.1693L134.645 94.2611L135.598 95.3963Z" fill="#FFDB00"/>
<path d="M138.232 100.767L137.168 99.9317L136.686 100.767L136.542 99.4496L135.474 98.648L136.447 98.669L136.27 97.3396L137.017 98.6705L137.975 98.6503L137.462 99.4503L138.232 100.767Z" fill="#FFDB00"/>
<path d="M137.856 106.23L136.99 104.986L136.128 105.239L136.475 104.26L135.591 103.035L136.671 103.674L136.986 102.666L137.305 104.039L138.386 104.641L137.504 104.85L137.856 106.23Z" fill="#FFDB00"/>
<path d="M134.333 107.709L133.804 106.319L132.752 105.993L133.484 105.501L132.927 104.113L133.908 105.199L134.616 104.666L134.49 105.831L135.485 106.889L134.425 106.524L134.333 107.709Z" fill="#FFDB00"/>
<path d="M156.056 80.6771C156.056 84.0107 158.42 88.1017 161.313 89.7685L180.123 100.612C183.014 102.278 185.38 100.915 185.38 97.5808L185.38 75.8933C185.38 72.5596 183.017 68.4694 180.123 66.8018L161.313 55.9588C158.421 54.292 156.056 55.6551 156.056 58.9903V80.6771Z" fill="#1A4B99"/>
<path d="M185.38 97.5815L185.38 75.8939C185.38 72.5602 183.016 68.47 180.123 66.8024L161.313 55.9594C160.042 55.2269 158.872 55.0807 157.961 55.4301V55.4293L161.13 53.4903C162.089 52.883 163.44 52.9369 164.932 53.7962L183.742 64.64C186.634 66.3076 188.998 70.3978 188.999 73.7315L188.998 95.419C188.998 97.1278 188.377 98.32 187.381 98.8494L183.903 100.929V100.928C184.814 100.36 185.38 99.2086 185.38 97.5815Z" fill="url(#paint6_linear_2717_9438)"/>
<path d="M156.056 80.6771C156.056 84.0107 158.42 88.1017 161.313 89.7685L180.123 100.612C183.014 102.278 185.38 100.915 185.38 97.5808L185.38 75.8933C185.38 72.5596 183.017 68.4694 180.123 66.8018L161.313 55.9588C158.421 54.292 156.056 55.6551 156.056 58.9903V80.6771Z" fill="#1A4B99"/>
<path d="M185.38 97.5815L185.38 75.8939C185.38 72.5602 183.016 68.47 180.123 66.8024L161.313 55.9594C160.042 55.2269 158.872 55.0807 157.961 55.4301V55.4293L161.13 53.4903C162.089 52.883 163.44 52.9369 164.932 53.7962L183.742 64.64C186.634 66.3076 188.998 70.3978 188.999 73.7315L188.998 95.419C188.998 97.1278 188.377 98.32 187.381 98.8494L183.903 100.929V100.928C184.814 100.36 185.38 99.2086 185.38 97.5815Z" fill="url(#paint7_linear_2717_9438)"/>
<path d="M161.129 78.2871L156.056 75.4206V64.5378L161.558 67.7095L156.056 60.7753V58.9892C156.056 57.9875 156.271 57.1649 156.647 56.5479L165.792 68.0724V58.5408L175.483 64.1277V73.5536L184.711 72.5638C185.136 73.6818 185.38 74.8268 185.38 75.8945V77.4653L179.564 78.0892L185.38 81.4423L185.38 92.2149L180.065 89.1511L185.38 95.9654V97.5828C185.38 98.6445 185.139 99.5053 184.718 100.133L175.482 88.2904V97.9374L165.792 92.3513V82.6998L156.675 83.8785C156.281 82.801 156.056 81.7033 156.056 80.6775V78.9432L161.129 78.2871Z" fill="#DEE5E9"/>
<path d="M156.38 57.0884L165.794 68.9526V70.1516L165.597 70.0376L156.119 58.0946C156.173 57.7265 156.261 57.3898 156.38 57.0884Z" fill="#DD0000"/>
<path d="M185.381 75.8937V76.5843L178.274 77.3461L176.324 76.2214L185.352 75.2542C185.371 75.4701 185.381 75.6838 185.381 75.8937Z" fill="#DD0000"/>
<path d="M162.404 79.0073L164.343 80.1005L156.074 81.1705C156.063 81.0041 156.056 80.8399 156.056 80.6764V79.8261L162.404 79.0073Z" fill="#DD0000"/>
<path d="M185.29 98.632C185.227 98.9912 185.13 99.3181 185.001 99.6098L175.481 87.4013L175.482 86.5076L176.122 86.8772L185.29 98.632Z" fill="#DD0000"/>
<path d="M156.056 66.5444L167.865 73.3519V59.7361L173.586 63.0338V76.6503L185.38 83.4496L185.38 90.0457L173.587 83.2472L173.586 96.8435L167.864 93.5451V79.948L156.056 73.142V66.5444Z" fill="#DD0000"/>
<path d="M175.46 64.1144L165.805 58.5485L169.491 56.4236L179.146 61.9894L175.46 64.1144Z" fill="white"/>
<path d="M188.998 90.1274L185.38 92.2142L185.38 81.4341L188.999 79.3481L188.998 90.1274Z" fill="#C4CBCF"/>
<path d="M177.268 60.9067L173.582 63.0316L167.872 59.74L171.558 57.615L177.268 60.9067Z" fill="#FF635E"/>
<path d="M188.998 95.4181C188.998 96.5758 188.712 97.4951 188.217 98.1339L184.678 100.175C185.121 99.5443 185.38 98.673 185.38 97.582V95.9632L188.998 93.8765V95.4181Z" fill="#C4CBCF"/>
<path d="M188.998 87.9277L185.38 90.0145L185.38 83.4551L188.999 81.3691L188.998 87.9277Z" fill="#B61617"/>
<path d="M185.381 75.894C185.381 74.8172 185.133 73.661 184.701 72.5333L188.344 70.4331C188.761 71.5406 189 72.6735 189 73.7308V75.3931L185.381 77.4798L185.381 75.894Z" fill="#C4CBCF"/>
<path d="M188.568 97.5582L184.989 99.6209C185.121 99.3263 185.222 98.9956 185.288 98.6319L188.893 96.5535C188.82 96.9246 188.711 97.2605 188.568 97.5582Z" fill="#B61617"/>
<path d="M188.974 73.1606C188.989 73.3518 188.999 73.5423 188.999 73.7297V74.5058L185.38 76.5918V75.893C185.38 75.6815 185.368 75.4671 185.35 75.2504L188.974 73.1606Z" fill="#B61617"/>
<path d="M84 129.679C84 133.013 86.364 137.104 89.2566 138.77L108.067 149.614C110.959 151.281 113.323 149.918 113.323 146.583L113.324 124.896C113.323 121.562 110.96 117.472 108.067 115.804L89.2566 104.961C86.3647 103.295 84 104.658 84 107.992V129.679Z" fill="url(#paint8_linear_2717_9438)"/>
<path d="M113.323 146.583L113.324 124.896C113.323 121.562 110.96 117.472 108.067 115.804L89.2565 104.961C87.9851 104.228 86.8159 104.083 85.9043 104.431L89.074 102.491C90.033 101.885 91.3839 101.938 92.8752 102.797L111.685 113.641C114.578 115.309 116.942 119.399 116.943 122.733L116.942 144.421C116.942 146.13 116.32 147.322 115.325 147.851L111.846 149.931V149.93C112.758 149.362 113.323 148.21 113.323 146.583Z" fill="url(#paint9_linear_2717_9438)"/>
<path d="M84 129.679C84 133.013 86.364 137.104 89.2566 138.77L108.067 149.614C110.959 151.281 113.323 149.918 113.323 146.583L113.324 124.896C113.323 121.562 110.96 117.472 108.067 115.804L89.2566 104.961C86.3647 103.295 84 104.658 84 107.992V129.679Z" fill="#EBF2F6"/>
<path d="M113.323 146.583L113.324 124.896C113.323 121.562 110.96 117.472 108.067 115.804L89.2565 104.961C87.9851 104.228 86.8159 104.083 85.9043 104.431L89.074 102.491C90.033 101.885 91.3839 101.938 92.8752 102.797L111.685 113.641C114.578 115.309 116.942 119.399 116.943 122.733L116.942 144.421C116.942 146.13 116.32 147.322 115.325 147.851L111.846 149.931V149.93C112.758 149.362 113.323 148.21 113.323 146.583Z" fill="url(#paint10_linear_2717_9438)"/>
<path d="M90.7915 122.752C90.7908 127.763 94.3149 133.857 98.6613 136.361C103.009 138.868 106.532 136.837 106.532 131.825C106.532 126.813 103.009 120.719 98.6613 118.213C94.3149 115.707 90.7908 117.738 90.7915 122.752Z" fill="#C60000"/>
<path d="M149.455 167.4L149.456 145.713C149.455 142.379 147.092 138.288 144.198 136.621L125.388 125.778C124.117 125.044 122.948 124.899 122.036 125.248L125.206 123.308C126.165 122.701 127.515 122.755 129.007 123.614L147.817 134.458C150.71 136.126 153.074 140.216 153.074 143.55L153.074 165.238C153.074 166.947 152.452 168.138 151.456 168.668L147.978 170.748V170.746C148.889 170.179 149.455 169.027 149.455 167.4Z" fill="url(#paint11_linear_2717_9438)"/>
<path d="M149.455 167.4L149.456 145.713C149.455 142.379 147.092 138.288 144.198 136.621L125.388 125.778C124.117 125.044 122.948 124.899 122.036 125.248L125.206 123.308C126.165 122.701 127.515 122.755 129.007 123.614L147.817 134.458C150.71 136.126 153.074 140.216 153.074 143.55L153.074 165.238C153.074 166.947 152.452 168.138 151.456 168.668L147.978 170.748V170.746C148.889 170.179 149.455 169.027 149.455 167.4Z" fill="url(#paint12_linear_2717_9438)"/>
<path d="M131.902 129.533L125.388 125.778C122.496 124.111 120.131 125.475 120.131 128.809V150.495C120.131 153.83 122.495 157.921 125.388 159.588L131.902 163.343V129.533Z" fill="#008733"/>
<path d="M144.198 136.621L131.902 129.533V163.343L144.198 170.431C147.09 172.098 149.455 170.734 149.455 167.401L149.456 145.713C149.455 142.379 147.092 138.289 144.198 136.621Z" fill="#DD0000"/>
<path d="M131.902 138.118C127.843 135.778 124.553 137.649 124.552 142.296C124.553 146.944 127.843 152.609 131.902 154.949C135.961 157.29 139.252 155.418 139.252 150.771C139.252 146.123 135.961 140.458 131.902 138.118ZM125.823 140.257C126.365 141.11 127.22 142.318 127.22 142.318L125.428 141.721C125.503 141.175 125.638 140.686 125.823 140.257ZM131.53 153.797C129.854 152.723 128.346 151.023 127.241 149.1C128.734 150.244 131.003 151.826 131.53 152.192V153.797ZM131.53 151.358C130.705 150.751 127.721 148.515 126.471 147.577C126.457 147.545 126.444 147.515 126.432 147.484C127.139 147.669 128.31 148.037 128.31 148.037C128.31 148.037 129.012 147.367 128.146 147.044C127.581 146.834 126.65 146.66 126.069 146.564C125.751 145.665 125.53 144.756 125.427 143.871C126.093 144.505 127.182 145.466 128.297 146.108L127.868 144.894C127.868 144.894 126.59 144.08 125.363 142.926C125.362 142.872 125.361 142.817 125.361 142.762C125.361 142.712 125.362 142.663 125.363 142.612C126.146 142.815 127.68 143.419 127.68 143.419L128.783 140.603L127.933 139.667C128.775 139.949 131.003 141.062 131.53 141.327V151.358ZM131.53 140.413C131.386 140.33 130.847 140.028 129.781 139.542C128.923 139.152 127.895 138.758 127.323 138.545C128.419 137.945 129.895 138.003 131.531 138.841V140.413H131.53ZM132.253 154.215L132.252 152.616C132.523 152.762 133.017 153.016 133.781 153.364C134.84 153.846 136.156 154.331 136.559 154.478C135.45 155.126 133.935 155.084 132.253 154.215ZM137.92 152.944C137.422 152.11 136.341 150.587 136.341 150.587L138.386 151.271C138.306 151.906 138.148 152.466 137.92 152.944ZM135.884 149.488L134.779 152.305L135.629 153.24C134.876 152.987 133.014 152.071 132.253 151.692L132.252 139.256C133.938 140.329 135.452 142.035 136.562 143.965C135.8 143.375 135.01 142.873 135.01 142.873C135.01 142.873 134.669 143.327 135.446 143.892C135.989 144.287 136.849 145.037 137.317 145.452C137.321 145.461 137.325 145.468 137.328 145.477C136.719 145.34 135.495 144.972 135.495 144.972C135.495 144.972 134.841 145.563 135.706 145.885C136.316 146.113 137.211 146.287 137.687 146.37C138.043 147.342 138.284 148.326 138.388 149.281C137.775 148.677 136.537 147.532 135.266 146.799L135.694 148.013C135.694 148.013 137.148 148.94 138.444 150.215C138.444 150.247 138.444 150.275 138.444 150.306C138.444 150.321 138.444 150.335 138.444 150.349C137.802 150.244 135.884 149.488 135.884 149.488Z" fill="#F6CF00"/>
<path d="M131.942 152.379C129.547 150.998 127.598 147.642 127.598 144.899L127.599 138.246L136.289 143.257L136.29 149.91C136.289 152.653 134.34 153.761 131.942 152.379Z" fill="#EBF2F6"/>
<path d="M127.761 138.528V144.994C127.761 147.638 129.633 150.861 131.942 152.193C134.253 153.525 136.124 152.459 136.124 149.814V143.35L127.761 138.528Z" fill="#DD0000"/>
<path d="M129.422 141.47V145.976C129.422 147.568 130.551 149.512 131.941 150.314C133.335 151.116 134.464 150.476 134.463 148.881V144.376L129.422 141.47Z" fill="#EBF2F6"/>
<path d="M131.393 143.309V144.27C131.393 144.622 131.642 145.049 131.948 145.225C132.253 145.401 132.503 145.26 132.503 144.909V143.949L131.393 143.309Z" fill="#005B99"/>
<path d="M132.365 144.21C132.365 144.282 132.316 144.311 132.252 144.275C132.191 144.24 132.14 144.152 132.14 144.08C132.14 144.009 132.191 143.981 132.253 144.017C132.316 144.053 132.366 144.14 132.365 144.21Z" fill="#EBF2F6"/>
<path d="M131.756 143.859C131.756 143.93 131.706 143.959 131.644 143.923C131.581 143.887 131.531 143.8 131.531 143.728C131.531 143.657 131.581 143.629 131.644 143.665C131.705 143.7 131.756 143.788 131.756 143.859Z" fill="#EBF2F6"/>
<path d="M132.365 144.906C132.365 144.978 132.315 145.006 132.253 144.97C132.191 144.933 132.14 144.847 132.14 144.775C132.14 144.704 132.191 144.675 132.253 144.711C132.315 144.747 132.365 144.834 132.365 144.906Z" fill="#EBF2F6"/>
<path d="M131.756 144.554C131.756 144.626 131.706 144.655 131.644 144.619C131.581 144.583 131.531 144.496 131.531 144.424C131.531 144.353 131.582 144.324 131.644 144.36C131.706 144.395 131.756 144.483 131.756 144.554Z" fill="#EBF2F6"/>
<path d="M132.033 144.388C132.033 144.459 131.982 144.487 131.919 144.45C131.858 144.415 131.808 144.329 131.808 144.257C131.806 144.186 131.857 144.157 131.919 144.193C131.982 144.229 132.033 144.316 132.033 144.388Z" fill="#EBF2F6"/>
<path d="M131.393 145.533V146.493C131.393 146.844 131.642 147.272 131.948 147.449C132.254 147.625 132.502 147.483 132.503 147.134L132.502 146.173L131.393 145.533Z" fill="#005B99"/>
<path d="M132.365 146.434C132.366 146.505 132.315 146.533 132.253 146.497C132.191 146.461 132.14 146.374 132.14 146.304C132.14 146.233 132.191 146.203 132.253 146.239C132.316 146.275 132.365 146.362 132.365 146.434Z" fill="#EBF2F6"/>
<path d="M131.756 146.082C131.756 146.154 131.706 146.182 131.644 146.146C131.581 146.11 131.531 146.023 131.531 145.952C131.531 145.881 131.581 145.852 131.644 145.888C131.705 145.923 131.756 146.011 131.756 146.082Z" fill="#EBF2F6"/>
<path d="M132.365 147.129C132.366 147.201 132.316 147.229 132.253 147.193C132.191 147.157 132.14 147.07 132.14 146.998C132.14 146.927 132.191 146.899 132.252 146.934C132.316 146.971 132.365 147.057 132.365 147.129Z" fill="#EBF2F6"/>
<path d="M131.756 146.778C131.756 146.851 131.706 146.878 131.644 146.842C131.581 146.806 131.531 146.72 131.531 146.648C131.531 146.577 131.581 146.549 131.644 146.584C131.706 146.62 131.756 146.706 131.756 146.778Z" fill="#EBF2F6"/>
<path d="M132.033 146.611C132.033 146.682 131.982 146.711 131.919 146.675C131.857 146.639 131.808 146.553 131.806 146.481C131.806 146.41 131.857 146.381 131.919 146.417C131.982 146.452 132.033 146.539 132.033 146.611Z" fill="#EBF2F6"/>
<path d="M129.839 144.637L129.839 145.598C129.839 145.948 130.087 146.376 130.394 146.552C130.7 146.729 130.949 146.588 130.949 146.238V145.277L129.839 144.637Z" fill="#005B99"/>
<path d="M130.813 145.538C130.813 145.61 130.762 145.637 130.699 145.602C130.638 145.566 130.587 145.479 130.587 145.409C130.587 145.338 130.636 145.308 130.699 145.344C130.762 145.379 130.813 145.467 130.813 145.538Z" fill="#EBF2F6"/>
<path d="M130.202 145.187C130.202 145.259 130.153 145.287 130.09 145.25C130.027 145.214 129.978 145.128 129.979 145.057C129.978 144.986 130.027 144.956 130.09 144.992C130.153 145.029 130.202 145.115 130.202 145.187Z" fill="#EBF2F6"/>
<path d="M130.813 146.233C130.813 146.306 130.762 146.333 130.699 146.298C130.636 146.261 130.587 146.175 130.587 146.103C130.587 146.031 130.636 146.003 130.7 146.04C130.762 146.075 130.813 146.162 130.813 146.233Z" fill="#EBF2F6"/>
<path d="M130.202 145.882C130.202 145.954 130.153 145.983 130.09 145.947C130.027 145.911 129.978 145.824 129.978 145.752C129.978 145.68 130.027 145.652 130.09 145.689C130.153 145.725 130.202 145.81 130.202 145.882Z" fill="#EBF2F6"/>
<path d="M130.479 145.715C130.479 145.787 130.428 145.815 130.367 145.779C130.304 145.744 130.253 145.656 130.253 145.585C130.253 145.515 130.304 145.486 130.367 145.522C130.428 145.557 130.479 145.645 130.479 145.715Z" fill="#EBF2F6"/>
<path d="M132.917 146.411V147.371C132.917 147.722 133.165 148.15 133.472 148.326C133.778 148.503 134.027 148.362 134.026 148.011L134.027 147.05L132.917 146.411Z" fill="#005B99"/>
<path d="M133.89 147.312C133.89 147.383 133.839 147.412 133.778 147.376C133.714 147.34 133.665 147.254 133.665 147.182C133.665 147.11 133.714 147.081 133.778 147.118C133.838 147.153 133.89 147.241 133.89 147.312Z" fill="#EBF2F6"/>
<path d="M133.281 146.961C133.281 147.033 133.229 147.06 133.167 147.024C133.105 146.988 133.056 146.902 133.056 146.83C133.055 146.759 133.105 146.73 133.167 146.765C133.229 146.802 133.281 146.89 133.281 146.961Z" fill="#EBF2F6"/>
<path d="M133.89 148.007C133.89 148.079 133.839 148.107 133.778 148.071C133.714 148.034 133.665 147.949 133.665 147.877C133.665 147.806 133.714 147.777 133.778 147.813C133.838 147.849 133.89 147.935 133.89 148.007Z" fill="#EBF2F6"/>
<path d="M133.281 147.656C133.281 147.728 133.229 147.755 133.167 147.72C133.105 147.685 133.056 147.599 133.055 147.526C133.056 147.455 133.105 147.426 133.168 147.462C133.229 147.497 133.281 147.584 133.281 147.656Z" fill="#EBF2F6"/>
<path d="M133.555 147.488C133.555 147.56 133.506 147.59 133.443 147.553C133.38 147.518 133.331 147.431 133.331 147.359C133.331 147.288 133.381 147.26 133.443 147.295C133.507 147.331 133.555 147.418 133.555 147.488Z" fill="#EBF2F6"/>
<path d="M131.393 147.676L131.393 148.637C131.393 148.989 131.642 149.418 131.948 149.595C132.253 149.771 132.503 149.629 132.502 149.277V148.315L131.393 147.676Z" fill="#005B99"/>
<path d="M132.366 148.578C132.365 148.648 132.315 148.678 132.253 148.642C132.191 148.606 132.14 148.518 132.14 148.447C132.14 148.377 132.191 148.349 132.253 148.384C132.316 148.421 132.365 148.507 132.366 148.578Z" fill="#EBF2F6"/>
<path d="M131.756 148.227C131.756 148.298 131.706 148.327 131.644 148.292C131.581 148.256 131.531 148.168 131.531 148.098C131.531 148.026 131.581 147.998 131.644 148.034C131.705 148.069 131.756 148.155 131.756 148.227Z" fill="#EBF2F6"/>
<path d="M132.366 149.274C132.365 149.344 132.315 149.373 132.252 149.337C132.191 149.301 132.14 149.215 132.14 149.144C132.14 149.072 132.191 149.044 132.253 149.081C132.315 149.116 132.365 149.201 132.366 149.274Z" fill="#EBF2F6"/>
<path d="M131.756 148.922C131.756 148.993 131.707 149.021 131.644 148.986C131.581 148.951 131.531 148.863 131.531 148.792C131.531 148.72 131.581 148.692 131.644 148.729C131.705 148.764 131.756 148.85 131.756 148.922Z" fill="#EBF2F6"/>
<path d="M132.033 148.755C132.033 148.827 131.982 148.856 131.919 148.819C131.858 148.784 131.806 148.696 131.808 148.624C131.806 148.553 131.857 148.525 131.92 148.561C131.982 148.597 132.033 148.684 132.033 148.755Z" fill="#EBF2F6"/>
<path d="M132.533 142.957L132.469 142.409L132.513 142.435V142.322L132.545 142.34V142.219L132.445 142.16V141.856L132.502 141.889V141.783V141.692L132.406 141.636V141.728L132.352 141.696L132.351 141.605L132.254 141.549V141.64L132.189 141.603V141.512L132.093 141.456V141.547V141.654L132.15 141.686V141.99L132.066 141.941L132.065 141.372L132.122 141.405V141.298V141.207L132.026 141.152V141.243L131.972 141.211V141.121L131.875 141.065L131.875 141.156L131.809 141.118V141.027L131.713 140.972V141.063V141.169L131.77 141.202V141.771L131.669 141.713V141.408L131.726 141.441V141.336V141.245L131.629 141.189L131.628 141.279L131.574 141.249V141.157L131.479 141.102V141.192L131.413 141.155V141.064L131.317 141.009V141.099V141.206L131.373 141.238V141.543L131.254 141.474V141.596L131.32 141.635L131.321 141.747L131.378 141.779L131.305 142.25L131.245 142.217L131.246 142.347L132.588 143.12L132.587 142.99L132.533 142.957Z" fill="#F6CF00"/>
<path d="M129.221 141.05L129.158 140.5L129.201 140.525V140.413L129.236 140.433L129.236 140.311L129.134 140.253V139.948L129.191 139.981V139.874V139.784L129.095 139.729V139.819L129.04 139.787V139.697L128.944 139.642V139.732L128.878 139.694V139.603L128.782 139.548L128.783 139.64L128.782 139.745L128.839 139.778L128.84 140.083L128.755 140.033V139.464L128.812 139.497V139.39V139.299L128.717 139.244L128.716 139.335L128.661 139.302V139.212L128.564 139.156L128.564 139.247L128.498 139.21V139.118L128.403 139.064V139.154V139.261L128.46 139.294V139.863L128.358 139.805V139.501L128.414 139.532V139.427V139.337L128.319 139.281V139.372L128.263 139.34V139.25L128.168 139.193V139.285L128.102 139.247V139.157L128.006 139.1V139.191V139.297L128.063 139.33V139.634L127.943 139.565V139.688L128.01 139.727V139.839L128.068 139.872L127.994 140.342L127.935 140.308V140.439L129.275 141.211V141.081L129.221 141.05Z" fill="#F6CF00"/>
<path d="M135.828 144.858L135.764 144.308L135.81 144.334V144.222L135.843 144.242V144.119L135.741 144.06L135.74 143.756L135.798 143.789V143.683V143.592L135.701 143.536L135.703 143.628L135.646 143.596V143.504L135.55 143.45V143.541L135.485 143.502V143.412L135.39 143.357L135.391 143.448V143.554L135.446 143.586V143.891L135.362 143.842V143.273L135.418 143.304V143.199V143.107L135.323 143.053V143.143L135.267 143.111V143.02L135.172 142.966L135.171 143.056L135.106 143.019V142.927L135.01 142.872V142.963V143.069L135.065 143.101V143.67L134.965 143.613V143.309L135.021 143.341V143.235V143.144L134.925 143.089V143.18L134.87 143.148V143.057L134.775 143.002V143.093L134.709 143.056L134.709 142.964L134.612 142.909V142.999V143.106L134.669 143.138V143.442L134.549 143.373V143.496L134.617 143.535V143.647L134.673 143.679L134.601 144.15L134.543 144.117V144.247L135.884 145.02V144.89L135.828 144.858Z" fill="#F6CF00"/>
<path d="M129.221 144.974L129.158 144.423L129.202 144.449L129.201 144.336L129.236 144.356V144.235L129.134 144.177L129.135 143.872L129.191 143.904V143.798V143.708L129.095 143.652V143.742L129.04 143.711V143.621L128.944 143.565V143.655L128.878 143.619V143.527L128.782 143.472L128.783 143.563V143.67L128.84 143.702V144.006L128.755 143.957V143.386L128.812 143.42V143.313V143.222L128.716 143.167V143.259L128.661 143.226V143.136L128.564 143.08V143.17L128.498 143.133V143.042L128.403 142.987L128.402 143.077V143.183L128.46 143.216V143.787L128.357 143.729L128.358 143.424L128.414 143.457V143.35V143.26L128.319 143.205L128.318 143.295L128.263 143.263V143.173L128.166 143.117V143.208L128.102 143.17V143.08L128.006 143.025V143.115V143.221L128.063 143.254V143.558L127.943 143.489V143.61L128.01 143.649V143.762L128.068 143.795L127.993 144.266L127.935 144.232V144.362L129.276 145.135V145.006L129.221 144.974Z" fill="#F6CF00"/>
<path d="M135.828 148.782L135.764 148.233L135.809 148.258V148.145L135.843 148.165V148.044L135.741 147.985L135.74 147.68L135.798 147.713V147.607V147.517L135.703 147.462L135.701 147.553L135.646 147.52V147.43L135.55 147.375V147.466L135.485 147.427V147.337L135.39 147.281V147.372V147.478L135.446 147.51V147.814L135.362 147.767V147.197L135.418 147.228V147.122V147.032L135.323 146.976L135.322 147.066L135.267 147.035V146.944L135.171 146.889L135.172 146.981L135.106 146.943V146.851L135.01 146.796V146.887V146.993L135.065 147.025V147.595L134.965 147.538L134.965 147.234L135.021 147.266V147.16V147.068L134.925 147.014V147.105L134.87 147.073V146.981L134.775 146.927V147.017L134.709 146.981V146.889L134.612 146.833V146.924V147.03L134.669 147.062V147.367L134.549 147.299V147.421L134.617 147.459V147.571L134.673 147.604L134.601 148.075L134.543 148.041V148.171L135.884 148.944L135.883 148.815L135.828 148.782Z" fill="#F6CF00"/>
<path d="M134.504 152.375L134.781 152.125L134.813 152.18L134.884 152.142L134.906 152.182L134.983 152.141L134.913 152.018L135.103 151.917L135.142 151.985L135.209 151.95L135.266 151.919L135.2 151.801L135.142 151.833L135.104 151.765L135.161 151.734L135.094 151.617L135.037 151.646L134.991 151.567L135.048 151.537L134.982 151.419L134.925 151.45L134.859 151.483L134.897 151.554L134.706 151.657L134.647 151.553L135.004 151.361L135.045 151.433L135.111 151.396L135.167 151.365L135.101 151.249L135.044 151.278L135.007 151.211L135.063 151.181L134.995 151.064L134.938 151.094L134.893 151.013L134.95 150.983L134.884 150.865L134.826 150.895L134.76 150.932L134.799 151.001L134.442 151.192L134.371 151.068L134.562 150.966L134.603 151.036L134.667 150.998L134.725 150.971L134.658 150.851L134.602 150.882L134.563 150.815L134.618 150.784L134.552 150.665L134.495 150.697L134.451 150.617L134.507 150.587L134.44 150.469L134.383 150.5L134.317 150.535L134.356 150.604L134.165 150.707L134.082 150.561L134.006 150.602L134.053 150.684L133.982 150.722L134.022 150.791L133.648 150.873L133.608 150.802L133.527 150.846L134.462 152.485L134.543 152.443L134.504 152.375Z" fill="#F6CF00"/>
<path d="M129.367 149.414L129.09 148.844L129.059 148.863L128.989 148.745L128.965 148.757L128.89 148.629L128.96 148.587L128.768 148.265L128.73 148.289L128.663 148.175L128.606 148.08L128.673 148.04L128.73 148.137L128.767 148.112L128.711 148.016L128.778 147.977L128.836 148.072L128.881 148.045L128.823 147.95L128.891 147.908L128.947 148.004L129.013 148.116L128.974 148.14L129.166 148.463L129.224 148.427L128.868 147.825L128.827 147.849L128.761 147.735L128.704 147.639L128.772 147.6L128.828 147.696L128.866 147.672L128.809 147.577L128.876 147.537L128.932 147.632L128.978 147.604L128.921 147.508L128.989 147.467L129.046 147.564L129.112 147.676L129.072 147.699L129.43 148.304L129.502 148.261L129.309 147.939L129.27 147.962L129.203 147.849L129.146 147.754L129.214 147.714L129.271 147.811L129.309 147.786L129.253 147.691L129.321 147.65L129.376 147.746L129.422 147.718L129.365 147.623L129.432 147.583L129.489 147.678L129.556 147.79L129.515 147.813L129.707 148.137L129.791 148.086L129.867 148.216L129.819 148.244L129.89 148.363L129.849 148.386L130.222 148.898L130.264 148.874L130.346 149.012L129.412 149.575L129.33 149.438L129.367 149.414Z" fill="#F6CF00"/>
<path d="M135.547 127.384L129.008 123.614C127.516 122.755 126.165 122.701 125.206 123.308L122.037 125.247V125.248C122.948 124.899 124.118 125.044 125.389 125.777L131.86 129.508L135.547 127.384Z" fill="#00AD42"/>
<rect x="32" y="207.401" width="150" height="0.598902" fill="#141422"/>
<path d="M68.7466 37.7399C69.0396 37.0027 69.3817 36.3028 69.7589 35.6612C70.0553 35.1569 70.3828 34.6707 70.7397 34.2069C73 31.2704 76.4299 29.2533 80.1033 28.7C82.0427 28.408 84.0852 28.5228 85.8721 29.3284C88.0712 30.3197 89.7391 32.3258 90.5053 34.6056C91.0469 36.2177 91.1554 37.9552 90.9138 39.6332C90.8189 40.2919 90.7566 41.1989 90.2953 41.7072C89.7986 42.2547 89.275 42.782 88.6265 43.1521C88.082 43.4629 87.4257 43.704 86.7986 43.7557C86.0791 43.8151 85.3409 43.672 84.6106 43.7328C83.1122 43.8574 81.6392 44.3082 80.3297 45.0586C78.4728 46.1226 77.0105 47.7804 76.2938 49.805C76.1381 50.2446 76.0052 50.721 75.6587 51.0343C75.3073 51.3519 74.7897 51.4374 74.3227 51.3539C73.8559 51.2704 73.4297 51.0375 73.031 50.7815C71.1482 49.5721 69.6745 47.7543 68.8407 45.683C68.3279 44.4093 68.0562 43.0425 68.0221 41.6715C68.0048 40.9772 68.0485 40.2815 68.1526 39.5948C68.2485 38.9635 68.5104 38.3347 68.7466 37.7399Z" fill="#141422"/>
<path d="M98.6135 109.37L98.3324 130.728C97.8451 144.428 97.2846 161.065 95.8062 174.695L93.0543 200.062L85.5466 201.461L84.036 183.666C83.6077 178.619 83.492 173.551 83.6895 168.49L84.1351 157.081L84.4746 124.795C84.4746 124.795 81.256 138.975 79.4287 147.945C78.3703 153.141 76.988 158.264 75.2849 163.287L62.8154 200.062H56.6662L63.3845 158.409C64.2556 154.392 64.18 149.09 64.2342 144.825L65.7793 109.37H98.6135V109.37Z" fill="#141422"/>
<path d="M93.0545 200.298C93.1732 200.298 93.2757 200.209 93.2894 200.088C93.3251 199.776 96.8625 168.732 97.43 157.289L98.8175 111.851C98.8215 111.721 98.7188 111.612 98.5881 111.608C98.4585 111.602 98.3483 111.706 98.3443 111.836L96.9567 157.271C96.39 168.694 92.8544 199.723 92.8187 200.035C92.8039 200.164 92.8973 200.281 93.0273 200.296C93.0365 200.297 93.0455 200.298 93.0545 200.298Z" fill="#2A38A5"/>
<path d="M89.4678 71.7743C93.5189 75.6134 97.2197 79.8676 100.949 84.0517C101.886 85.039 102.761 85.9995 104.072 86.7681C105.747 87.7622 107.919 87.6789 109.425 86.412C110.29 85.7392 111.024 84.5782 111.46 83.7379C112.18 82.3675 112.745 80.9636 113.315 79.5882C115.345 74.5362 117.633 68.9678 119.918 64.0595L115.155 61.7407C112.129 67.4284 109.333 73.806 106.53 79.6089C106.208 80.2125 105.789 81.0564 105.394 81.4559C105.87 80.9939 106.741 80.906 107.337 81.1671C106.234 80.1592 105.206 78.7585 104.206 77.5373C101.232 73.784 98.0917 70.0464 94.7804 66.5592C94.78 66.5594 89.4678 71.7743 89.4678 71.7743Z" fill="#DE6A44"/>
<path d="M87.1166 67.7752C90.4172 72.622 93.5636 77.5078 97.6782 81.7891C98.2517 82.3516 98.884 82.9204 99.5385 83.3994C99.8341 83.6017 100.136 83.7981 100.441 83.9872L104.848 75.8502C104.809 75.8228 104.761 75.8144 104.715 75.8008L104.682 75.7783C104.567 75.6968 104.448 75.6374 104.331 75.5528C104.156 75.4199 103.99 75.2959 103.814 75.1569C101.022 72.7778 98.5559 69.8423 96.1376 67.0166C95.1287 65.82 94.1275 64.6058 93.1304 63.3806L87.1166 67.7752Z" fill="#F84923"/>
<path d="M85.5466 201.461L93.0541 200.062L96.4347 203.647L105.77 205.659L106.209 207.671H85.0638L85.5466 201.461Z" fill="#2A38A5"/>
<path d="M100.494 100.578C100.458 99.6335 100.409 98.6883 100.363 97.7416C100.202 94.4619 99.9414 91.1936 99.5783 87.9427C98.9165 81.8841 98.0348 75.5868 95.9885 69.8841C95.0893 67.4422 94.6631 64.7889 92.8122 62.9431C91.9515 62.0984 90.4168 61.4687 89.1637 61.0202C88.985 60.9563 88.6862 60.8726 88.5131 60.8063C87.8766 60.5627 87.2514 60.2816 86.589 60.0947C84.2317 59.4311 81.6558 59.4006 79.2077 59.9241C78.5044 60.0747 77.8124 60.2722 77.1394 60.5145C75.9274 60.9485 74.7799 61.5286 73.7441 62.2412C71.8114 63.5976 70.1577 65.4456 68.8529 67.5806C64.6416 74.868 64.1541 85.0479 64.1966 94.241C64.2193 97.6255 64.2913 101.013 64.417 104.403C64.4722 105.875 64.329 107.336 64.7936 108.776C65.2079 110.068 65.9407 111.241 66.8407 112.154C68.2837 113.628 70.1108 114.463 71.9381 114.894C74.4263 115.482 76.9649 115.368 79.477 115.252C82.6377 115.105 85.8013 114.959 88.968 114.813C90.1108 114.76 91.2543 114.707 92.3979 114.654C93.8123 114.589 95.2772 114.509 96.5726 113.764C98.6029 112.603 99.8592 109.994 100.247 107.418C100.256 107.355 100.264 107.291 100.272 107.228C100.579 105.003 100.575 102.792 100.494 100.578Z" fill="#F84923"/>
<path d="M88.5518 61.319C88.5518 64.5022 85.9801 67.083 82.809 67.083C79.637 67.083 77.0653 64.5022 77.0653 61.319C77.0653 61.0462 77.084 60.7768 77.1213 60.5145C77.8001 60.2722 78.4965 60.0745 79.2028 59.9241C81.6568 59.4006 84.2314 59.4311 86.5929 60.0947C87.2579 60.2818 87.9063 60.5181 88.5291 60.8063C88.544 60.9745 88.5518 61.1463 88.5518 61.319Z" fill="white"/>
<path d="M78.9518 59.9243C79.3192 58.3354 79.3878 56.6977 79.3282 55.2646C79.226 52.829 78.7527 50.9839 78.7527 50.9839L86.7783 53.2301C85.8807 55.6519 86.4033 57.9872 86.817 59.2112C87.0059 59.7683 87.1714 60.0943 87.1714 60.0943L78.9518 59.9243Z" fill="#DE6A44"/>
<path d="M87.2842 60.6232C87.2842 61.8989 85.3739 65.296 83.0184 65.296C80.6617 65.296 78.7526 61.8989 78.7526 60.6232C78.7526 60.3795 78.8224 60.1443 78.9517 59.9241C81.6808 59.4006 84.5445 59.4312 87.1715 60.0941C87.2453 60.2639 87.2842 60.4407 87.2842 60.6232Z" fill="#DE6A44"/>
<path d="M86.8171 59.2112C86.5727 59.2516 86.323 59.2711 86.0669 59.2711C83.7451 59.2711 81.3188 57.6167 79.3281 55.2646C79.2259 52.829 78.7526 50.9839 78.7526 50.9839L86.7782 53.2301C85.8806 55.6519 86.4032 57.987 86.8171 59.2112Z" fill="#C1725B"/>
<path d="M90.1724 39.9924C91.9761 45.0058 92.0717 53.2617 87.173 55.0098C82.2744 56.7581 74.2361 51.3367 72.4327 46.3233C70.6291 41.3099 73.1382 35.8283 78.0369 34.08C82.9355 32.3321 88.3688 34.9791 90.1724 39.9924Z" fill="#DE6A44"/>
<path d="M74.6058 46.9312C75.6711 47.8306 76.0278 49.1551 75.4028 49.8895C74.7777 50.6239 73.4075 50.4903 72.3422 49.5911C71.277 48.6917 70.9202 47.3672 71.5455 46.6328C72.1704 45.8984 73.5406 46.032 74.6058 46.9312Z" fill="#DE6A44"/>
<path d="M76.252 28.4567C73.4874 29.2684 71.1227 31.225 69.6441 33.6776C68.1656 36.1302 67.8692 39.1588 68.0186 42.0116C68.075 43.0886 68.2145 43.8608 68.5767 44.9541C69.0273 46.3141 71.1393 46.3918 72.5682 46.1953C74.9102 45.8731 76.9278 44.3509 78.4513 42.5595C79.9747 40.768 81.1043 38.687 82.4445 36.7571C83.225 35.633 84.0775 34.56 84.9536 33.508C85.392 32.9817 85.8366 32.4604 86.2819 31.9397C86.6172 31.5476 87.0229 31.1461 87.0145 30.5941C86.9969 29.4352 85.4928 29.0875 84.6179 28.8218C83.3431 28.4349 82.031 28.1527 80.7006 28.0456C79.2077 27.9262 77.6916 28.0338 76.252 28.4567Z" fill="#141422"/>
<path d="M77.1213 60.5146C67.6448 63.0185 64.3751 63.8329 60.1655 77.6329L69.1162 80.116L77.1213 60.5146Z" fill="#F84923"/>
<path d="M69.3481 80.4729C69.4494 80.4729 69.543 80.4078 69.5743 80.3064L72.2444 71.6502C72.2827 71.5257 72.2125 71.3937 72.0876 71.3556C71.9629 71.3176 71.8303 71.3873 71.7918 71.5118L69.1217 80.1679C69.0834 80.2924 69.1536 80.4244 69.2785 80.4625C69.3016 80.4695 69.325 80.4729 69.3481 80.4729Z" fill="#D7D7D7"/>
<path d="M99.9638 96.5472C99.9674 96.5472 99.9708 96.5471 99.9745 96.547C100.105 96.5412 100.206 96.4311 100.2 96.3011C99.5369 81.35 96.9744 73.0168 94.9414 68.6586C92.7165 63.8889 90.6528 62.6982 90.5659 62.6499C90.452 62.5864 90.3077 62.6269 90.2439 62.7406C90.1803 62.8538 90.2206 62.9972 90.3341 63.061C90.3544 63.0725 92.3854 64.2634 94.5484 68.9354C96.5483 73.2553 99.0704 81.5134 99.7276 96.3221C99.7332 96.4485 99.8379 96.5472 99.9638 96.5472Z" fill="#D7D7D7"/>
<path d="M56.6663 200.062H62.8155L63.2886 203.312L64.3294 204.113L65.1807 207.671H53.4497L54.9163 203.866L55.8859 203.195L56.6663 200.062Z" fill="#2A38A5"/>
<path d="M100.344 83.9037C100.361 83.9037 100.379 83.9017 100.397 83.8977C100.463 83.8823 100.519 83.8398 100.552 83.7809L104.762 76.0762C104.818 75.9746 104.791 75.8479 104.699 75.7772C100.011 72.1584 94.2327 64.7662 94.1747 64.6919C94.0949 64.589 93.9461 64.5702 93.8426 64.6501C93.7393 64.7298 93.7207 64.878 93.8007 64.9809C93.8583 65.0548 99.5446 72.3294 104.251 76.0263L100.263 83.3227L99.682 82.9132C99.5755 82.8381 99.4275 82.8633 99.3519 82.9695C99.2763 83.0758 99.3018 83.223 99.4085 83.2983L100.207 83.8608C100.247 83.8889 100.295 83.9037 100.344 83.9037Z" fill="#D7D7D7"/>
<path d="M74.6607 48.3657C74.6874 48.4192 74.7144 48.4726 74.7419 48.5257C74.9918 49.0059 75.3024 49.4752 75.7564 49.7717C76.2102 50.0681 76.8349 50.1557 77.2939 49.8669C77.7927 49.5533 77.9643 48.8978 77.9284 48.3112C77.8927 47.7246 77.695 47.1585 77.6362 46.5737C77.5354 45.572 77.85 44.5629 78.3473 43.6865C78.7464 42.9834 79.2594 42.3532 79.7926 41.7478C80.2727 41.2026 80.9314 40.7815 81.5483 40.393C82.356 39.8843 83.2127 39.4585 84.0786 39.0586C85.5961 38.3577 87.1548 37.7264 88.567 36.8329C89.087 36.504 89.5968 36.1285 89.9322 35.6135C90.2677 35.0986 90.4011 34.4165 90.1352 33.863C89.8059 33.1778 88.9877 32.8793 88.2319 32.7821C86.2791 32.5306 84.2958 33.1939 82.6286 34.2394C80.9613 35.2848 79.5606 36.6947 78.1759 38.0915C76.7515 39.5286 75.3269 40.9657 73.9025 42.4026C73.2963 43.0142 72.4951 43.625 72.0395 44.3612C71.644 45.0001 72.1255 45.4466 72.5719 45.8712C72.6574 45.9525 72.7257 46.0606 72.8196 46.1315C72.9431 46.2247 73.1082 46.2655 73.2407 46.3484C73.5399 46.5359 73.7858 46.8014 73.9833 47.0912C74.2548 47.4891 74.4459 47.9343 74.6607 48.3657Z" fill="#141422"/>
<path d="M83.0523 53.0476C83.5941 53.1369 84.1783 53.1531 84.6626 52.8948C85.331 52.5383 85.6352 51.7693 86.0395 51.1305C86.8679 49.8215 88.3151 48.9201 89.8595 48.7513C90.4599 48.6856 91.1407 48.7573 91.5385 49.2099C91.8506 49.5648 91.9133 50.0717 91.9033 50.5433C91.8736 51.9353 91.3123 53.3095 90.358 54.3269C89.4037 55.3442 88.0653 55.9953 86.673 56.1192C84.9991 56.2682 83.3409 55.6799 81.8573 54.8938C79.414 53.5995 77.2751 51.7395 75.658 49.5027C75.4915 49.2724 75.3235 49.0149 75.3387 48.7317C75.3628 48.2841 75.8567 47.9805 76.3063 47.9949C76.7188 48.0083 77.3934 48.2412 77.6918 48.5513C78.0498 48.9237 78.1967 49.5844 78.4839 50.024C79.1372 51.0239 80.0565 51.8514 81.1195 52.4009C81.7249 52.7141 82.3785 52.9368 83.0523 53.0476Z" fill="#141422"/>
<path d="M88.8036 50.367C89.0936 50.2288 89.4058 50.1501 89.7227 50.0896C89.6832 51.0206 89.3882 52.689 87.6816 51.4304C87.9333 50.972 88.3302 50.5929 88.8036 50.367Z" fill="white"/>
<path d="M60.154 77.5593C59.3209 81.2916 58.3564 84.7387 57.4985 88.5644C57.0387 90.7947 56.5786 93.1759 57.3088 95.5058C58.4189 99.0508 61.8475 100.332 65.1188 101.051C72.592 102.56 79.9055 103.636 87.284 105.439L88.5518 101.123C83.1911 99.2393 77.7156 97.5619 72.2539 96.0026C70.0241 95.3437 67.8932 94.784 65.845 93.9749C65.3908 93.7751 64.6053 93.4721 64.3624 93.129C64.3646 93.1258 64.3592 93.1222 64.3654 93.1222C64.3734 93.1226 64.3807 93.1244 64.3865 93.1274C64.4525 93.1495 64.5796 93.3275 64.6145 93.379C64.6239 93.392 64.6235 93.403 64.6395 93.4006C64.6422 93.4098 64.652 93.3842 64.6546 93.3711C64.7087 92.9778 64.8485 92.3161 65.0039 91.8065C66.1963 87.9662 67.8413 84.015 69.1438 80.114L60.154 77.5593Z" fill="#DE6A44"/>
<path d="M87.344 100.704C94.2953 101.556 97.7273 106.282 92.9062 109.112C88.0852 111.941 86.2535 105.242 86.2535 105.242L87.344 100.704Z" fill="#DE6A44"/>
<path d="M115.037 62.0234C115.037 62.0234 115.123 61.6325 115.662 60.945C116.471 59.9122 117.671 59.1119 117.832 57.9246C117.994 56.7376 115.03 53.3037 116.615 51.7044C118.201 50.1051 119.218 49.3358 120.455 50.2961C121.692 51.2566 123.628 52.3696 123.965 54.6613C124.189 56.1841 123.922 58.8868 122.673 59.9649C121.424 61.0431 120.653 62.3584 120.465 62.8997C120.277 63.4409 119.908 64.0891 119.908 64.0891L115.037 62.0234Z" fill="#DE6A44"/>
<path d="M63.1517 199.307C63.2514 199.307 63.344 199.244 63.3767 199.144L78.5247 153.038C78.5273 153.03 78.5293 153.022 78.5311 153.014L85.8124 119.009C85.8396 118.882 85.758 118.756 85.6303 118.729C85.5028 118.701 85.3768 118.783 85.3495 118.911L78.0709 152.903L62.9267 198.997C62.886 199.121 62.9538 199.254 63.0781 199.295C63.1026 199.303 63.1274 199.307 63.1517 199.307Z" fill="#2A38A5"/>
<defs>
<linearGradient id="paint0_linear_2717_9438" x1="104.568" y1="27.704" x2="109.379" y2="36.7258" gradientUnits="userSpaceOnUse">
<stop stop-color="#FF635E"/>
<stop offset="1" stop-color="#B61617"/>
</linearGradient>
<linearGradient id="paint1_linear_2717_9438" x1="141.142" y1="48.1237" x2="146.372" y2="56.3975" gradientUnits="userSpaceOnUse">
<stop stop-color="#414E52"/>
<stop offset="1" stop-color="#1C2224"/>
</linearGradient>
<linearGradient id="paint2_linear_2717_9438" x1="176.538" y1="159.573" x2="181.768" y2="167.847" gradientUnits="userSpaceOnUse">
<stop stop-color="white"/>
<stop offset="1" stop-color="#C4CBCF"/>
</linearGradient>
<linearGradient id="paint3_linear_2717_9438" x1="176.727" y1="113.665" x2="181.795" y2="122.972" gradientUnits="userSpaceOnUse">
<stop stop-color="#FF635E"/>
<stop offset="1" stop-color="#B61617"/>
</linearGradient>
<linearGradient id="paint4_linear_2717_9438" x1="104.815" y1="72.1972" x2="109.883" y2="81.5036" gradientUnits="userSpaceOnUse">
<stop stop-color="#FF635E"/>
<stop offset="1" stop-color="#B61617"/>
</linearGradient>
<linearGradient id="paint5_linear_2717_9438" x1="139.196" y1="92.7698" x2="145.653" y2="105.704" gradientUnits="userSpaceOnUse">
<stop stop-color="#FF635E"/>
<stop offset="1" stop-color="#B61617"/>
</linearGradient>
<linearGradient id="paint6_linear_2717_9438" x1="175.651" y1="67.8462" x2="182.108" y2="80.7803" gradientUnits="userSpaceOnUse">
<stop stop-color="#FFEBB6"/>
<stop offset="1" stop-color="#A61FBE"/>
</linearGradient>
<linearGradient id="paint7_linear_2717_9438" x1="175.651" y1="67.8462" x2="182.108" y2="80.7803" gradientUnits="userSpaceOnUse">
<stop stop-color="#215FC2"/>
<stop offset="1" stop-color="#0F2C59"/>
</linearGradient>
<linearGradient id="paint8_linear_2717_9438" x1="101.059" y1="95.1665" x2="96.0636" y2="162.299" gradientUnits="userSpaceOnUse">
<stop stop-color="#FDD751"/>
<stop offset="1" stop-color="#D217F8"/>
</linearGradient>
<linearGradient id="paint9_linear_2717_9438" x1="103.595" y1="116.848" x2="110.051" y2="129.782" gradientUnits="userSpaceOnUse">
<stop stop-color="#FFEBB6"/>
<stop offset="1" stop-color="#A61FBE"/>
</linearGradient>
<linearGradient id="paint10_linear_2717_9438" x1="103.595" y1="116.848" x2="110.051" y2="129.782" gradientUnits="userSpaceOnUse">
<stop stop-color="white"/>
<stop offset="1" stop-color="#C4CBCF"/>
</linearGradient>
<linearGradient id="paint11_linear_2717_9438" x1="139.726" y1="137.665" x2="146.183" y2="150.599" gradientUnits="userSpaceOnUse">
<stop stop-color="#FFEBB6"/>
<stop offset="1" stop-color="#A61FBE"/>
</linearGradient>
<linearGradient id="paint12_linear_2717_9438" x1="139.726" y1="137.665" x2="146.183" y2="150.599" gradientUnits="userSpaceOnUse">
<stop stop-color="#FF635E"/>
<stop offset="1" stop-color="#B61617"/>
</linearGradient>
</defs>
</svg>
