<svg width="260" height="220" viewBox="0 0 260 220" fill="none" xmlns="http://www.w3.org/2000/svg">
<circle opacity="0.05" cx="130" cy="110" r="110" fill="#0000A9"/>
<path d="M90.7343 175.225C83.3947 153.2 66.9141 133.056 44.3212 118.493C41.7733 116.85 39.1048 115.257 36.0258 114.303C32.9467 113.349 29.3717 113.095 26.3426 114.14C22.4584 115.48 20.1293 118.756 19.6749 122.026C19.2202 125.296 20.3593 128.573 21.8057 131.666C26.7631 142.267 35.4754 151.73 46.3404 159.246C57.2055 166.761 70.1811 172.36 83.9334 176.1C85.2837 176.467 86.6814 176.821 88.111 176.767C89.5406 176.713 91.027 176.163 91.6206 175.156C92.2143 174.149 91.533 172.724 90.1292 172.508L90.7343 175.225Z" fill="#F84923"/>
<path d="M80.5252 162.475C80.5082 162.475 80.4911 162.473 80.4737 162.47C67.6394 160.02 55.37 150.399 47.337 142.76C38.6449 134.493 32.9017 126.701 32.8447 126.623C32.756 126.502 32.7824 126.332 32.9038 126.244C33.0249 126.155 33.1954 126.181 33.2841 126.302C33.3409 126.38 39.0604 134.139 47.7194 142.373C55.6976 149.959 67.8742 159.511 80.5759 161.936C80.7237 161.964 80.8203 162.107 80.7921 162.254C80.7674 162.384 80.6534 162.475 80.5252 162.475Z" fill="#E6E6E6"/>
<path d="M39.6227 134.669C39.5843 134.669 39.5452 134.661 39.508 134.643C39.3717 134.58 39.3126 134.418 39.3761 134.282L40.8916 131.034C40.9551 130.898 41.1168 130.838 41.2533 130.902C41.3896 130.965 41.4486 131.127 41.3852 131.263L39.8697 134.512C39.8235 134.61 39.7254 134.669 39.6227 134.669Z" fill="#E6E6E6"/>
<path d="M39.1207 143.35C38.9715 143.35 38.8499 143.23 38.8486 143.081C38.8474 142.931 38.9682 142.809 39.1185 142.807L47.9888 142.732C47.9896 142.732 47.9905 142.732 47.9912 142.732C48.1404 142.732 48.262 142.853 48.2633 143.002C48.2646 143.152 48.1438 143.274 47.9934 143.276L39.1231 143.35C39.1224 143.35 39.1214 143.35 39.1207 143.35Z" fill="#E6E6E6"/>
<path d="M19.9096 179.752C15.6247 176.119 11.8307 171.929 10.5049 167.12C9.17918 162.311 10.7663 156.793 15.6997 153.691C19.6366 151.215 25.1237 150.601 30.126 151.26C35.1282 151.919 39.7505 153.717 44.1623 155.655C61.4631 163.256 76.8826 173.406 89.3469 185.4C93.6686 189.558 99.0463 197.397 89.0454 198.961C81.2411 200.181 71.7791 199.447 64.0342 198.364C47.2698 196.018 31.4185 189.509 19.9096 179.752Z" fill="#F84923"/>
<path d="M90.324 194.525C90.3108 194.525 90.2973 194.524 90.2838 194.522C69.7066 191.483 53.3227 182.77 43.2021 175.996C32.2345 168.656 26.0468 161.94 25.9856 161.873C25.8843 161.762 25.8923 161.59 26.0033 161.489C26.1143 161.388 26.2866 161.396 26.3879 161.507C26.4487 161.573 32.6022 168.25 43.5201 175.555C53.5917 182.294 69.8942 190.961 90.3639 193.985C90.5125 194.007 90.6153 194.145 90.5933 194.293C90.5728 194.428 90.4566 194.525 90.324 194.525Z" fill="#E6E6E6"/>
<path d="M34.0389 169.144C33.8934 169.144 33.7727 169.03 33.767 168.883L33.6206 165.089C33.6147 164.939 33.7318 164.813 33.8821 164.807C34.0311 164.798 34.1588 164.918 34.1645 165.068L34.3109 168.862C34.3168 169.012 34.1995 169.138 34.0494 169.144C34.0461 169.144 34.0424 169.144 34.0389 169.144Z" fill="#E6E6E6"/>
<path d="M35.3768 177.582C35.2489 177.582 35.135 177.492 35.1097 177.362C35.0813 177.215 35.1779 177.072 35.3255 177.044L43.3088 175.508C43.4568 175.479 43.5991 175.576 43.6277 175.723C43.6561 175.871 43.5595 176.013 43.4119 176.042L35.4286 177.577C35.4113 177.581 35.3939 177.582 35.3768 177.582Z" fill="#E6E6E6"/>
<path d="M43.9301 187.176C43.7964 187.176 43.6798 187.078 43.6608 186.942C43.6402 186.794 43.744 186.657 43.8928 186.636L59.212 184.506C59.3606 184.486 59.4984 184.589 59.5193 184.737C59.5399 184.886 59.4361 185.023 59.2872 185.044L43.9681 187.174C43.9552 187.176 43.9426 187.176 43.9301 187.176Z" fill="#E6E6E6"/>
<path d="M235.015 112.396C235.515 109.487 235.619 105.979 233.166 104.05C230.524 101.971 226.602 103.064 223.774 104.701C217.658 108.24 213.124 113.722 209.132 119.358C203.62 127.141 198.895 135.439 195.031 144.107C193.399 147.769 184.654 163.66 190.682 166.308C196.427 168.831 205.654 160.411 209.205 157.35C215.616 151.826 221.079 145.324 225.373 138.167C230.128 130.239 233.451 121.494 235.015 112.396Z" fill="#F84923"/>
<path d="M225.42 143.725C231.78 139.942 239.286 136.87 246.451 138.731C256.461 141.331 261.918 153.821 258.4 163.527C254.882 173.233 244.195 179.281 233.854 179.04C227.7 178.896 221.616 176.858 215.492 177.489C209.175 178.14 203.236 181.793 199.814 187.132C199.107 188.234 198.322 189.289 197.487 190.296C196.683 191.267 195.781 192.281 194.586 192.773C193.635 193.165 192.562 193.255 191.559 193.029C190.675 192.829 189.864 192.397 189.076 191.952C188.452 191.6 187.815 191.219 187.403 190.634C186.865 189.872 186.862 188.967 187.177 188.125C187.486 187.301 187.729 186.452 188.078 185.637C188.82 183.902 189.744 182.249 190.707 180.628C191.418 179.433 192.171 178.262 192.861 177.053C200.65 163.406 211.885 151.777 225.42 143.725Z" fill="#F84923"/>
<path d="M184.71 176.698C184.67 176.698 184.628 176.687 184.592 176.663C184.491 176.597 184.462 176.463 184.528 176.362L227.471 110.533C227.537 110.432 227.672 110.404 227.773 110.469C227.873 110.535 227.902 110.67 227.836 110.77L184.893 176.599C184.851 176.663 184.781 176.698 184.71 176.698Z" fill="#E6E6E6"/>
<path d="M214.914 130.524C214.808 130.524 214.715 130.447 214.699 130.338C214.681 130.22 214.764 130.109 214.883 130.092L223.315 128.856C223.434 128.839 223.544 128.921 223.562 129.04C223.579 129.158 223.497 129.269 223.378 129.286L214.946 130.522C214.936 130.523 214.925 130.524 214.914 130.524Z" fill="#E6E6E6"/>
<path d="M220.192 122.171C220.102 122.171 220.018 122.115 219.986 122.026L218.41 117.547C218.37 117.433 218.43 117.309 218.543 117.27C218.657 117.23 218.781 117.29 218.821 117.403L220.398 121.882C220.437 121.995 220.378 122.119 220.264 122.159C220.24 122.167 220.216 122.171 220.192 122.171Z" fill="#E6E6E6"/>
<path d="M190.47 188.752C190.429 188.752 190.387 188.74 190.35 188.716C190.25 188.65 190.222 188.515 190.289 188.415C195.571 180.443 202.156 173.813 209.861 168.71C216.025 164.628 222.914 161.508 230.338 159.438C242.977 155.913 252.926 156.668 253.025 156.676C253.145 156.686 253.234 156.791 253.224 156.91C253.214 157.03 253.109 157.119 252.989 157.109C252.891 157.101 243.007 156.354 230.439 159.861C218.848 163.096 202.537 170.718 190.652 188.654C190.61 188.717 190.541 188.752 190.47 188.752Z" fill="#E6E6E6"/>
<path d="M237.084 158.23C237.062 158.23 237.039 158.227 237.018 158.22C236.903 158.184 236.84 158.061 236.876 157.947C236.935 157.761 238.349 153.368 240.256 150.86C240.329 150.764 240.465 150.746 240.561 150.818C240.657 150.891 240.676 151.027 240.603 151.123C238.742 153.57 237.306 158.034 237.291 158.079C237.262 158.171 237.176 158.23 237.084 158.23Z" fill="#E6E6E6"/>
<path d="M225.09 172.056C225.056 172.056 225.022 172.048 224.99 172.032C219.499 169.218 217.089 164.848 217.066 164.804C217.008 164.699 217.048 164.567 217.154 164.51C217.26 164.453 217.391 164.492 217.449 164.598C217.472 164.64 219.824 168.896 225.189 171.645C225.296 171.7 225.339 171.831 225.284 171.937C225.245 172.013 225.169 172.056 225.09 172.056Z" fill="#E6E6E6"/>
<path d="M204.399 20.3276H91.0025L75.3359 199.011H188.733L204.399 20.3276Z" fill="white"/>
<path d="M250.543 200H10.409C10.1268 200 9.89795 199.772 9.89795 199.49C9.89795 199.208 10.1268 198.98 10.409 198.98H250.543C250.825 198.98 251.054 199.208 251.054 199.49C251.054 199.772 250.825 200 250.543 200Z" fill="#2A38A5"/>
<g opacity="0.3">
<path d="M145.901 55.1602C147.712 53.4308 147.892 50.6867 146.304 49.0312C144.716 47.3757 141.961 47.4357 140.15 49.1651C138.339 50.8946 138.159 53.6387 139.747 55.2942C141.335 56.9497 144.091 56.8897 145.901 55.1602Z" fill="#141422"/>
</g>
<path d="M132.977 60.3203C134.787 58.5907 134.968 55.8466 133.38 54.1911C131.791 52.5356 129.036 52.5956 127.225 54.3252C125.415 56.0547 125.234 58.7988 126.822 60.4543C128.41 62.1098 131.166 62.0498 132.977 60.3203Z" fill="#141422"/>
<g opacity="0.9">
<path d="M126.717 72.7664C128.528 71.037 128.708 68.2929 127.12 66.6374C125.532 64.9819 122.777 65.0419 120.966 66.7713C119.156 68.5008 118.975 71.2449 120.563 72.9004C122.151 74.5559 124.907 74.4959 126.717 72.7664Z" fill="#141422"/>
</g>
<g opacity="0.8">
<path d="M130.794 85.2154C132.604 83.4859 132.785 80.7419 131.196 79.0864C129.608 77.4309 126.853 77.4908 125.042 79.2203C123.232 80.9498 123.051 83.6939 124.639 85.3494C126.228 87.0049 128.983 86.9449 130.794 85.2154Z" fill="#141422"/>
</g>
<g opacity="0.7">
<path d="M142.815 90.3685C144.626 88.639 144.806 85.8949 143.218 84.2394C141.63 82.5839 138.875 82.6439 137.064 84.3734C135.253 86.1029 135.073 88.8469 136.661 90.5024C138.249 92.1579 141.004 92.098 142.815 90.3685Z" fill="#141422"/>
</g>
<g opacity="0.6">
<path d="M155.743 85.2139C157.554 83.4845 157.734 80.7404 156.146 79.0849C154.558 77.4294 151.803 77.4894 149.992 79.2188C148.181 80.9483 148.001 83.6924 149.589 85.3479C151.177 87.0034 153.932 86.9434 155.743 85.2139Z" fill="#141422"/>
</g>
<g opacity="0.5">
<path d="M161.999 72.7618C163.81 71.0323 163.99 68.2882 162.402 66.6327C160.814 64.9772 158.059 65.0372 156.248 66.7667C154.437 68.4962 154.257 71.2402 155.845 72.8957C157.433 74.5513 160.188 74.4913 161.999 72.7618Z" fill="#141422"/>
</g>
<g opacity="0.4">
<path d="M157.926 60.3189C159.736 58.5895 159.917 55.8454 158.329 54.1899C156.74 52.5344 153.985 52.5943 152.175 54.3238C150.364 56.0533 150.183 58.7974 151.772 60.4529C153.36 62.1084 156.115 62.0484 157.926 60.3189Z" fill="#141422"/>
</g>
<path d="M111.828 115.683C111.527 115.094 111.409 114.425 111.475 113.677L112.143 106.052H114.31L113.648 113.611C113.591 114.26 113.717 114.764 114.028 115.122C114.338 115.479 114.792 115.658 115.387 115.658C115.983 115.658 116.47 115.479 116.849 115.122C117.227 114.764 117.445 114.26 117.502 113.611L118.165 106.052H120.348L119.68 113.677C119.614 114.425 119.376 115.094 118.966 115.683C118.556 116.271 118.026 116.728 117.374 117.053C116.723 117.377 116.005 117.539 115.222 117.539C114.45 117.539 113.767 117.377 113.172 117.053C112.578 116.728 112.13 116.271 111.828 115.683Z" fill="#141422"/>
<path d="M129.993 109.633C129.901 110.69 129.493 111.534 128.77 112.167C128.048 112.8 127.107 113.116 125.949 113.116H123.848L123.469 117.44H121.302L122.301 106.052H126.569C127.727 106.052 128.611 106.371 129.223 107.009C129.834 107.647 130.091 108.522 129.993 109.633ZM127.827 109.633C127.875 109.083 127.765 108.662 127.499 108.371C127.232 108.079 126.834 107.933 126.304 107.933H124.303L124.015 111.218H126.017C126.535 111.218 126.955 111.08 127.277 110.805C127.599 110.53 127.782 110.139 127.827 109.633Z" fill="#141422"/>
<path d="M135.701 106.052C136.969 106.052 137.939 106.404 138.61 107.108C139.282 107.812 139.547 108.967 139.407 110.574L139.202 112.902C139.062 114.508 138.585 115.666 137.773 116.376C136.961 117.086 135.915 117.441 134.636 117.441H130.682L131.68 106.052H135.701V106.052ZM136.371 114.915C136.734 114.486 136.956 113.809 137.037 112.885L137.23 110.69C137.315 109.721 137.216 109.02 136.934 108.585C136.652 108.151 136.181 107.933 135.519 107.933H133.683L133.014 115.559H134.85C135.501 115.559 136.008 115.344 136.371 114.915Z" fill="#141422"/>
<path d="M142.373 115.229L141.484 117.44H139.201L144.253 106.052H146.023L149.094 117.44H146.794L146.293 115.229H142.373ZM144.866 109.055L143.109 113.429H145.872L144.866 109.055Z" fill="#141422"/>
<path d="M154.163 107.933L153.329 117.44H151.145L151.979 107.933H149.067L149.232 106.052H157.239L157.074 107.933H154.163Z" fill="#141422"/>
<path d="M160.068 110.756H164.403L164.238 112.637H159.903L159.647 115.559H164.726L164.561 117.44H157.315L158.314 106.052H165.56L165.395 107.933H160.316L160.068 110.756Z" fill="#141422"/>
<path d="M183.483 147.036H90.9023L92.1134 133.224H184.694L183.483 147.036Z" fill="#EFF0FB"/>
<path d="M154.741 147.036H90.9023L92.1134 133.224H155.952L154.741 147.036Z" fill="#141422"/>
<path d="M26.6312 64.1777H32.6918C33.7018 64.1777 34.3728 63.3608 34.1902 62.3528L31.8292 49.315C31.6466 48.3071 30.6799 47.49 29.6697 47.49H23.6092C22.5992 47.49 21.9282 48.307 22.1108 49.315L24.4718 62.3528C24.6544 63.3606 25.6212 64.1777 26.6312 64.1777Z" fill="#141422"/>
<path opacity="0.3" d="M26.1181 51.295C26.2186 51.8505 26.7516 52.3008 27.3083 52.3008C27.8651 52.3008 28.2347 51.8505 28.1342 51.295C28.0337 50.7396 27.5009 50.2891 26.944 50.2891C26.3872 50.2891 26.0174 50.7394 26.1181 51.295Z" fill="#C1725B"/>
<path d="M74.2053 42.6043C73.9358 41.925 73.6212 41.2801 73.2742 40.689C73.0016 40.2243 72.7004 39.7763 72.3721 39.349C70.2933 36.6432 67.1386 34.7845 63.76 34.2747C61.9763 34.0056 60.0977 34.1115 58.4542 34.8537C56.4316 35.7671 54.8976 37.6157 54.1929 39.7163C53.6947 41.2017 53.5949 42.8027 53.8172 44.3489C53.9044 44.9558 53.9618 45.7916 54.386 46.26C54.8428 46.7644 55.3244 47.2503 55.9209 47.5913C56.4217 47.8777 57.0253 48.0998 57.6021 48.1475C58.2639 48.2022 58.9428 48.0704 59.6145 48.1264C60.9927 48.2412 62.3474 48.6566 63.5518 49.348C65.2597 50.3284 66.6047 51.856 67.2639 53.7214C67.407 54.1265 67.5293 54.5655 67.848 54.8542C68.1711 55.1469 68.6472 55.2256 69.0767 55.1487C69.5061 55.0718 69.898 54.8572 70.2647 54.6212C71.9964 53.5069 73.3519 51.8319 74.1188 49.9234C74.5904 48.7497 74.8403 47.4903 74.8717 46.227C74.8876 45.5873 74.8473 44.9463 74.7516 44.3135C74.6635 43.7318 74.4226 43.1524 74.2053 42.6043Z" fill="#141422"/>
<path d="M46.7354 108.607L46.9939 128.287C47.4421 140.91 47.9576 156.24 49.3173 168.799L51.8484 192.173L58.7535 193.462L60.1429 177.065C60.5369 172.415 60.6433 167.745 60.4617 163.081L60.0518 152.569L59.7396 122.819C59.7396 122.819 62.6998 135.885 64.3805 144.151C65.3539 148.938 66.6253 153.659 68.1918 158.287L79.6605 192.173H85.3162L79.1371 153.793C78.3359 150.091 78.4054 145.206 78.3556 141.276L76.9345 108.607H46.7354V108.607Z" fill="#141422"/>
<path d="M51.8487 192.39C51.7395 192.39 51.6452 192.308 51.6327 192.197C51.5999 191.91 48.3463 163.305 47.8243 152.761L46.5482 110.892C46.5445 110.772 46.639 110.672 46.7592 110.669C46.8784 110.664 46.9798 110.759 46.9835 110.879L48.2596 152.744C48.7809 163.27 52.0327 191.861 52.0656 192.148C52.0792 192.267 51.9933 192.375 51.8738 192.389C51.8653 192.39 51.857 192.39 51.8487 192.39Z" fill="#2A38A5"/>
<path d="M55.1472 73.965C51.4213 77.5024 48.0175 81.4224 44.587 85.2777C43.7255 86.1874 42.9214 87.0725 41.7147 87.7807C40.1743 88.6967 38.1772 88.6199 36.7916 87.4525C35.9961 86.8327 35.3209 85.7628 34.9205 84.9886C34.2576 83.7259 33.7384 82.4322 33.2138 81.1649C31.3473 76.5099 29.2423 71.379 27.1411 66.8563L31.5212 64.7197C34.3044 69.9605 36.8763 75.837 39.4548 81.184C39.7504 81.7402 40.1357 82.5178 40.4991 82.8859C40.0616 82.4602 39.26 82.3792 38.7126 82.6198C39.7263 81.6911 40.6725 80.4004 41.5917 79.2751C44.3272 75.8168 47.2155 72.3728 50.261 69.1596C50.2614 69.1598 55.1472 73.965 55.1472 73.965Z" fill="#DE6A44"/>
<path d="M57.3098 70.28C54.274 74.746 51.3802 79.2479 47.5958 83.1929C47.0683 83.7111 46.4868 84.2353 45.8847 84.6766C45.6129 84.8631 45.3355 85.044 45.0544 85.2183L41.0015 77.7205C41.0374 77.6953 41.0817 77.6876 41.1236 77.6751L41.1544 77.6543C41.2602 77.5792 41.369 77.5245 41.4773 77.4465C41.6374 77.3241 41.7907 77.2098 41.9528 77.0817C44.5202 74.8896 46.7885 72.1847 49.0127 69.581C49.9406 68.4784 50.8615 67.3596 51.7786 66.2307L57.3098 70.28Z" fill="#F84923"/>
<path d="M58.7538 193.462L51.8489 192.173L48.7396 195.477L40.1535 197.33L39.7498 199.184H59.198L58.7538 193.462Z" fill="#2A38A5"/>
<path d="M45.006 100.506C45.0386 99.6351 45.0842 98.7643 45.1258 97.8919C45.2739 94.8699 45.5139 91.8584 45.8479 88.8629C46.4566 83.2803 47.2676 77.4778 49.1496 72.2232C49.9766 69.9731 50.3686 67.5283 52.071 65.8275C52.8626 65.0492 54.2741 64.4689 55.4267 64.0557C55.591 63.9968 55.8659 63.9197 56.025 63.8586C56.6104 63.6341 57.1855 63.3751 57.7947 63.2029C59.9628 62.5915 62.332 62.5633 64.5836 63.0457C65.2305 63.1845 65.867 63.3665 66.486 63.5897C67.6007 63.9897 68.6561 64.5241 69.6087 65.1808C71.3864 66.4306 72.9073 68.1334 74.1075 70.1006C77.9807 76.8154 78.4291 86.1956 78.39 94.6664C78.3691 97.785 78.3029 100.907 78.1873 104.03C78.1366 105.387 78.2683 106.733 77.8409 108.059C77.4599 109.25 76.7859 110.331 75.9581 111.172C74.6309 112.531 72.9505 113.3 71.2698 113.696C68.9813 114.238 66.6464 114.134 64.3359 114.026C61.429 113.891 58.5192 113.757 55.6067 113.622C54.5556 113.573 53.5039 113.524 52.452 113.476C51.1512 113.416 49.8038 113.342 48.6123 112.655C46.745 111.585 45.5895 109.182 45.233 106.808C45.2241 106.75 45.2175 106.691 45.2096 106.633C44.9276 104.583 44.9314 102.545 45.006 100.506Z" fill="#F84923"/>
<path d="M55.9895 64.3313C55.9895 67.2644 58.3548 69.6424 61.2713 69.6424C64.1888 69.6424 66.5541 67.2644 66.5541 64.3313C66.5541 64.0799 66.537 63.8316 66.5027 63.59C65.8783 63.3667 65.2378 63.1845 64.5882 63.046C62.3311 62.5636 59.9631 62.5917 57.7911 63.2031C57.1795 63.3756 56.5832 63.5933 56.0103 63.8589C55.9967 64.0138 55.9895 64.1721 55.9895 64.3313Z" fill="white"/>
<path d="M64.8192 63.0458C64.4813 61.5817 64.4182 60.0728 64.473 58.7523C64.567 56.508 65.0023 54.8079 65.0023 54.8079L57.6208 56.8776C58.4464 59.1091 57.9657 61.261 57.5852 62.3888C57.4115 62.9021 57.2593 63.2024 57.2593 63.2024L64.8192 63.0458Z" fill="#DE6A44"/>
<path d="M57.1558 63.6902C57.1558 64.8656 58.9128 67.9958 61.0792 67.9958C63.2468 67.9958 65.0026 64.8656 65.0026 63.6902C65.0026 63.4656 64.9384 63.2488 64.8195 63.046C62.3094 62.5636 59.6756 62.5918 57.2594 63.2026C57.1915 63.3591 57.1558 63.5219 57.1558 63.6902Z" fill="#DE6A44"/>
<path d="M57.585 62.3888C57.8098 62.426 58.0394 62.444 58.275 62.444C60.4104 62.444 62.642 60.9196 64.4729 58.7523C64.567 56.508 65.0023 54.8079 65.0023 54.8079L57.6208 56.8776C58.4463 59.1091 57.9656 61.2608 57.585 62.3888Z" fill="#C1725B"/>
<path d="M54.4993 44.6802C52.8404 49.2997 52.7525 56.9069 57.258 58.5176C61.7635 60.1286 69.1567 55.1331 70.8154 50.5136C72.4742 45.8941 70.1665 40.8432 65.6609 39.2323C61.1554 37.6217 56.1582 40.0607 54.4993 44.6802Z" fill="#DE6A44"/>
<path d="M68.8167 51.0736C67.837 51.9024 67.5088 53.1228 68.0837 53.7995C68.6586 54.4762 69.9189 54.3531 70.8987 53.5245C71.8784 52.6958 72.2066 51.4754 71.6315 50.7987C71.0567 50.1219 69.7965 50.2451 68.8167 51.0736Z" fill="#DE6A44"/>
<path d="M67.3025 34.0504C69.8452 34.7984 72.0201 36.6013 73.38 38.8611C74.7399 41.121 75.0125 43.9117 74.8751 46.5403C74.8232 47.5327 74.6949 48.2442 74.3618 49.2517C73.9473 50.5048 72.0048 50.5764 70.6907 50.3953C68.5366 50.0985 66.6809 48.6959 65.2797 47.0452C63.8785 45.3945 62.8395 43.4769 61.6069 41.6987C60.8891 40.6629 60.105 39.6742 59.2992 38.7049C58.896 38.2199 58.4871 37.7396 58.0775 37.2598C57.7691 36.8985 57.3959 36.5286 57.4037 36.0199C57.4199 34.9521 58.8032 34.6317 59.6079 34.3869C60.7804 34.0304 61.9873 33.7703 63.2108 33.6717C64.584 33.5616 65.9784 33.6608 67.3025 34.0504Z" fill="#141422"/>
<path d="M66.5029 63.5898C75.2189 65.897 78.2262 66.6473 82.098 79.3631L73.8656 81.6511L66.5029 63.5898Z" fill="#F84923"/>
<path d="M73.6523 81.9799C73.5591 81.9799 73.473 81.9199 73.4442 81.8264L70.9884 73.8503C70.9532 73.7357 71.0177 73.614 71.1326 73.5789C71.2473 73.5439 71.3692 73.6081 71.4047 73.7228L73.8605 81.6989C73.8957 81.8135 73.8312 81.9352 73.7163 81.9703C73.6951 81.9768 73.6735 81.9799 73.6523 81.9799Z" fill="#D7D7D7"/>
<path d="M45.4932 96.7912C45.4899 96.7912 45.4868 96.7912 45.4835 96.791C45.3634 96.7856 45.2703 96.6842 45.2756 96.5644C45.8859 82.7881 48.2427 75.1096 50.1126 71.0938C52.159 66.6988 54.057 65.6017 54.1369 65.5572C54.2417 65.4987 54.3744 65.536 54.4331 65.6408C54.4916 65.7451 54.4545 65.8773 54.3501 65.936C54.3315 65.9466 52.4635 67.0439 50.4741 71.3489C48.6346 75.3293 46.3149 82.9386 45.7105 96.5837C45.7053 96.7002 45.6091 96.7912 45.4932 96.7912Z" fill="#D7D7D7"/>
<path d="M85.3164 192.173H79.6607L79.2256 195.168L78.2683 195.906L77.4854 199.184H88.2748L86.926 195.678L86.0342 195.06L85.3164 192.173Z" fill="#2A38A5"/>
<path d="M45.1445 85.1412C45.1281 85.1412 45.1115 85.1394 45.0952 85.1357C45.0346 85.1215 44.9831 85.0823 44.9532 85.028L41.0805 77.9287C41.0294 77.8351 41.0539 77.7184 41.1382 77.6532C45.4505 74.3187 50.7649 67.5073 50.8183 67.4388C50.8917 67.3441 51.0285 67.3268 51.1237 67.4004C51.2187 67.4738 51.2358 67.6104 51.1622 67.7052C51.1093 67.7733 45.8793 74.4763 41.551 77.8827L45.2184 84.6058L45.7529 84.2285C45.8509 84.1593 45.987 84.1825 46.0565 84.2804C46.1261 84.3784 46.1026 84.514 46.0045 84.5834L45.2701 85.1016C45.2332 85.1276 45.1891 85.1412 45.1445 85.1412Z" fill="#D7D7D7"/>
<path d="M68.7657 52.3952C68.7412 52.4445 68.7163 52.4936 68.6911 52.5426C68.4612 52.985 68.1755 53.4175 67.758 53.6907C67.3406 53.9638 66.766 54.0446 66.3438 53.7784C65.8851 53.4895 65.7273 52.8855 65.7603 52.3449C65.7931 51.8044 65.975 51.2828 66.029 50.7439C66.1218 49.821 65.8324 48.8912 65.375 48.0836C65.008 47.4358 64.5361 46.8551 64.0457 46.2973C63.6042 45.7948 62.9983 45.4069 62.4309 45.0489C61.688 44.5802 60.9001 44.1878 60.1036 43.8193C58.708 43.1735 57.2743 42.5917 55.9755 41.7685C55.4972 41.4654 55.0284 41.1194 54.7198 40.6449C54.4113 40.1705 54.2886 39.542 54.5332 39.032C54.836 38.4005 55.5885 38.1256 56.2837 38.0359C58.0798 37.8042 59.9039 38.4154 61.4374 39.3787C62.9708 40.342 64.2591 41.6412 65.5327 42.9282C66.8428 44.2524 68.153 45.5766 69.4631 46.9006C70.0207 47.4641 70.7575 48.0269 71.1766 48.7053C71.5403 49.294 71.0975 49.7054 70.6869 50.0967C70.6083 50.1716 70.5454 50.2711 70.4591 50.3365C70.3455 50.4224 70.1937 50.46 70.0718 50.5363C69.7966 50.7092 69.5705 50.9538 69.3888 51.2208C69.1391 51.5874 68.9633 51.9976 68.7657 52.3952Z" fill="#141422"/>
<path d="M61.0478 56.7094C60.5495 56.7917 60.0122 56.8066 59.5668 56.5686C58.952 56.2401 58.6722 55.5315 58.3004 54.943C57.5385 53.7368 56.2074 52.9062 54.787 52.7507C54.2348 52.6901 53.6086 52.7562 53.2426 53.1732C52.9557 53.5003 52.8979 53.9674 52.9072 54.4019C52.9345 55.6845 53.4507 56.9507 54.3284 57.8882C55.2062 58.8255 56.4372 59.4255 57.7177 59.5396C59.2573 59.6769 60.7824 59.1349 62.1469 58.4105C64.3941 57.2179 66.3614 55.5041 67.8487 53.443C68.0018 53.2308 68.1564 52.9936 68.1424 52.7326C68.1202 52.3202 67.666 52.0404 67.2524 52.0537C66.873 52.066 66.2526 52.2806 65.9781 52.5664C65.6489 52.9095 65.5137 53.5183 65.2496 53.9234C64.6487 54.8447 63.8032 55.6072 62.8255 56.1135C62.2687 56.4021 61.6676 56.6073 61.0478 56.7094Z" fill="#141422"/>
<path d="M55.7579 54.2398C55.4912 54.1124 55.204 54.0399 54.9126 53.9841C54.9489 54.842 55.2202 56.3793 56.7898 55.2196C56.5584 54.7972 56.1933 54.4479 55.7579 54.2398Z" fill="white"/>
<path d="M82.1082 79.2954C82.8744 82.7344 83.7615 85.9107 84.5506 89.4358C84.9735 91.4908 85.3966 93.685 84.7251 95.8319C83.704 99.0983 80.5506 100.279 77.5418 100.942C70.6684 102.332 63.9419 103.323 57.1555 104.985L55.9895 101.008C60.92 99.272 65.956 97.7264 70.9794 96.2896C73.0302 95.6824 74.9901 95.1667 76.874 94.4212C77.2917 94.2371 78.0142 93.9579 78.2375 93.6418C78.2355 93.6388 78.2405 93.6355 78.2348 93.6355C78.2274 93.6359 78.2207 93.6375 78.2154 93.6403C78.1547 93.6607 78.0378 93.8247 78.0057 93.8722C77.997 93.8841 77.9974 93.8943 77.9826 93.8921C77.9802 93.9005 77.9712 93.877 77.9688 93.8648C77.919 93.5024 77.7904 92.8927 77.6475 92.4232C76.5508 88.8846 75.0379 85.2439 73.8399 81.6493L82.1082 79.2954Z" fill="#DE6A44"/>
<path d="M57.1003 100.622C50.7068 101.407 47.5502 105.762 51.9844 108.369C56.4185 110.976 58.1032 104.803 58.1032 104.803L57.1003 100.622Z" fill="#DE6A44"/>
<path d="M31.6308 64.98C31.6308 64.98 31.5514 64.6198 31.0558 63.9864C30.3112 63.0347 29.2082 62.2972 29.0596 61.2033C28.9109 60.1095 31.6369 56.9454 30.1786 55.4718C28.7202 53.9982 27.7851 53.2892 26.6471 54.1741C25.5091 55.0592 23.7292 56.0847 23.419 58.1964C23.2128 59.5995 23.4586 62.0898 24.6073 63.0833C25.7558 64.0767 26.4652 65.2886 26.6378 65.7874C26.8105 66.2862 27.1506 66.8834 27.1506 66.8834L31.6308 64.98Z" fill="#DE6A44"/>
<path d="M79.3515 191.477C79.2598 191.477 79.1746 191.419 79.1446 191.327L65.2122 148.844C65.2098 148.836 65.208 148.829 65.2063 148.822L58.5095 117.488C58.4844 117.371 58.5594 117.256 58.6769 117.231C58.7942 117.205 58.9101 117.28 58.9352 117.398L65.6296 148.72L79.5584 191.192C79.5959 191.306 79.5335 191.429 79.4192 191.466C79.3967 191.474 79.3738 191.477 79.3515 191.477Z" fill="#2A38A5"/>
<path d="M220.657 199.011H179.103C177.38 199.011 175.983 197.617 175.983 195.898V189.873C175.983 188.153 177.38 186.759 179.103 186.759H220.657C222.38 186.759 223.777 188.153 223.777 189.873V195.898C223.777 197.617 222.38 199.011 220.657 199.011Z" fill="#F6AF23"/>
<path d="M205.044 149.43C203.347 144.538 196.413 144.538 194.716 149.43L193.476 153.003H206.284L205.044 149.43Z" fill="#F6AF23"/>
<path d="M184.694 178.32L181.767 186.759H217.994L215.066 178.32H184.694Z" fill="#F6AF23"/>
<path d="M184.695 178.32H215.066L212.139 169.881H187.622L184.695 178.32Z" fill="white"/>
<path d="M187.622 169.881H212.139L209.211 161.442H190.549L187.622 169.881Z" fill="#F6AF23"/>
<path d="M209.211 161.442L206.284 153.003H193.477L190.549 161.442H209.211Z" fill="white"/>
<path opacity="0.3" d="M220.657 186.759H217.994L215.066 178.32L212.139 169.881L209.211 161.442L206.284 153.003L205.045 149.43C203.671 145.468 198.864 144.716 196.183 147.169L208.725 185.28H182.28L181.767 186.759H209.212L214.403 186.652L218.405 199.011H220.658C222.381 199.011 223.778 197.617 223.778 195.897V189.872C223.778 188.153 222.381 186.759 220.657 186.759Z" fill="#C1725B"/>
<path d="M194.069 141.905L193.414 141.848L204.04 20.6556H91.3034L90.5077 29.7293L89.8533 29.672L90.7013 20H204.758L204.726 20.3563L194.069 141.905Z" fill="#141422"/>
<path d="M139.868 167.942H102.868C102.062 167.942 101.408 167.29 101.408 166.485C101.408 165.68 102.062 165.028 102.868 165.028H139.868C140.674 165.028 141.328 165.68 141.328 166.485C141.328 167.29 140.674 167.942 139.868 167.942Z" fill="#EFF0FB"/>
<path d="M164.654 167.942H146.387C145.581 167.942 144.927 167.29 144.927 166.485C144.927 165.68 145.581 165.028 146.387 165.028H164.654C165.46 165.028 166.114 165.68 166.114 166.485C166.114 167.29 165.46 167.942 164.654 167.942Z" fill="#EFF0FB"/>
<path d="M151.946 175.558H111.442C110.635 175.558 109.981 174.906 109.981 174.101C109.981 173.296 110.635 172.644 111.442 172.644H151.946C152.752 172.644 153.406 173.296 153.406 174.101C153.406 174.906 152.752 175.558 151.946 175.558Z" fill="#EFF0FB"/>
<path d="M198.328 29.3711C199.286 28.4555 199.382 27.0028 198.541 26.1264C197.7 25.2499 196.241 25.2817 195.283 26.1972C194.324 27.1128 194.229 28.5655 195.07 29.4419C195.91 30.3183 197.369 30.2866 198.328 29.3711Z" fill="#EFF0FB"/>
<path d="M187.352 27.7995C187.241 29.067 188.18 30.0943 189.451 30.0943C190.721 30.0943 191.841 29.067 191.952 27.7995C192.063 26.532 191.123 25.5046 189.853 25.5046C188.583 25.5046 187.463 26.532 187.352 27.7995Z" fill="#EFF0FB"/>
<path d="M184.023 29.3791C184.981 28.4636 185.077 27.0109 184.236 26.1345C183.396 25.2582 181.937 25.29 180.978 26.2055C180.02 27.1211 179.924 28.5737 180.765 29.4501C181.606 30.3264 183.064 30.2947 184.023 29.3791Z" fill="#EFF0FB"/>
<path d="M227.988 26.2543C227.848 26.2374 227.723 26.3364 227.707 26.4748L227.536 27.8853C227.519 28.0237 227.618 28.1496 227.757 28.1664C227.767 28.1676 227.777 28.1682 227.788 28.1682C227.914 28.1682 228.023 28.0741 228.039 27.9459L228.209 26.5354C228.226 26.3968 228.127 26.2711 227.988 26.2543Z" fill="#7991E9"/>
<path d="M227.55 29.8779C227.41 29.8597 227.285 29.96 227.268 30.0982L227.098 31.5087C227.081 31.6471 227.18 31.7728 227.319 31.7895C227.329 31.7908 227.339 31.7914 227.349 31.7914C227.475 31.7914 227.585 31.6973 227.6 31.5692L227.771 30.1587C227.788 30.0203 227.689 29.8946 227.55 29.8779Z" fill="#7991E9"/>
<path d="M230.176 28.7693H228.762C228.623 28.7693 228.509 28.8823 228.509 29.0216C228.509 29.1611 228.623 29.2741 228.762 29.2741H230.176C230.316 29.2741 230.429 29.1611 230.429 29.0216C230.429 28.8823 230.316 28.7693 230.176 28.7693Z" fill="#7991E9"/>
<path d="M226.545 28.7693H225.131C224.991 28.7693 224.878 28.8823 224.878 29.0216C224.878 29.1611 224.991 29.2741 225.131 29.2741H226.545C226.685 29.2741 226.798 29.1611 226.798 29.0216C226.798 28.8823 226.685 28.7693 226.545 28.7693Z" fill="#7991E9"/>
<path d="M3.11036 102.798C2.97055 102.781 2.84551 102.88 2.82872 103.019L2.6581 104.429C2.64132 104.567 2.74036 104.693 2.87906 104.71C2.88939 104.711 2.89954 104.712 2.90968 104.712C3.03603 104.712 3.14521 104.618 3.1607 104.49L3.33132 103.079C3.3481 102.941 3.24906 102.815 3.11036 102.798Z" fill="#7991E9"/>
<path d="M2.67182 106.422C2.53164 106.404 2.40678 106.504 2.39018 106.642L2.21938 108.053C2.2026 108.191 2.30164 108.317 2.44034 108.334C2.45067 108.335 2.46082 108.336 2.47096 108.336C2.59731 108.336 2.70649 108.242 2.72198 108.113L2.89278 106.703C2.90956 106.565 2.81052 106.439 2.67182 106.422Z" fill="#7991E9"/>
<path d="M5.29845 105.313H3.88488C3.74507 105.313 3.63184 105.426 3.63184 105.566C3.63184 105.705 3.74507 105.818 3.88488 105.818H5.29845C5.43825 105.818 5.55149 105.705 5.55149 105.566C5.55131 105.426 5.43825 105.313 5.29845 105.313Z" fill="#7991E9"/>
<path d="M1.66661 105.313H0.253066C0.11326 105.313 0 105.426 0 105.566C0 105.705 0.11326 105.818 0.253066 105.818H1.66661C1.80642 105.818 1.91968 105.705 1.91968 105.566C1.91968 105.426 1.80642 105.313 1.66661 105.313Z" fill="#7991E9"/>
<path d="M246.716 123.695C246.576 123.678 246.451 123.777 246.434 123.915L246.264 125.326C246.247 125.464 246.346 125.59 246.485 125.607C246.495 125.608 246.505 125.609 246.515 125.609C246.642 125.609 246.751 125.515 246.766 125.387L246.937 123.976C246.954 123.838 246.855 123.712 246.716 123.695Z" fill="#7991E9"/>
<path d="M246.278 127.319C246.137 127.301 246.013 127.401 245.996 127.539L245.825 128.95C245.809 129.088 245.908 129.214 246.046 129.23C246.056 129.232 246.067 129.232 246.077 129.232C246.203 129.232 246.312 129.138 246.328 129.01L246.499 127.6C246.515 127.461 246.416 127.335 246.278 127.319Z" fill="#7991E9"/>
<path d="M248.904 126.21H247.49C247.35 126.21 247.237 126.323 247.237 126.463C247.237 126.602 247.35 126.715 247.49 126.715H248.904C249.043 126.715 249.157 126.602 249.157 126.463C249.157 126.323 249.043 126.21 248.904 126.21Z" fill="#7991E9"/>
<path d="M245.272 126.21H243.858C243.719 126.21 243.605 126.323 243.605 126.463C243.605 126.602 243.719 126.715 243.858 126.715H245.272C245.412 126.715 245.525 126.602 245.525 126.463C245.525 126.323 245.412 126.21 245.272 126.21Z" fill="#7991E9"/>
</svg>
