<svg width="266" height="220" viewBox="0 0 266 220" fill="none" xmlns="http://www.w3.org/2000/svg">
<ellipse opacity="0.05" cx="132.822" cy="110" rx="109.822" ry="110" fill="#3600D0"/>
<path d="M220.914 153.14C214.941 138.513 208.144 135.774 208.144 135.774C208.144 135.774 208.356 135.488 208.7 134.976C211.469 136.176 213.86 138.39 215.371 140.908C215.492 141.11 215.808 140.926 215.686 140.723C214.149 138.161 211.72 135.899 208.906 134.663C209.052 134.44 209.214 134.186 209.388 133.905C211.498 134.332 213.548 135.145 215.458 136.088C215.668 136.191 215.853 135.876 215.642 135.772C213.73 134.828 211.692 134.017 209.59 133.577C213.287 127.484 221.233 110.699 197.967 108.779C199.415 107.194 201.431 106.197 203.428 105.484C203.647 105.406 203.553 105.052 203.33 105.132C201.332 105.845 199.346 106.816 197.859 108.363C198.082 107.333 198.423 106.322 198.813 105.355C198.9 105.137 198.548 105.042 198.461 105.258C198.034 106.319 197.667 107.425 197.445 108.555C197.083 108.213 196.253 107.456 195.067 106.51C194.432 105.56 193.705 104.674 192.944 103.888C188.979 99.7891 183.412 98.4168 177.856 98.9577C177.767 98.9666 177.713 99.025 177.691 99.0937C174.348 99.0656 170.944 100.04 167.792 102.681C163.898 105.943 163.343 110.945 164.337 115.755C164.397 116.518 164.534 117.258 164.614 117.75C165.198 121.351 166.764 124.735 168.681 127.832C166.302 128.235 162.01 129.673 162.902 134.794C164.125 141.804 169.878 150.64 163.061 151.56C156.243 152.48 152.959 168.131 177.099 182.744C201.239 197.357 224.192 183.52 214.67 171.944C214.67 171.943 226.888 167.768 220.914 153.14ZM165.23 118.969C166.472 122.548 168.397 125.749 170.176 127.675C170.176 127.675 169.737 127.681 169.074 127.772C167.374 125.042 165.959 122.104 165.23 118.969ZM192.827 104.294C193.248 104.739 193.658 105.218 194.047 105.72C190.685 103.192 185.343 99.8992 179.634 99.2186C184.56 99.1114 189.338 100.599 192.827 104.294Z" fill="#141422"/>
<mask id="mask0_2717_10131" style="mask-type:luminance" maskUnits="userSpaceOnUse" x="158" y="98" width="65" height="92">
<path d="M220.914 153.14C214.941 138.513 208.144 135.774 208.144 135.774C208.144 135.774 208.356 135.488 208.7 134.976C211.469 136.176 213.86 138.39 215.371 140.908C215.492 141.11 215.808 140.926 215.686 140.723C214.149 138.161 211.72 135.899 208.906 134.663C209.052 134.44 209.214 134.186 209.388 133.905C211.498 134.332 213.548 135.145 215.458 136.088C215.668 136.191 215.853 135.876 215.642 135.772C213.73 134.828 211.692 134.017 209.59 133.577C213.287 127.484 221.233 110.699 197.967 108.779C199.415 107.194 201.431 106.197 203.428 105.484C203.647 105.406 203.553 105.052 203.33 105.132C201.332 105.845 199.346 106.816 197.859 108.363C198.082 107.333 198.423 106.322 198.813 105.355C198.9 105.137 198.548 105.042 198.461 105.258C198.034 106.319 197.667 107.425 197.445 108.555C197.083 108.213 196.253 107.456 195.067 106.51C194.432 105.56 193.705 104.674 192.944 103.888C188.979 99.7891 183.412 98.4168 177.856 98.9577C177.767 98.9666 177.713 99.025 177.691 99.0937C174.348 99.0656 170.944 100.04 167.792 102.681C163.898 105.943 163.343 110.945 164.337 115.755C164.397 116.518 164.534 117.258 164.614 117.75C165.198 121.351 166.764 124.735 168.681 127.832C166.302 128.235 162.01 129.673 162.902 134.794C164.125 141.804 169.878 150.64 163.061 151.56C156.243 152.48 152.959 168.131 177.099 182.744C201.239 197.357 224.192 183.52 214.67 171.944C214.67 171.943 226.888 167.768 220.914 153.14ZM165.23 118.969C166.472 122.548 168.397 125.749 170.176 127.675C170.176 127.675 169.737 127.681 169.074 127.772C167.374 125.042 165.959 122.104 165.23 118.969ZM192.827 104.294C193.248 104.739 193.658 105.218 194.047 105.72C190.685 103.192 185.343 99.8992 179.634 99.2186C184.56 99.1114 189.338 100.599 192.827 104.294Z" fill="white"/>
</mask>
<g mask="url(#mask0_2717_10131)">
<path opacity="0.4" d="M197.816 128.401C197.816 128.401 195.182 129.744 194.594 130.952C194.005 132.16 195.221 139.718 195.221 139.718L210.543 151.909C210.543 151.909 214.678 183.606 204.463 192.14C194.248 200.674 156.55 162.15 156.55 162.15L167.252 148.496L177.223 145.326L178.926 138.012C178.926 138.012 168.228 132.933 176.861 115.479L197.816 128.401Z" fill="#507CC7"/>
</g>
<mask id="mask1_2717_10131" style="mask-type:luminance" maskUnits="userSpaceOnUse" x="158" y="98" width="65" height="92">
<path d="M220.914 153.14C214.941 138.513 208.144 135.774 208.144 135.774C208.144 135.774 208.356 135.488 208.7 134.976C211.469 136.176 213.86 138.39 215.371 140.908C215.492 141.11 215.808 140.926 215.686 140.723C214.149 138.161 211.72 135.899 208.906 134.663C209.052 134.44 209.214 134.186 209.388 133.905C211.498 134.332 213.548 135.145 215.458 136.088C215.668 136.191 215.853 135.876 215.642 135.772C213.73 134.828 211.692 134.017 209.59 133.577C213.287 127.484 221.233 110.699 197.967 108.779C199.415 107.194 201.431 106.197 203.428 105.484C203.647 105.406 203.553 105.052 203.33 105.132C201.332 105.845 199.346 106.816 197.859 108.363C198.082 107.333 198.423 106.322 198.813 105.355C198.9 105.137 198.548 105.042 198.461 105.258C198.034 106.319 197.667 107.425 197.445 108.555C197.083 108.213 196.253 107.456 195.067 106.51C194.432 105.56 193.705 104.674 192.944 103.888C188.979 99.7891 183.412 98.4168 177.856 98.9577C177.767 98.9666 177.713 99.025 177.691 99.0937C174.348 99.0656 170.944 100.04 167.792 102.681C163.898 105.943 163.343 110.945 164.337 115.755C164.397 116.518 164.534 117.258 164.614 117.75C165.198 121.351 166.764 124.735 168.681 127.832C166.302 128.235 162.01 129.673 162.902 134.794C164.125 141.804 169.878 150.64 163.061 151.56C156.243 152.48 152.959 168.131 177.099 182.744C201.239 197.357 224.192 183.52 214.67 171.944C214.67 171.943 226.888 167.768 220.914 153.14ZM165.23 118.969C166.472 122.548 168.397 125.749 170.176 127.675C170.176 127.675 169.737 127.681 169.074 127.772C167.374 125.042 165.959 122.104 165.23 118.969ZM192.827 104.294C193.248 104.739 193.658 105.218 194.047 105.72C190.685 103.192 185.343 99.8992 179.634 99.2186C184.56 99.1114 189.338 100.599 192.827 104.294Z" fill="white"/>
</mask>
<g mask="url(#mask1_2717_10131)">
<path opacity="0.5" d="M178.44 112.647L173.088 111.678C173.088 111.678 175.034 114.604 180.384 113.386C185.736 112.166 178.44 112.647 178.44 112.647Z" fill="#141422"/>
</g>
<path d="M177.953 149.228L175.764 145.327C175.764 145.327 169.413 145.956 167.105 148.656C164.798 151.355 150.159 178.204 150.159 178.204C150.159 178.204 143.819 181.222 138.601 183.795C139.901 184.609 141.396 186.1 142.248 188.996C146.827 187.337 152.82 184.806 154.985 183.249C154.985 183.249 169.118 172.403 170.656 165.076C172.195 157.75 177.953 149.228 177.953 149.228Z" fill="#E2B187"/>
<mask id="mask2_2717_10131" style="mask-type:luminance" maskUnits="userSpaceOnUse" x="138" y="145" width="40" height="44">
<path d="M177.953 149.228L175.764 145.327C175.764 145.327 169.413 145.956 167.105 148.656C164.798 151.355 150.159 178.204 150.159 178.204C150.159 178.204 143.819 181.222 138.601 183.795C139.901 184.609 141.396 186.1 142.248 188.996C146.827 187.337 152.82 184.806 154.985 183.249C154.985 183.249 169.118 172.403 170.656 165.076C172.195 157.75 177.953 149.228 177.953 149.228Z" fill="white"/>
</mask>
<g mask="url(#mask2_2717_10131)">
<path opacity="0.31" d="M164.09 176.292C164.09 176.292 158.253 171.66 167.252 159.712C175.454 148.821 174.062 163.125 174.062 163.125L168.071 176.206L164.09 176.292Z" fill="#E2B187"/>
</g>
<path d="M138.601 183.795C132.08 187.01 124.652 190.674 124.225 190.889C123.455 191.274 117.302 189.346 116.532 189.732C115.763 190.118 111.532 192.432 109.994 192.817C108.456 193.202 113.84 193.973 116.148 192.817C118.456 191.66 119.225 193.973 121.148 194.359C123.071 194.745 124.225 195.13 125.379 194.359C125.379 194.359 134.254 191.891 142.247 188.995C141.396 186.099 139.902 184.609 138.601 183.795Z" fill="#E2B187"/>
<path d="M181.919 135.749C181.919 135.749 183.073 139.991 178.073 145.003L175.38 150.016L181.15 156.571L186.919 158.499L199.228 144.232L193.843 140.762L192.305 124.952L181.919 135.749Z" fill="#EDBA8F"/>
<mask id="mask3_2717_10131" style="mask-type:luminance" maskUnits="userSpaceOnUse" x="175" y="124" width="25" height="35">
<path d="M181.919 135.749C181.919 135.749 183.073 139.991 178.073 145.003L175.38 150.016L181.15 156.571L186.919 158.499L199.228 144.232L193.843 140.762L192.305 124.952L181.919 135.749Z" fill="white"/>
</mask>
<g mask="url(#mask3_2717_10131)">
<path opacity="0.28" d="M181.114 138.5C181.114 138.5 191.816 138.012 192.059 131.429C192.302 124.846 179.898 135.817 181.114 138.5Z" fill="#AF703F"/>
</g>
<path d="M180.02 142.685C180.02 142.685 182.304 149.245 193.842 140.762C193.842 140.762 201.034 144.608 203.003 145.814C207.381 148.496 208.311 148.048 209.466 152.29L199.228 186.262L202.689 199.758L165.751 199.82L169.029 184.817C169.383 181.032 167.914 177.428 165.234 174.829C159.955 169.71 167.035 161.238 172.601 145.815C173.062 144.539 180.02 142.685 180.02 142.685Z" fill="#F84923"/>
<mask id="mask4_2717_10131" style="mask-type:luminance" maskUnits="userSpaceOnUse" x="163" y="140" width="47" height="60">
<path d="M180.02 142.685C180.02 142.685 182.304 149.245 193.842 140.762C193.842 140.762 201.034 144.608 203.003 145.814C207.381 148.496 208.311 148.048 209.466 152.29L199.228 186.262L202.689 199.758L165.751 199.82L169.029 184.817C169.383 181.032 167.914 177.428 165.234 174.829C159.955 169.71 167.035 161.238 172.601 145.815C173.062 144.539 180.02 142.685 180.02 142.685Z" fill="white"/>
</mask>
<g mask="url(#mask4_2717_10131)">
<path opacity="0.31" d="M198.869 158.493C198.869 158.493 192.302 167.027 193.032 183.364C193.032 183.364 172.776 190.354 164.176 189.907C155.577 189.459 165.306 195.799 165.306 195.799C165.306 195.799 189.627 197.653 200.815 189.899C212.003 182.144 198.869 158.493 198.869 158.493Z" fill="#A172AE"/>
</g>
<path d="M166.057 190.709L156.535 186.647L152.562 183.656C152.312 183.467 151.999 183.379 151.687 183.407L147.103 183.825C146.917 183.842 146.741 183.911 146.592 184.024C145.79 184.633 143.188 186.647 143.841 186.647C144.611 186.647 146.149 186.261 147.303 185.491C147.303 185.491 150.764 185.491 151.149 185.105C151.149 185.105 152.688 186.647 153.457 187.033C154.227 187.419 153.842 187.033 153.842 187.033L148.692 188.602C148.427 188.683 148.197 188.851 148.04 189.081C147.392 190.024 145.619 192.577 144.996 193.203C144.996 193.203 146.919 193.975 148.457 191.661C149.996 189.347 154.227 189.347 154.611 189.733C154.611 189.733 149.227 192.818 147.688 195.903C147.688 195.903 148.416 197.798 149.612 196.289C151.93 193.361 154.973 192.448 156.151 192.047L153.959 194.557C153.683 194.873 153.717 195.355 154.036 195.628L156.15 197.445C156.15 197.445 156.535 195.903 155.765 195.131L157.688 193.203C157.688 193.203 159.811 197.444 166.057 194.938V190.709Z" fill="#EDBA8F"/>
<path d="M182.838 187.676C174.628 189.394 165.405 190.811 165.405 190.811L165.571 194.928C173.993 195.112 180.774 194.59 186.095 193.799C185.915 190.648 184.35 188.767 182.838 187.676Z" fill="#EDBA8F"/>
<path d="M207.868 148.74C202.898 146.579 198.696 158.459 198.696 158.459C193.312 169.641 194.613 184.334 194.613 184.334C192.824 185.38 188.034 186.588 182.838 187.675C184.35 188.766 185.915 190.648 186.095 193.799C197.176 192.153 201.92 189.347 201.92 189.347C206.536 182.406 212.839 150.901 207.868 148.74Z" fill="#EDBA8F"/>
<path d="M184.033 106.558C184.033 106.558 173.332 114.604 174.742 126.983C175.386 132.64 176.662 134.41 178.926 136.061C181.602 138.012 190.517 136.797 192.845 132.294L194.075 128.64C194.075 128.64 196.256 130.599 198.457 127.681C200.657 124.763 200.187 120.127 197.017 122.31L198.984 116.465L197.058 111.336L184.033 106.558Z" fill="#EDBA8F"/>
<mask id="mask5_2717_10131" style="mask-type:luminance" maskUnits="userSpaceOnUse" x="174" y="106" width="26" height="31">
<path d="M184.033 106.558C184.033 106.558 173.332 114.604 174.742 126.983C175.386 132.64 176.662 134.41 178.926 136.061C181.602 138.012 190.517 136.797 192.845 132.294L194.075 128.64C194.075 128.64 196.256 130.599 198.457 127.681C200.657 124.763 200.187 120.127 197.017 122.31L198.984 116.465L197.058 111.336L184.033 106.558Z" fill="white"/>
</mask>
<g mask="url(#mask5_2717_10131)">
<path opacity="0.28" d="M176.364 113.198C176.364 113.198 180.385 114.848 184.033 107.777C184.033 107.777 185.006 119.237 192.545 118.993L190.356 117.042C190.356 117.042 191.222 125.088 196.261 122.163C201.3 119.237 185.978 103.876 185.978 103.876L175.749 107.533L176.364 113.198Z" fill="#AF703F"/>
</g>
<path d="M198.869 111.922L191.086 108.021L180.141 105.339C180.141 105.339 166.765 109.972 172.845 112.653C178.181 115.007 182.766 109.663 183.81 108.318C183.702 109.976 183.85 112.586 185.378 114.816C186.689 116.729 188.759 118.018 191.542 118.667C191.409 122.454 195.95 123.138 195.95 123.138L197.896 121.675L201.788 120.455L198.869 111.922ZM185.58 114.68C184.675 113.36 184.267 111.902 184.11 110.597C185.295 115.115 191.573 118.262 191.573 118.262C191.567 118.317 191.565 118.369 191.561 118.422C188.857 117.785 186.849 116.532 185.58 114.68Z" fill="#141422"/>
<path d="M191.573 103.986C191.573 103.986 194.491 102.657 197.41 108.508C197.41 108.508 201.058 117.042 197.41 124.845H196.68C196.68 124.845 198.14 110.436 191.573 103.986Z" fill="#43464A"/>
<path d="M197.41 128.99C199.29 128.99 200.815 127.461 200.815 125.576C200.815 123.691 199.29 122.163 197.41 122.163C195.53 122.163 194.005 123.691 194.005 125.576C194.005 127.461 195.53 128.99 197.41 128.99Z" fill="#C22373"/>
<path d="M185.235 122.769C185.04 123.553 184.67 124.135 184.41 124.07C184.149 124.005 184.096 123.317 184.291 122.533C184.487 121.749 184.856 121.166 185.116 121.231C185.376 121.296 185.429 121.985 185.235 122.769Z" fill="#43464A"/>
<path d="M178.681 121.471C178.615 122.277 178.344 122.912 178.077 122.889C177.809 122.867 177.646 122.197 177.711 121.392C177.777 120.586 178.047 119.951 178.315 119.973C178.583 119.996 178.747 120.667 178.681 121.471Z" fill="#43464A"/>
<path d="M177.953 131.39C177.953 131.39 182.448 132.677 185.979 129.137C185.979 129.137 185.979 133.321 180.2 133.964C180.2 133.964 179.237 133.964 177.953 131.39Z" fill="white"/>
<path d="M177.306 117.674C177.361 117.45 177.474 117.244 177.625 117.058C177.779 116.876 177.981 116.723 178.215 116.63C178.443 116.542 178.701 116.452 178.947 116.512C179.069 116.534 179.181 116.589 179.29 116.641C179.394 116.705 179.492 116.783 179.575 116.88L179.558 116.927C179.43 116.962 179.318 116.973 179.211 116.978C179.104 116.997 179.002 116.995 178.904 117.004C178.807 117.012 178.714 117.004 178.619 117.001C178.523 116.987 178.428 116.995 178.332 117.007C178.145 117.043 177.962 117.123 177.794 117.239C177.622 117.352 177.474 117.512 177.353 117.692L177.306 117.674Z" fill="#4375F1"/>
<path d="M187.112 117.674C187.057 117.45 186.944 117.244 186.793 117.058C186.639 116.876 186.437 116.723 186.203 116.63C185.975 116.542 185.717 116.452 185.472 116.512C185.349 116.534 185.237 116.589 185.128 116.641C185.024 116.705 184.926 116.783 184.844 116.88L184.86 116.927C184.989 116.962 185.101 116.973 185.208 116.978C185.315 116.997 185.417 116.995 185.514 117.004C185.612 117.012 185.705 117.004 185.8 117.001C185.896 116.987 185.99 116.995 186.086 117.007C186.274 117.043 186.457 117.123 186.625 117.239C186.797 117.352 186.944 117.512 187.066 117.692L187.112 117.674Z" fill="#4375F1"/>
<path d="M179.954 128.401C179.954 128.401 176.628 127.119 177.396 126.605C178.004 126.199 179.416 124.019 179.976 122.75C180.045 122.593 180.276 122.631 180.289 122.802C180.395 124.116 180.51 126.729 179.954 128.401Z" fill="#E79D90"/>
<path d="M197.41 127.04C198.216 127.04 198.869 126.385 198.869 125.577C198.869 124.769 198.216 124.114 197.41 124.114C196.604 124.114 195.95 124.769 195.95 125.577C195.95 126.385 196.604 127.04 197.41 127.04Z" fill="#43464A"/>
<path d="M194.301 132.648H183.303V132.084H194.009C194.449 131.232 196.735 126.809 196.958 126.309L197.409 126.562C197.156 127.128 194.487 132.288 194.374 132.508L194.301 132.648Z" fill="#43464A"/>
<path d="M182.817 132.892C183.623 132.892 184.277 132.619 184.277 132.282C184.277 131.945 183.623 131.672 182.817 131.672C182.011 131.672 181.358 131.945 181.358 132.282C181.358 132.619 182.011 132.892 182.817 132.892Z" fill="#43464A"/>
<path d="M226.58 200H41.4182C40.0825 200 39 199.776 39 199.5C39 199.224 40.0825 199 41.4182 199H226.581C227.917 199 229 199.224 229 199.5C228.999 199.776 227.916 200 226.58 200Z" fill="#141422"/>
<path d="M72.5683 142.897L73.9946 184.66C74.0831 187.251 76.2038 189.304 78.7889 189.304H138.695C141.409 189.304 143.582 187.05 143.489 184.33L142.062 142.568C141.974 139.977 139.853 137.923 137.268 137.923H77.3625C74.6492 137.923 72.4754 140.178 72.5683 142.897Z" fill="#CDCDCD"/>
<mask id="mask6_2717_10131" style="mask-type:luminance" maskUnits="userSpaceOnUse" x="72" y="137" width="72" height="53">
<path d="M72.5683 142.897L73.9946 184.66C74.0831 187.251 76.2038 189.304 78.7889 189.304H138.695C141.409 189.304 143.582 187.05 143.489 184.33L142.062 142.568C141.974 139.977 139.853 137.923 137.268 137.923H77.3625C74.6492 137.923 72.4754 140.178 72.5683 142.897Z" fill="white"/>
</mask>
<g mask="url(#mask6_2717_10131)">
<path opacity="0.61" d="M112.528 170.196C112.528 170.196 107.907 188.239 112.528 193.359C117.149 198.48 86.9905 191.408 86.9905 191.408C86.9905 191.408 91.125 176.535 102.556 170.195L107.907 173.609L112.528 170.196Z" fill="#CDCDCD"/>
</g>
<path d="M102.557 174.197H112.528C112.528 174.197 97.4492 198.579 110.947 200.286H90.1525C90.1525 200.286 86.0187 190.533 102.557 174.197Z" fill="#141422"/>
<path d="M105.959 153.216C105.959 152.753 106.031 152.306 106.164 151.887C106.096 151.884 106.028 151.882 105.959 151.882C103.122 151.882 100.822 154.187 100.822 157.031C100.822 159.875 103.122 162.18 105.959 162.18C108.624 162.18 110.815 160.145 111.07 157.54C110.83 157.581 110.585 157.603 110.334 157.603C107.917 157.602 105.959 155.639 105.959 153.216Z" fill="white"/>
<path d="M110.225 73.7902C111.086 45.8073 89.1358 22.4237 61.1983 21.5614C33.2608 20.6991 9.91508 42.6846 9.05417 70.6675C8.19326 98.6504 30.1432 122.034 58.0807 122.896C86.0182 123.759 109.364 101.773 110.225 73.7902Z" fill="#F84923"/>
<mask id="mask7_2717_10131" style="mask-type:alpha" maskUnits="userSpaceOnUse" x="0" y="24" width="108" height="108">
<path d="M107.724 78.0053C107.724 48.2099 83.6089 24.056 53.8618 24.056C24.1148 24.056 -3.52957e-06 48.2099 -2.27379e-06 78.0053C-1.01801e-06 107.801 24.1148 131.955 53.8618 131.955C83.6089 131.955 107.724 107.801 107.724 78.0053Z" fill="#CDBDF9"/>
</mask>
<g mask="url(#mask7_2717_10131)">
<path d="M107.724 78.0053C107.724 48.2099 83.6089 24.056 53.8618 24.056C24.1148 24.056 -3.52957e-06 48.2099 -2.27379e-06 78.0053C-1.01801e-06 107.801 24.1148 131.955 53.8618 131.955C83.6089 131.955 107.724 107.801 107.724 78.0053Z" fill="#CDBDF9"/>
<path d="M52.6208 80.6478C52.6208 80.6478 37.5514 80.6478 32.2768 83.2894C27.0021 85.931 24.3648 92.7234 25.4954 97.2516C26.6261 101.78 20.5977 113.1 27.0021 119.138C32.7538 124.56 37.2898 123.895 39.2466 123.157C39.4687 123.073 39.6579 122.989 39.8111 122.911C41.3177 122.156 39.8111 142.911 39.8111 142.911C39.8111 142.911 77.8618 145.175 80.1231 142.911C82.3835 140.647 83.1373 93.1 77.8626 87.8168C72.588 82.5336 57.8955 80.647 57.8955 80.647H52.6208V80.6478Z" fill="#F84923"/>
<path d="M51.3024 67.2514L50.7371 80.6473L63.1018 88.8612C63.5838 89.173 64.2274 88.8966 64.3334 88.332L66.3726 77.4403L54.3166 62.7231L51.3024 67.2514Z" fill="#E7B59D"/>
<mask id="mask8_2717_10131" style="mask-type:luminance" maskUnits="userSpaceOnUse" x="50" y="62" width="17" height="27">
<path d="M51.3024 67.2514L50.7371 80.6473L63.1018 88.8612C63.5838 89.173 64.2274 88.8966 64.3334 88.332L66.3726 77.4403L54.3166 62.7231L51.3024 67.2514Z" fill="white"/>
</mask>
<g mask="url(#mask8_2717_10131)">
<path opacity="0.45" d="M50.3612 75.742C50.3612 75.742 52.2448 77.2511 53.7523 75.742C53.7523 75.742 62.4172 90.4592 69.9523 87.8175C77.4874 85.1759 62.0403 73.1004 62.0403 73.1004L54.1477 67.1245L49.6074 70.4588L50.3612 75.742Z" fill="#E7B59D"/>
</g>
<path d="M52.0561 62.346C58.0836 61.9685 58.8374 52.157 58.8374 51.0254C58.8374 49.8929 68.2561 46.8747 70.5165 48.0063C72.6676 49.084 73.238 55.9994 73.3423 56.4965C76.6535 54.4886 79.5575 47.3238 78.0516 43.1006C76.1681 37.8173 73.9076 39.704 72.4009 40.8364C70.8942 41.9681 70.8942 36.6857 62.9823 32.1575C55.0703 27.6292 64.1121 37.4407 54.6942 36.6857C45.2756 35.9307 44.5218 45.3647 44.5218 45.3647C39.624 45.3647 36.2338 49.5154 40.0009 53.6662C43.768 57.8169 40.7547 58.1944 40.0009 61.9676C39.608 63.936 43.4164 64.7744 47.1516 65.1266C48.2317 63.6841 49.8007 62.4867 52.0561 62.346Z" fill="#141422"/>
<path d="M61.852 68.0064C68.7831 71.0246 75.2271 67.5261 77.5313 66.0043C75.858 63.3459 74.4153 60.6798 74.2849 58.1949C74.2209 56.979 74.0468 55.8516 73.8054 54.8152C73.8373 54.7966 73.8684 54.7756 73.8996 54.7562C73.7961 54.2582 72.6688 49.0837 70.5177 48.006C68.2573 46.8735 58.8386 49.8926 58.8386 51.0251C58.8386 51.925 58.3591 58.3028 55.1379 61.0733C56.3048 63.7587 58.3322 66.4737 61.852 68.0064Z" fill="#E7B59D"/>
<path d="M77.5302 66.0044C75.2269 67.5262 68.782 71.0247 61.8509 68.0064C58.332 66.4737 56.3037 63.7588 55.1369 61.0742C54.3049 61.7896 53.2929 62.2691 52.0562 62.3466C49.8017 62.4881 48.2319 63.6847 47.1509 65.1281C50.5765 65.4508 53.9398 65.3648 53.9398 65.3648C55.8234 86.8744 78.4278 85.3644 82.1958 79.7045C84.6573 76.0054 80.6849 71.0171 77.5302 66.0044Z" fill="#2E5271"/>
<path d="M39.9645 68.8989L57.2683 69.8623L57.7622 60.9624L40.4584 59.9991L39.9645 68.8989Z" fill="#61002F"/>
<path d="M39.2464 75.9303C39.2464 75.9303 39.2464 64.2322 41.13 62.7231C43.0136 61.214 47.5345 55.5533 49.7949 57.0632C52.0554 58.5724 50.9256 59.3274 52.4322 60.0823C53.9389 60.8373 53.186 61.969 54.3158 62.724C55.4465 63.479 56.9531 66.4972 56.1994 66.4972C55.4456 66.4972 52.8083 66.4972 52.8083 66.4972C52.8083 66.4972 47.5336 76.3087 45.2732 75.9312L44.8963 77.4403H39.2456L39.2464 75.9303Z" fill="#E7B59D"/>
<path d="M44.7094 77.2508C44.7094 77.2508 45.4632 114.609 42.0721 116.873C38.681 119.137 29.6392 116.496 31.5236 108.948C33.4072 101.401 40.1886 73.8542 40.1886 73.8542L44.7094 77.2508Z" fill="#E7B59D"/>
<path d="M62.0393 70.4587C62.0393 70.4587 68.6297 72.4389 71.6405 71.7699C71.8786 71.7168 72.0797 71.9468 71.9981 72.1768C71.6708 73.0936 71.0811 74.8193 71.0811 75.3645C71.0819 76.1194 64.2998 74.987 62.0393 70.4587Z" fill="#EFFDFF"/>
<path d="M69.423 59.1379C69.423 59.1379 78.2225 64.438 75.8376 66.7207C73.4526 69.0033 71.6052 68.6427 71.6052 68.6427C71.6052 68.6427 68.5279 60.4836 69.423 59.1379Z" fill="#E19F9D"/>
<path d="M62.0395 61.0249C62.0016 60.5555 62.1354 60.0778 62.4181 59.6598C62.7024 59.2436 63.2215 58.9284 63.7624 58.8989C64.3092 58.8475 64.782 59.0658 65.1934 59.295C65.3852 59.434 65.5761 59.5722 65.7427 59.7331C65.9 59.9067 66.0548 60.0769 66.1844 60.2707C65.953 60.2101 65.7469 60.1258 65.5433 60.0449C65.3414 59.9632 65.1319 59.9118 64.9401 59.8317C64.5456 59.7289 64.1628 59.611 63.8171 59.6514C63.473 59.6758 63.1584 59.8039 62.8606 60.0525C62.5653 60.3028 62.3028 60.6423 62.0395 61.0249Z" fill="#9A6253"/>
<path d="M74.2828 57.382C74.1491 57.0256 73.8866 56.7231 73.5367 56.5141C73.1859 56.3077 72.6971 56.2563 72.2924 56.4214C71.8752 56.5731 71.6043 56.895 71.383 57.2051C71.2905 57.3728 71.1988 57.5404 71.1324 57.7149C71.0777 57.896 71.0221 58.0738 70.9944 58.26C71.1424 58.1353 71.2644 58.003 71.3856 57.8741C71.505 57.7443 71.6405 57.6348 71.7532 57.5101C72.0064 57.2986 72.2453 57.0804 72.5128 56.9902C72.7728 56.8891 73.047 56.8748 73.3499 56.9531C73.6502 57.0357 73.959 57.1933 74.2828 57.382Z" fill="#9A6253"/>
<path d="M60.0719 58.102C60.1619 57.4937 60.4328 56.8769 60.7861 56.3789C61.7518 55.0172 63.3225 54.8462 64.8611 55.1571C65.5745 55.3012 65.7301 54.1797 65.0184 54.0364C63.1979 53.669 61.3093 53.9521 60.0735 55.4495C59.5023 56.1413 59.0842 57.0521 58.9521 57.9453C58.8461 58.6649 59.965 58.8233 60.0719 58.102Z" fill="#2E5271"/>
<path d="M69.7319 53.4023C70.1416 53.1115 70.659 52.9236 71.152 52.8512C72.5014 52.6532 73.4898 53.4874 74.1763 54.5735C74.4943 55.0774 75.2438 54.5356 74.9267 54.0334C74.1149 52.7475 72.8799 51.7895 71.2984 51.9041C70.5673 51.9572 69.7934 52.2243 69.1919 52.6506C68.7073 52.9944 69.2465 53.7469 69.7319 53.4023Z" fill="#2E5271"/>
</g>
<path d="M172.949 21.2915H262.866C264.437 21.2915 265.71 22.5644 265.71 24.1351V46.8176C265.71 47.7618 265.241 48.6453 264.458 49.1737L250.079 58.8882C249.332 59.3925 248.365 58.6796 248.626 57.8174L251.503 48.3276H172.949C171.378 48.3276 170.105 47.0547 170.105 45.484V24.1344C170.105 22.5644 171.379 21.2915 172.949 21.2915Z" fill="#141422"/>
<mask id="mask9_2717_10131" style="mask-type:luminance" maskUnits="userSpaceOnUse" x="170" y="21" width="96" height="39">
<path d="M172.949 21.2915H262.866C264.437 21.2915 265.71 22.5644 265.71 24.1351V46.8176C265.71 47.7618 265.241 48.6453 264.458 49.1737L250.079 58.8882C249.332 59.3925 248.365 58.6796 248.626 57.8174L251.503 48.3276H172.949C171.378 48.3276 170.105 47.0547 170.105 45.484V24.1344C170.105 22.5644 171.379 21.2915 172.949 21.2915Z" fill="white"/>
</mask>
<g mask="url(#mask9_2717_10131)">
<path opacity="0.22" d="M246.855 50.9727L250.041 48.3171H259.337L247.386 54.9559L246.855 50.9727Z" fill="#606060"/>
</g>
<path d="M180.969 28.5336H256.133C256.8 28.5336 257.341 27.9934 257.341 27.3266C257.341 26.6598 256.8 26.1196 256.133 26.1196H180.969C180.302 26.1196 179.762 26.6598 179.762 27.3266C179.762 27.9934 180.302 28.5336 180.969 28.5336Z" fill="white"/>
<path d="M180.969 34.6491H256.133C256.8 34.6491 257.341 34.1089 257.341 33.4421C257.341 32.7753 256.8 32.2351 256.133 32.2351H180.969C180.302 32.2351 179.762 32.7753 179.762 33.4421C179.762 34.1082 180.302 34.6491 180.969 34.6491Z" fill="white"/>
<path d="M219.405 40.7648H256.487C256.959 40.7648 257.341 40.3827 257.341 39.9113V39.2043C257.341 38.7329 256.959 38.3508 256.487 38.3508H219.405C218.934 38.3508 218.552 38.7329 218.552 39.2043V39.9113C218.552 40.3827 218.934 40.7648 219.405 40.7648Z" fill="white"/>
<path d="M236.058 53.4219H137.55C135.829 53.4219 134.435 54.8195 134.435 56.5427V81.4351C134.435 82.4717 134.948 83.4403 135.806 84.0207L151.559 94.6819C152.378 95.2357 153.437 94.4531 153.15 93.5065L150 83.0919H236.058C237.779 83.0919 239.173 81.6942 239.173 79.971V56.5413C239.173 54.8188 237.779 53.4219 236.058 53.4219Z" fill="#F84923"/>
<mask id="mask10_2717_10131" style="mask-type:luminance" maskUnits="userSpaceOnUse" x="134" y="53" width="106" height="42">
<path d="M236.058 53.4219H137.55C135.829 53.4219 134.435 54.8195 134.435 56.5427V81.4351C134.435 82.4717 134.948 83.4403 135.806 84.0207L151.559 94.6819C152.378 95.2357 153.437 94.4531 153.15 93.5065L150 83.0919H236.058C237.779 83.0919 239.173 81.6942 239.173 79.971V56.5413C239.173 54.8188 237.779 53.4219 236.058 53.4219Z" fill="white"/>
</mask>
<g mask="url(#mask10_2717_10131)">
<path opacity="0.22" d="M155.092 85.9957L151.6 83.0815H141.417L154.509 90.3665L155.092 85.9957Z" fill="#F84923"/>
</g>
<path d="M227.272 61.3688H144.926C144.195 61.3688 143.604 60.7759 143.604 60.0443C143.604 59.3126 144.195 58.7197 144.926 58.7197H227.271C228.002 58.7197 228.593 59.3126 228.593 60.0443C228.594 60.7759 228.002 61.3688 227.272 61.3688Z" fill="white"/>
<path d="M227.272 68.0805H144.926C144.195 68.0805 143.604 67.4876 143.604 66.7559C143.604 66.0243 144.195 65.4314 144.926 65.4314H227.271C228.002 65.4314 228.593 66.0243 228.593 66.7559C228.594 67.4876 228.002 68.0805 227.272 68.0805Z" fill="white"/>
<path d="M185.164 74.7917H144.539C144.022 74.7917 143.604 74.3723 143.604 73.8547V73.0788C143.604 72.5612 144.022 72.1418 144.539 72.1418H185.164C185.681 72.1418 186.099 72.5612 186.099 73.0788V73.8547C186.098 74.3723 185.68 74.7917 185.164 74.7917Z" fill="white"/>
</svg>
