<svg width="288" height="220" viewBox="0 0 288 220" fill="none" xmlns="http://www.w3.org/2000/svg">
<ellipse opacity="0.05" cx="143.822" cy="110" rx="109.822" ry="110" fill="#3600D0"/>
<path d="M224.859 46.6632H194.152C186.701 46.6632 180.661 40.6231 180.661 33.1723V29.4909C180.661 22.0399 186.701 16 194.152 16H224.859C232.31 16 238.35 22.0401 238.35 29.4909V33.1723C238.35 40.6231 232.31 46.6632 224.859 46.6632Z" fill="#F84923"/>
<path d="M247.704 118.309H219.171C211.906 118.309 206.017 112.42 206.017 105.156V100.799C206.017 93.5348 211.906 87.6458 219.171 87.6458H247.704C254.969 87.6458 260.858 93.5348 260.858 100.799V105.156C260.858 112.42 254.969 118.309 247.704 118.309Z" fill="#F84923"/>
<path d="M65.1978 93.2478H36.6646C29.4 93.2478 23.511 87.3588 23.511 80.0942V75.7379C23.511 68.4733 29.4 62.5842 36.6646 62.5842H65.1978C72.4624 62.5842 78.3515 68.4733 78.3515 75.7379V80.0942C78.3513 87.359 72.4622 93.2478 65.1978 93.2478Z" fill="#F84923"/>
<path d="M41.5776 71.5818C41.8375 71.5818 42.0549 71.6695 42.2305 71.8449C42.406 72.0204 42.4936 72.2315 42.4936 72.4783C42.4936 72.7901 42.3635 73.0434 42.104 73.2383L36.3747 77.5255L42.0453 81.7542C42.2921 81.9362 42.4156 82.1828 42.4156 82.4948C42.4156 82.7548 42.3246 82.9755 42.1429 83.1572C41.9608 83.3393 41.7464 83.43 41.4997 83.43C41.2918 83.43 41.1032 83.3651 40.9348 83.235L34.2897 78.2657C34.0428 78.084 33.9194 77.8371 33.9194 77.5253C33.9194 77.2135 34.0428 76.967 34.2897 76.7847L41.0127 71.7571C41.1684 71.6403 41.3567 71.5818 41.5776 71.5818Z" fill="white"/>
<path d="M51.2239 69.5549C51.5486 69.5549 51.828 69.672 52.0619 69.9056C52.2957 70.1395 52.4125 70.4254 52.4125 70.763C52.4125 70.9189 52.3737 71.0748 52.2957 71.2307L46.6834 84.6573C46.4625 85.151 46.0922 85.3979 45.5727 85.3979C45.2478 85.3979 44.9686 85.284 44.7347 85.0569C44.5009 84.8298 44.384 84.5472 44.384 84.2092C44.384 84.0407 44.4229 83.878 44.5009 83.7221L50.1132 70.2955C50.2169 70.0748 50.3695 69.8962 50.571 69.7597C50.7724 69.6233 50.9898 69.5549 51.2239 69.5549Z" fill="white"/>
<path d="M55.1016 71.5818C55.3355 71.5818 55.5303 71.6403 55.6863 71.7571L62.3899 76.7847C62.6496 76.9797 62.7795 77.2264 62.7795 77.5253C62.7795 77.8244 62.6494 78.0709 62.3899 78.2657L55.7252 83.235C55.5562 83.3651 55.3746 83.43 55.1796 83.43C54.9327 83.43 54.7182 83.3391 54.5366 83.1572C54.3545 82.9753 54.2636 82.7546 54.2636 82.4948C54.2636 82.183 54.387 81.9362 54.6339 81.7542L60.3047 77.5255L54.5951 73.2383C54.3349 73.0434 54.2053 72.7901 54.2053 72.4783C54.2053 72.2185 54.2896 72.0042 54.4586 71.8353C54.6272 71.6665 54.8416 71.5818 55.1016 71.5818Z" fill="white"/>
<path d="M194.087 26.1382C195.016 24.7676 196.292 24.0823 197.912 24.0823C199.533 24.0823 200.809 24.7678 201.738 26.1382C202.668 27.5087 203.133 29.2371 203.133 31.3224C203.133 33.4082 202.668 35.1392 201.738 36.5157C200.809 37.8922 199.533 38.5805 197.912 38.5805C196.292 38.5805 195.016 37.8922 194.087 36.5157C193.157 35.1392 192.692 33.4082 192.692 31.3224C192.692 29.2369 193.157 27.5087 194.087 26.1382ZM200.013 27.4341C199.53 26.4509 198.83 25.9592 197.912 25.9592C196.995 25.9592 196.295 26.4509 195.812 27.4341C195.329 28.4174 195.088 29.7134 195.088 31.3224C195.088 32.9315 195.329 34.2275 195.812 35.2108C196.295 36.1941 196.995 36.6857 197.912 36.6857C198.83 36.6857 199.53 36.1941 200.013 35.2108C200.496 34.2275 200.737 32.9315 200.737 31.3224C200.737 29.7134 200.496 28.4174 200.013 27.4341Z" fill="white"/>
<path d="M206.136 26.156H205.081C204.831 26.156 204.619 26.0698 204.447 25.8968C204.274 25.7241 204.188 25.5124 204.188 25.2622C204.188 25.012 204.274 24.8005 204.447 24.6277C204.619 24.455 204.831 24.3684 205.081 24.3684H207.316C207.638 24.3684 207.915 24.4847 208.147 24.7172C208.38 24.9495 208.496 25.2266 208.496 25.5484V37.3831C208.496 37.7049 208.38 37.9851 208.147 38.2234C207.915 38.4617 207.638 38.581 207.316 38.581C206.994 38.581 206.717 38.4617 206.485 38.2234C206.252 37.9851 206.136 37.7049 206.136 37.3831V26.156Z" fill="white"/>
<path d="M211.911 26.1382C212.84 24.7676 214.115 24.0823 215.736 24.0823C217.357 24.0823 218.632 24.7678 219.562 26.1382C220.492 27.5087 220.956 29.2371 220.956 31.3224C220.956 33.4082 220.492 35.1392 219.562 36.5157C218.632 37.8922 217.357 38.5805 215.736 38.5805C214.115 38.5805 212.84 37.8922 211.911 36.5157C210.981 35.1392 210.516 33.4082 210.516 31.3224C210.516 29.2369 210.981 27.5087 211.911 26.1382ZM217.837 27.4341C217.354 26.4509 216.654 25.9592 215.736 25.9592C214.818 25.9592 214.118 26.4509 213.635 27.4341C213.153 28.4174 212.911 29.7134 212.911 31.3224C212.911 32.9315 213.153 34.2275 213.635 35.2108C214.118 36.1941 214.818 36.6857 215.736 36.6857C216.654 36.6857 217.354 36.1941 217.837 35.2108C218.319 34.2275 218.561 32.9315 218.561 31.3224C218.561 29.7134 218.319 28.4174 217.837 27.4341Z" fill="white"/>
<path d="M223.959 26.156H222.905C222.654 26.156 222.443 26.0698 222.27 25.8968C222.097 25.7241 222.011 25.5124 222.011 25.2622C222.011 25.012 222.097 24.8005 222.27 24.6277C222.443 24.455 222.654 24.3684 222.905 24.3684H225.139C225.461 24.3684 225.738 24.4847 225.971 24.7172C226.203 24.9495 226.319 25.2266 226.319 25.5484V37.3831C226.319 37.7049 226.203 37.9851 225.971 38.2234C225.738 38.4617 225.461 38.581 225.139 38.581C224.817 38.581 224.541 38.4617 224.308 38.2234C224.076 37.9851 223.959 37.7049 223.959 37.3831V26.156Z" fill="white"/>
<path d="M225.427 95.0757C227.181 95.0757 228.701 95.5761 229.987 96.5761C230.26 96.7971 230.396 97.0506 230.396 97.3362C230.396 97.648 230.292 97.9047 230.084 98.1061C229.876 98.3076 229.623 98.408 229.324 98.408C229.116 98.408 228.915 98.3301 228.72 98.1742C227.824 97.4726 226.778 97.1218 225.583 97.1218C224.075 97.1218 222.861 97.6449 221.938 98.6906C221.016 99.7364 220.555 101.156 220.555 102.948C220.555 104.741 221.016 106.167 221.938 107.226C222.861 108.285 224.075 108.814 225.583 108.814C226.778 108.814 227.824 108.463 228.72 107.762C228.915 107.606 229.116 107.528 229.324 107.528C229.623 107.528 229.876 107.629 230.084 107.83C230.292 108.031 230.396 108.288 230.396 108.6C230.396 108.885 230.26 109.139 229.987 109.36C228.675 110.373 227.154 110.88 225.427 110.88C223.179 110.88 221.37 110.152 220 108.697C218.629 107.242 217.944 105.326 217.944 102.948C217.944 100.571 218.629 98.6644 220 97.2288C221.37 95.7936 223.179 95.0757 225.427 95.0757Z" fill="white"/>
<path d="M247.233 95.0757C247.557 95.0757 247.83 95.1927 248.051 95.4265C248.272 95.6604 248.382 95.9331 248.382 96.2449C248.382 96.349 248.356 96.4918 248.304 96.6737L247.116 99.8891H249.708C249.967 99.8891 250.185 99.9768 250.361 100.152C250.536 100.327 250.623 100.545 250.623 100.805C250.623 101.065 250.536 101.282 250.361 101.458C250.185 101.633 249.967 101.721 249.708 101.721H246.453L245.304 104.858H247.525C247.785 104.858 248.006 104.949 248.187 105.131C248.369 105.313 248.46 105.534 248.46 105.794C248.46 106.04 248.369 106.255 248.187 106.437C248.006 106.619 247.785 106.709 247.525 106.709H244.621L243.374 110.08C243.283 110.314 243.137 110.506 242.936 110.655C242.734 110.804 242.51 110.879 242.264 110.879C241.926 110.879 241.64 110.763 241.406 110.529C241.172 110.295 241.056 110.016 241.056 109.691C241.056 109.587 241.081 109.444 241.133 109.262L242.069 106.709H238.113L236.885 110.08C236.794 110.314 236.644 110.506 236.437 110.655C236.229 110.804 236.001 110.879 235.755 110.879C235.43 110.879 235.154 110.765 234.927 110.538C234.699 110.311 234.586 110.029 234.586 109.691C234.586 109.535 234.605 109.392 234.644 109.262L235.58 106.709H233.261C233 106.709 232.78 106.619 232.598 106.437C232.416 106.255 232.325 106.04 232.325 105.794C232.325 105.534 232.416 105.313 232.598 105.131C232.78 104.949 233.001 104.858 233.261 104.858H236.261L237.411 101.721H235.404C235.144 101.721 234.927 101.633 234.751 101.458C234.576 101.282 234.488 101.065 234.488 100.805C234.488 100.545 234.576 100.328 234.751 100.152C234.927 99.9766 235.144 99.8891 235.404 99.8891H238.093L239.574 95.8554C239.769 95.3359 240.159 95.0759 240.744 95.0759C241.068 95.0759 241.338 95.1898 241.552 95.4169C241.767 95.6444 241.874 95.9206 241.874 96.2451C241.874 96.3492 241.848 96.492 241.796 96.6739L240.627 99.8892H244.583L246.064 95.8556C246.258 95.3357 246.648 95.0757 247.233 95.0757ZM238.795 104.858H242.751L243.901 101.721H239.945L238.795 104.858Z" fill="white"/>
<path d="M171.963 90.7417C174.852 84.5803 170.689 79.7574 175.207 66.1225C176.941 60.8869 179.242 56.5075 178.007 50.4961C177.74 49.1919 176.533 43.3142 172.553 41.6507C167.554 39.5613 161.899 45.6748 156.042 49.1692C136.259 60.972 116.009 41.7991 103.118 51.2332C93.1522 58.5263 92.3255 79.4456 100.464 91.9212C116.216 116.066 164.414 106.842 171.963 90.7417Z" fill="#383838"/>
<path d="M136.549 136.197H135.141C119.246 136.197 106.361 123.311 106.361 107.416V85.5662C106.361 69.6712 119.246 56.7859 135.141 56.7859H136.549C152.444 56.7859 165.329 69.6712 165.329 85.5662V107.416C165.329 123.311 152.444 136.197 136.549 136.197Z" fill="#D3CDAE"/>
<path d="M152.425 97.4571V96.9996C152.425 91.8339 156.613 87.646 161.779 87.646H168.88C174.046 87.646 178.234 91.8337 178.234 96.9996V97.4571C178.234 102.623 174.046 106.811 168.88 106.811H161.779C156.613 106.811 152.425 102.623 152.425 97.4571Z" fill="#D3CDAE"/>
<path d="M94.1941 97.4571V96.9996C94.1941 91.8339 98.3818 87.646 103.548 87.646H110.649C115.815 87.646 120.003 91.8337 120.003 96.9996V97.4571C120.003 102.623 115.815 106.811 110.649 106.811H103.548C98.3819 106.811 94.1941 102.623 94.1941 97.4571Z" fill="#D3CDAE"/>
<path d="M106.214 74.5257C108.079 75.3283 110.953 76.29 114.469 76.2949C120.328 76.3026 122.421 73.6458 127.295 72.3145C134.911 70.2345 136.935 74.7727 151.325 76C158.969 76.6521 164.709 77.1417 167.099 73.9362C169.848 70.248 167.35 62.7555 161.644 55.2137L125.821 54.624L101.349 72.4619L106.214 74.5257Z" fill="#383838"/>
<path d="M146.312 105.337C145.145 105.337 144.199 104.391 144.199 103.224V92.9041C144.199 91.7372 145.145 90.791 146.312 90.791C147.479 90.791 148.425 91.737 148.425 92.9041V103.224C148.425 104.391 147.479 105.337 146.312 105.337Z" fill="#1C1C1C"/>
<path d="M124.985 105.861C123.818 105.861 122.872 104.915 122.872 103.748V93.4283C122.872 92.2613 123.818 91.3152 124.985 91.3152C126.152 91.3152 127.098 92.2612 127.098 93.4283V103.748C127.098 104.915 126.153 105.861 124.985 105.861Z" fill="#1C1C1C"/>
<path d="M117.729 86.1392C118.231 85.688 121.306 83.0158 125.788 83.4529C129.527 83.8174 131.823 86.1101 132.405 86.7289" stroke="#1C1C1C" stroke-width="7" stroke-miterlimit="10" stroke-linecap="round"/>
<path d="M138.974 86.1392C139.476 85.688 142.551 83.0158 147.033 83.4529C150.772 83.8174 153.068 86.1101 153.65 86.7289" stroke="#1C1C1C" stroke-width="7" stroke-miterlimit="10" stroke-linecap="round"/>
<path d="M190.735 195.852H87.1473C80.1726 195.852 74.5183 190.198 74.5183 183.224V132.118C74.5183 125.143 80.1726 119.489 87.1473 119.489H190.735C197.709 119.489 203.364 125.143 203.364 132.118V183.224C203.364 190.198 197.709 195.852 190.735 195.852Z" fill="#75746D"/>
<path d="M138.106 151.528C143.447 151.834 149.707 163.339 145.378 169.022C141.798 173.722 131.865 173.272 128.867 168.826C125.067 163.188 132.471 151.205 138.106 151.528Z" fill="#C6C4BA"/>
<path d="M39.7272 175.066H18.7935V196H39.7272V175.066Z" fill="#8E5E25"/>
<path d="M21.176 169.791C17.5624 165.456 16.1592 158.533 18.7141 156.182C20.5522 154.491 23.2891 156.225 24.7743 154.425C26.5471 152.277 23.3947 148.903 25.0467 145.99C26.5146 143.402 31.203 142.187 33.1829 143.774C36.1513 146.154 32.092 154.08 34.8352 155.803C36.6565 156.947 39.3516 154.023 41.0713 155.222C42.9488 156.53 41.8323 161.476 40.6695 164.397C39.9666 166.162 36.6764 174.425 30.0396 174.659C25.3698 174.823 22.1039 170.905 21.176 169.791Z" fill="#3CD689"/>
<path d="M45.1819 170.496H14.3711V177.867H45.1819V170.496Z" fill="#B27B32"/>
<path d="M253.971 187.237C259.596 187.237 264.157 182.677 264.157 177.051C264.157 171.426 259.596 166.865 253.971 166.865C248.346 166.865 243.785 171.426 243.785 177.051C243.785 182.677 248.346 187.237 253.971 187.237Z" stroke="#123B63" stroke-width="13" stroke-miterlimit="10"/>
<path d="M245.051 194.624H236.026C231.72 194.624 228.229 191.133 228.229 186.827V164.277C228.229 163.203 229.099 162.333 230.173 162.333H250.904C251.978 162.333 252.848 163.203 252.848 164.277V186.827C252.848 191.133 249.357 194.624 245.051 194.624Z" fill="#3E70BA"/>
<path d="M7 195.853H280.022" stroke="black" stroke-width="14" stroke-miterlimit="10" stroke-linecap="round"/>
<path d="M237.166 140.444C236.912 139.341 236.821 138.196 236.925 137.062C237.027 135.929 237.325 134.806 237.848 133.78C237.985 133.526 238.111 133.267 238.279 133.03L238.519 132.669L238.793 132.328C238.965 132.095 239.188 131.898 239.389 131.687C239.493 131.583 239.614 131.496 239.726 131.4C239.842 131.309 239.95 131.208 240.079 131.132L240.455 130.89C240.579 130.809 240.721 130.752 240.854 130.683C241.117 130.538 241.414 130.46 241.699 130.36C242.288 130.208 242.899 130.16 243.495 130.213C244.09 130.277 244.658 130.436 245.194 130.651C245.73 130.867 246.221 131.156 246.688 131.471C247.156 131.787 247.579 132.155 247.98 132.543C248.379 132.933 248.746 133.355 249.071 133.817C249.732 134.738 250.167 135.798 250.415 136.882C250.661 137.969 250.715 139.089 250.6 140.187C250.478 141.284 250.18 142.361 249.709 143.362C249.241 144.361 248.583 145.291 247.727 146.015C246.875 146.744 245.861 147.231 244.857 147.599C243.852 147.972 242.84 148.251 241.923 148.688C241.002 149.112 240.203 149.743 239.643 150.577C239.093 151.413 238.747 152.39 238.643 153.408C238.572 153.914 238.579 154.431 238.591 154.946C238.626 155.461 238.672 155.977 238.767 156.488C238.937 157.514 239.225 158.521 239.559 159.512L239.56 159.514C239.59 159.606 239.541 159.705 239.45 159.736C239.359 159.766 239.261 159.719 239.229 159.63C238.867 158.633 238.548 157.615 238.348 156.565C238.239 156.042 238.177 155.508 238.129 154.973C238.103 154.437 238.084 153.896 238.145 153.355C238.23 152.274 238.576 151.198 239.162 150.26C239.756 149.323 240.656 148.581 241.636 148.104C242.614 147.612 243.637 147.305 244.597 146.922C245.558 146.543 246.461 146.075 247.201 145.411C247.942 144.753 248.511 143.911 248.914 142.996C249.318 142.081 249.566 141.093 249.654 140.094C249.815 138.101 249.352 136.034 248.18 134.463C247.889 134.069 247.553 133.701 247.19 133.364C246.827 133.029 246.444 132.71 246.03 132.447C245.619 132.183 245.191 131.945 244.744 131.778C244.298 131.612 243.841 131.498 243.385 131.459C242.929 131.432 242.481 131.481 242.051 131.6C241.843 131.684 241.625 131.739 241.429 131.858C241.33 131.913 241.225 131.954 241.131 132.02L240.847 132.214C240.749 132.272 240.666 132.356 240.578 132.43C240.492 132.508 240.398 132.575 240.318 132.66C240.162 132.836 239.987 132.991 239.853 133.187L239.637 133.467L239.448 133.769C239.313 133.965 239.216 134.185 239.107 134.397C238.691 135.259 238.46 136.216 238.397 137.182C238.331 138.149 238.432 139.128 238.673 140.073L238.674 140.077C238.78 140.493 238.53 140.915 238.114 141.021C237.699 141.127 237.277 140.876 237.171 140.461C237.169 140.456 237.167 140.448 237.166 140.444Z" fill="#929496"/>
</svg>
